<svg width="1585" height="543" viewBox="0 0 1585 543" fill="none" xmlns="http://www.w3.org/2000/svg">
<path d="M911.5 42.5H1318.5L1337 24" stroke="url(#paint0_linear_1534_23157)" stroke-width="3"/>
<path d="M383.5 448.5L447 512H710.5" stroke="url(#paint1_linear_1534_23157)" stroke-width="3"/>
<path d="M1064.5 216.5H1225L1276 165.5H1472.5L1519.5 118.5" stroke="url(#paint2_linear_1534_23157)" stroke-width="3"/>
<path d="M494 241H785.5L821.5 277H1104L1145 318H1295L1351 262H1521.5L1535 248.5" stroke="url(#paint3_linear_1534_23157)" stroke-width="3"/>
<path d="M453.5 281.5H702L752 331.5H1105L1141.5 368H1336L1359.5 344.5" stroke="url(#paint4_linear_1534_23157)" stroke-width="3"/>
<path d="M125.5 322.5L251 448H647.5L740.5 541H1150.5" stroke="url(#paint5_linear_1534_23157)" stroke-width="3"/>
<path d="M270.5 368L318 415.5H516.5" stroke="url(#paint6_linear_1534_23157)" stroke-width="3"/>
<path d="M688.5 406L762.5 480H806L838 512H1099L1127 484H1265L1323.5 425.5" stroke="url(#paint7_linear_1534_23157)" stroke-width="3"/>
<path d="M36.5 285H389.5L531 143.5H1099.5L1132.5 110.5H1331.5L1358.5 83.5" stroke="url(#paint8_linear_1534_23157)" stroke-width="3"/>
<path d="M0 250H359.5L499 110.5H1072.5L1110 73H1265L1274 64" stroke="url(#paint9_linear_1534_23157)" stroke-width="3"/>
<path d="M1258.5 2H950.5L884 68.5H497.5L347.5 218.5H62.5" stroke="url(#paint10_linear_1534_23157)" stroke-width="3"/>
<path d="M860 367.5L901.5 409H1112" stroke="url(#paint11_linear_1534_23157)" stroke-width="3"/>
<path d="M171 368H577.5L615.5 406H806.5L856 455.5H993.5" stroke="url(#paint12_linear_1534_23157)" stroke-width="3"/>
<path d="M420.5 314H663.5L717.5 368H1072.5L1128.5 424H1443.5" stroke="url(#paint13_linear_1534_23157)" stroke-width="3"/>
<path d="M2 322.5H412L534.5 200H1048L1093 245H1323L1345.5 222.5H1501.5L1528.5 195.5H1584.5" stroke="url(#paint14_linear_1534_23157)" stroke-width="3"/>
<circle cx="672.5" cy="109.5" r="9" fill="#2DD4E8" stroke="#080F2C" stroke-width="3"/>
<circle cx="580.5" cy="200.5" r="9" fill="#2DD4E8" stroke="#080F2C" stroke-width="3"/>
<circle cx="964.5" cy="276.5" r="9" fill="#2DD4E8" stroke="#080F2C" stroke-width="3"/>
<circle cx="1183.5" cy="244.5" r="9" fill="#2DD4E8" stroke="#080F2C" stroke-width="3"/>
<circle cx="1297.5" cy="165.5" r="9" fill="#2DD4E8" stroke="#080F2C" stroke-width="3"/>
<circle cx="1151.5" cy="110.5" r="9" fill="#2DD4E8" stroke="#080F2C" stroke-width="3"/>
<circle cx="1003.5" cy="42.5" r="9" fill="#2DD4E8" stroke="#080F2C" stroke-width="3"/>
<circle cx="1119.5" cy="345.5" r="9" fill="#2DD4E8" stroke="#080F2C" stroke-width="3"/>
<circle cx="805.5" cy="367.5" r="9" fill="#2DD4E8" stroke="#080F2C" stroke-width="3"/>
<circle cx="1026.5" cy="511.5" r="9" fill="#2DD4E8" stroke="#080F2C" stroke-width="3"/>
<circle cx="376.5" cy="368.5" r="9" fill="#2DD4E8" stroke="#080F2C" stroke-width="3"/>
<circle cx="293.5" cy="284.5" r="9" fill="#2DD4E8" stroke="#080F2C" stroke-width="3"/>
<defs>
<linearGradient id="paint0_linear_1534_23157" x1="911.5" y1="33.2497" x2="1337" y2="33.2497" gradientUnits="userSpaceOnUse">
<stop stop-color="#111877"/>
<stop offset="0.52" stop-color="#0097E8"/>
<stop offset="0.59" stop-color="#018EE0"/>
<stop offset="0.69" stop-color="#0476CB"/>
<stop offset="0.83" stop-color="#0950A9"/>
<stop offset="0.99" stop-color="#101C7A"/>
<stop offset="1" stop-color="#111877"/>
</linearGradient>
<linearGradient id="paint1_linear_1534_23157" x1="383.5" y1="480.249" x2="710.5" y2="480.249" gradientUnits="userSpaceOnUse">
<stop stop-color="#111877"/>
<stop offset="0.52" stop-color="#0097E8"/>
<stop offset="0.59" stop-color="#018EE0"/>
<stop offset="0.69" stop-color="#0476CB"/>
<stop offset="0.83" stop-color="#0950A9"/>
<stop offset="0.99" stop-color="#101C7A"/>
<stop offset="1" stop-color="#111877"/>
</linearGradient>
<linearGradient id="paint2_linear_1534_23157" x1="1064.5" y1="167.498" x2="1519.5" y2="167.498" gradientUnits="userSpaceOnUse">
<stop stop-color="#111877"/>
<stop offset="0.52" stop-color="#0097E8"/>
<stop offset="0.59" stop-color="#018EE0"/>
<stop offset="0.69" stop-color="#0476CB"/>
<stop offset="0.83" stop-color="#0950A9"/>
<stop offset="0.99" stop-color="#101C7A"/>
<stop offset="1" stop-color="#111877"/>
</linearGradient>
<linearGradient id="paint3_linear_1534_23157" x1="494" y1="279.499" x2="1535" y2="279.499" gradientUnits="userSpaceOnUse">
<stop stop-color="#111877"/>
<stop offset="0.52" stop-color="#0097E8"/>
<stop offset="0.59" stop-color="#018EE0"/>
<stop offset="0.69" stop-color="#0476CB"/>
<stop offset="0.83" stop-color="#0950A9"/>
<stop offset="0.99" stop-color="#101C7A"/>
<stop offset="1" stop-color="#111877"/>
</linearGradient>
<linearGradient id="paint4_linear_1534_23157" x1="453.5" y1="324.749" x2="1359.5" y2="324.749" gradientUnits="userSpaceOnUse">
<stop stop-color="#111877"/>
<stop offset="0.52" stop-color="#0097E8"/>
<stop offset="0.59" stop-color="#018EE0"/>
<stop offset="0.69" stop-color="#0476CB"/>
<stop offset="0.83" stop-color="#0950A9"/>
<stop offset="0.99" stop-color="#101C7A"/>
<stop offset="1" stop-color="#111877"/>
</linearGradient>
<linearGradient id="paint5_linear_1534_23157" x1="125.5" y1="431.747" x2="1150.5" y2="431.747" gradientUnits="userSpaceOnUse">
<stop stop-color="#111877"/>
<stop offset="0.52" stop-color="#0097E8"/>
<stop offset="0.59" stop-color="#018EE0"/>
<stop offset="0.69" stop-color="#0476CB"/>
<stop offset="0.83" stop-color="#0950A9"/>
<stop offset="0.99" stop-color="#101C7A"/>
<stop offset="1" stop-color="#111877"/>
</linearGradient>
<linearGradient id="paint6_linear_1534_23157" x1="270.5" y1="391.749" x2="516.5" y2="391.749" gradientUnits="userSpaceOnUse">
<stop stop-color="#111877"/>
<stop offset="0.52" stop-color="#0097E8"/>
<stop offset="0.59" stop-color="#018EE0"/>
<stop offset="0.69" stop-color="#0476CB"/>
<stop offset="0.83" stop-color="#0950A9"/>
<stop offset="0.99" stop-color="#101C7A"/>
<stop offset="1" stop-color="#111877"/>
</linearGradient>
<linearGradient id="paint7_linear_1534_23157" x1="688.5" y1="458.998" x2="1323.5" y2="458.998" gradientUnits="userSpaceOnUse">
<stop stop-color="#111877"/>
<stop offset="0.52" stop-color="#0097E8"/>
<stop offset="0.59" stop-color="#018EE0"/>
<stop offset="0.69" stop-color="#0476CB"/>
<stop offset="0.83" stop-color="#0950A9"/>
<stop offset="0.99" stop-color="#101C7A"/>
<stop offset="1" stop-color="#111877"/>
</linearGradient>
<linearGradient id="paint8_linear_1534_23157" x1="36.5" y1="184.247" x2="1358.5" y2="184.247" gradientUnits="userSpaceOnUse">
<stop stop-color="#111877"/>
<stop offset="0.52" stop-color="#0097E8"/>
<stop offset="0.59" stop-color="#018EE0"/>
<stop offset="0.69" stop-color="#0476CB"/>
<stop offset="0.83" stop-color="#0950A9"/>
<stop offset="0.99" stop-color="#101C7A"/>
<stop offset="1" stop-color="#111877"/>
</linearGradient>
<linearGradient id="paint9_linear_1534_23157" x1="0" y1="156.997" x2="1274" y2="156.997" gradientUnits="userSpaceOnUse">
<stop stop-color="#111877"/>
<stop offset="0.52" stop-color="#0097E8"/>
<stop offset="0.59" stop-color="#018EE0"/>
<stop offset="0.69" stop-color="#0476CB"/>
<stop offset="0.83" stop-color="#0950A9"/>
<stop offset="0.99" stop-color="#101C7A"/>
<stop offset="1" stop-color="#111877"/>
</linearGradient>
<linearGradient id="paint10_linear_1534_23157" x1="62.5" y1="110.247" x2="1258.5" y2="110.247" gradientUnits="userSpaceOnUse">
<stop stop-color="#111877"/>
<stop offset="0.52" stop-color="#0097E8"/>
<stop offset="0.59" stop-color="#018EE0"/>
<stop offset="0.69" stop-color="#0476CB"/>
<stop offset="0.83" stop-color="#0950A9"/>
<stop offset="0.99" stop-color="#101C7A"/>
<stop offset="1" stop-color="#111877"/>
</linearGradient>
<linearGradient id="paint11_linear_1534_23157" x1="860" y1="388.249" x2="1112" y2="388.249" gradientUnits="userSpaceOnUse">
<stop stop-color="#111877"/>
<stop offset="0.52" stop-color="#0097E8"/>
<stop offset="0.59" stop-color="#018EE0"/>
<stop offset="0.69" stop-color="#0476CB"/>
<stop offset="0.83" stop-color="#0950A9"/>
<stop offset="0.99" stop-color="#101C7A"/>
<stop offset="1" stop-color="#111877"/>
</linearGradient>
<linearGradient id="paint12_linear_1534_23157" x1="171" y1="411.749" x2="993.501" y2="411.749" gradientUnits="userSpaceOnUse">
<stop stop-color="#111877"/>
<stop offset="0.52" stop-color="#0097E8"/>
<stop offset="0.59" stop-color="#018EE0"/>
<stop offset="0.69" stop-color="#0476CB"/>
<stop offset="0.83" stop-color="#0950A9"/>
<stop offset="0.99" stop-color="#101C7A"/>
<stop offset="1" stop-color="#111877"/>
</linearGradient>
<linearGradient id="paint13_linear_1534_23157" x1="420.5" y1="368.998" x2="1443.5" y2="368.998" gradientUnits="userSpaceOnUse">
<stop stop-color="#111877"/>
<stop offset="0.52" stop-color="#0097E8"/>
<stop offset="0.59" stop-color="#018EE0"/>
<stop offset="0.69" stop-color="#0476CB"/>
<stop offset="0.83" stop-color="#0950A9"/>
<stop offset="0.99" stop-color="#101C7A"/>
<stop offset="1" stop-color="#111877"/>
</linearGradient>
<linearGradient id="paint14_linear_1534_23157" x1="2" y1="258.998" x2="1584.5" y2="258.998" gradientUnits="userSpaceOnUse">
<stop stop-color="#111877"/>
<stop offset="0.52" stop-color="#0097E8"/>
<stop offset="0.59" stop-color="#018EE0"/>
<stop offset="0.69" stop-color="#0476CB"/>
<stop offset="0.83" stop-color="#0950A9"/>
<stop offset="0.99" stop-color="#101C7A"/>
<stop offset="1" stop-color="#111877"/>
</linearGradient>
</defs>
</svg>
