<svg width="303" height="301" viewBox="0 0 303 301" fill="none" xmlns="http://www.w3.org/2000/svg">
<path d="M3.53672 190.464L13.391 196.049L14.3553 147.132L3.39258 140.918L3.53672 190.464Z" fill="#C4C2C0"/>
<path d="M9.17188 104.592C5.91772 106.472 3.31445 111.004 3.31445 114.741L3.39058 140.918L14.3533 147.131L14.8668 121.085C14.8668 117.349 17.4701 112.817 20.7243 110.937L47.1695 95.6697L35.7943 89.2227L9.17188 104.592Z" fill="#D6D4D2"/>
<path d="M3.62803 222.394L12.7681 227.574L13.3894 196.049L3.53516 190.464L3.62803 222.394Z" fill="#E9E8E6"/>
<path d="M35.7939 89.2224L47.1692 95.6695L91.8528 69.8738L80.4775 63.4268L35.7939 89.2224Z" fill="#C4C2C0"/>
<path d="M80.4775 63.4269L91.8528 69.874L132.011 46.6903L120.636 40.2432L80.4775 63.4269Z" fill="#D6D4D2"/>
<path d="M160.38 19.3089C159.319 18.6826 157.825 18.7789 156.186 19.7186L120.634 40.2434L132.009 46.6905L167.738 26.0631C169.377 25.0994 168.459 23.8625 169.52 24.4893L160.38 19.3089Z" fill="#E9E8E6"/>
<path d="M171.531 135.906L12.7595 227.577L12.4404 119.921C12.4404 116.179 15.0514 111.653 18.3005 109.768L165.323 24.8846C168.572 22.9992 171.212 24.5078 171.241 28.2498L171.531 135.906Z" fill="#494846"/>
<path d="M12.7676 227.571L12.8157 237.792L105.885 291.818C109.115 293.698 114.346 293.698 117.6 291.818L264.617 206.945C266.256 206.004 267.075 204.751 267.075 203.522L267.027 193.39C267.027 194.619 266.207 195.848 264.568 196.788L12.7676 227.571Z" fill="#B2B0AF"/>
<path d="M267.027 193.389C267.027 194.618 266.207 195.847 264.568 196.787L48.0742 223.253V258.258L105.885 291.817C109.115 293.697 114.346 293.697 117.6 291.817L264.616 206.943C266.255 206.003 267.075 204.75 267.075 203.52L267.027 193.389Z" fill="#C4C2C0"/>
<path d="M267.025 193.389C267.025 194.618 266.205 195.847 264.566 196.787L87.8164 218.394V281.33L105.883 291.817C109.113 293.697 114.344 293.697 117.598 291.817L264.614 206.943C266.253 206.003 267.073 204.75 267.073 203.52L267.025 193.389Z" fill="#D6D4D2"/>
<path d="M267.029 193.389C267.029 194.618 266.209 195.847 264.57 196.787L147.665 211.079V274.461L264.618 206.943C266.257 206.003 267.077 204.75 267.077 203.52L267.029 193.389Z" fill="#C4C2C0"/>
<path d="M267.025 193.389C267.025 194.618 266.205 195.847 264.566 196.787L231.718 200.803V225.935L264.614 206.943C266.253 206.003 267.073 204.75 267.073 203.52L267.025 193.389Z" fill="#B2B0AF"/>
<path d="M12.7773 227.566L105.849 281.653C109.075 283.528 114.321 283.528 117.569 281.653L264.576 196.778C267.839 194.894 267.856 191.856 264.629 189.981L171.558 135.894L12.7773 227.566Z" fill="#E9E8E6"/>
<path d="M156.321 160.454C156.057 160.606 156.056 160.866 156.317 161.018L163.081 164.949C163.342 165.101 163.792 165.101 164.055 164.949L170.844 161.029C171.126 160.866 171.109 160.617 170.847 160.465L164.084 156.534C163.822 156.382 163.391 156.371 163.109 156.534L156.321 160.454Z" fill="#494846"/>
<path d="M144.438 167.315C144.156 167.478 144.173 167.727 144.435 167.879L151.198 171.81C151.46 171.962 151.891 171.973 152.173 171.81L158.962 167.89C159.225 167.738 159.226 167.478 158.965 167.326L152.202 163.395C151.94 163.243 151.49 163.243 151.227 163.395L144.438 167.315Z" fill="#494846"/>
<path d="M132.531 174.19C132.268 174.342 132.267 174.603 132.528 174.755L139.292 178.685C139.553 178.837 140.003 178.838 140.266 178.685L147.074 174.755C147.337 174.603 147.32 174.353 147.058 174.201L140.295 170.271C140.033 170.119 139.602 170.108 139.339 170.26L132.531 174.19Z" fill="#494846"/>
<path d="M163.146 170.565C162.864 170.728 162.863 170.967 163.143 171.13L169.888 175.05C170.149 175.202 170.58 175.212 170.862 175.05L182.954 168.068C183.236 167.905 183.219 167.656 182.957 167.504L176.213 163.584C175.933 163.421 175.52 163.421 175.238 163.584L163.146 170.565Z" fill="#494846"/>
<path d="M151.074 177.533C150.81 177.685 150.79 177.935 151.07 178.098L157.815 182.017C158.077 182.169 158.527 182.169 158.79 182.017L165.579 178.098C165.861 177.935 165.844 177.685 165.582 177.533L158.837 173.613C158.557 173.45 158.145 173.45 157.863 173.613L151.074 177.533Z" fill="#494846"/>
<path d="M138.925 184.546C138.662 184.698 138.642 184.948 138.922 185.111L145.667 189.03C145.928 189.182 146.378 189.182 146.641 189.03L153.449 185.1C153.712 184.948 153.695 184.698 153.433 184.546L146.689 180.626C146.408 180.464 145.996 180.464 145.733 180.616L138.925 184.546Z" fill="#494846"/>
<path d="M126.777 191.563C126.514 191.715 126.493 191.965 126.774 192.128L133.518 196.047C133.78 196.199 134.23 196.199 134.493 196.047L141.301 192.117C141.564 191.965 141.565 191.704 141.304 191.552L134.559 187.633C134.279 187.47 133.848 187.481 133.584 187.633L126.777 191.563Z" fill="#494846"/>
<path d="M114.628 198.575C114.365 198.727 114.345 198.977 114.625 199.139L121.37 203.059C121.631 203.211 122.081 203.211 122.345 203.059L129.152 199.129C129.415 198.977 129.417 198.716 129.155 198.564L122.411 194.644C122.13 194.482 121.699 194.492 121.436 194.644L114.628 198.575Z" fill="#494846"/>
<path d="M102.497 205.581C102.215 205.743 102.213 205.982 102.493 206.145L109.238 210.065C109.5 210.217 109.931 210.228 110.213 210.065L117.002 206.145C117.265 205.993 117.267 205.733 117.005 205.581L110.26 201.661C109.98 201.498 109.549 201.509 109.286 201.661L102.497 205.581Z" fill="#494846"/>
<path d="M90.3492 212.592C90.0671 212.755 90.0658 212.994 90.346 213.157L97.0907 217.076C97.3523 217.228 97.7833 217.239 98.0654 217.076L104.854 213.157C105.118 213.005 105.119 212.744 104.857 212.592L98.1127 208.673C97.8324 208.51 97.4013 208.521 97.1379 208.673L90.3492 212.592Z" fill="#494846"/>
<path d="M78.1998 219.608C77.9177 219.771 77.9163 220.01 78.1966 220.173L84.9413 224.092C85.2029 224.244 85.6339 224.255 85.916 224.092L92.7049 220.173C92.987 220.01 92.9697 219.76 92.7081 219.608L85.9634 215.689C85.6831 215.526 85.2708 215.526 84.9887 215.689L78.1998 219.608Z" fill="#494846"/>
<path d="M120.649 181.049C120.367 181.212 120.384 181.462 120.646 181.614L127.409 185.544C127.671 185.696 128.102 185.707 128.384 185.544L135.173 181.625C135.455 181.462 135.437 181.212 135.176 181.06L128.412 177.13C128.151 176.978 127.72 176.967 127.438 177.13L120.649 181.049Z" fill="#494846"/>
<path d="M108.742 187.926C108.479 188.078 108.478 188.339 108.739 188.491L115.503 192.421C115.764 192.573 116.214 192.573 116.477 192.421L123.285 188.491C123.548 188.339 123.55 188.078 123.288 187.926L116.525 183.996C116.263 183.844 115.813 183.844 115.55 183.996L108.742 187.926Z" fill="#494846"/>
<path d="M96.8576 194.785C96.5943 194.937 96.5929 195.197 96.8544 195.349L103.618 199.28C103.879 199.432 104.329 199.432 104.593 199.28L111.381 195.36C111.663 195.197 111.646 194.948 111.384 194.796L104.621 190.865C104.36 190.713 103.928 190.702 103.646 190.865L96.8576 194.785Z" fill="#494846"/>
<path d="M84.9749 201.646C84.6929 201.809 84.7103 202.058 84.9719 202.21L91.7352 206.141C91.9968 206.293 92.4279 206.304 92.7098 206.141L99.4987 202.221C99.7619 202.069 99.7635 201.809 99.5019 201.657L92.7385 197.726C92.477 197.574 92.027 197.574 91.7638 197.726L84.9749 201.646Z" fill="#494846"/>
<path d="M73.0686 208.521C72.8052 208.674 72.8038 208.934 73.0654 209.086L79.8287 213.017C80.0903 213.169 80.5401 213.169 80.8035 213.017L87.6111 209.086C87.8743 208.934 87.857 208.684 87.5954 208.532L80.832 204.602C80.5705 204.45 80.1394 204.439 79.8762 204.591L73.0686 208.521Z" fill="#494846"/>
<path d="M61.186 215.38C60.9039 215.543 60.9212 215.793 61.1828 215.945L67.9462 219.875C68.2077 220.027 68.6388 220.038 68.9209 219.875L75.7096 215.956C75.9917 215.793 75.9744 215.543 75.7128 215.391L68.9495 211.461C68.6879 211.309 68.2568 211.298 67.9747 211.461L61.186 215.38Z" fill="#494846"/>
<path d="M49.2795 222.257C49.0162 222.409 49.0147 222.67 49.2763 222.822L56.0396 226.752C56.3012 226.904 56.7511 226.904 57.0144 226.752L63.822 222.822C64.0852 222.67 64.0867 222.409 63.8252 222.257L57.0618 218.327C56.8002 218.175 56.3503 218.175 56.0871 218.327L49.2795 222.257Z" fill="#494846"/>
<path d="M61.4067 229.302C61.1434 229.454 61.1232 229.704 61.4035 229.866L68.1482 233.786C68.4097 233.938 68.8597 233.938 69.1229 233.786L81.2337 226.794C81.5157 226.631 81.4984 226.381 81.2368 226.229L74.4921 222.31C74.2119 222.147 73.7995 222.147 73.5175 222.31L61.4067 229.302Z" fill="#494846"/>
<path d="M169.873 180.707C169.609 180.859 169.589 181.108 169.869 181.271L176.614 185.191C176.894 185.354 177.325 185.343 177.589 185.191L195.059 175.104C195.341 174.942 195.343 174.703 195.062 174.54L188.318 170.62C188.037 170.457 187.625 170.457 187.343 170.62L169.873 180.707Z" fill="#494846"/>
<path d="M156.766 188.273C156.503 188.425 156.483 188.674 156.763 188.837L163.508 192.757C163.788 192.92 164.219 192.909 164.482 192.757L171.29 188.826C171.553 188.674 171.555 188.435 171.274 188.273L164.53 184.353C164.249 184.19 163.837 184.19 163.574 184.342L156.766 188.273Z" fill="#494846"/>
<path d="M144.879 195.135C144.597 195.298 144.596 195.537 144.876 195.7L151.621 199.62C151.901 199.782 152.314 199.782 152.596 199.62L159.384 195.7C159.667 195.537 159.668 195.298 159.388 195.135L152.643 191.216C152.363 191.053 151.95 191.053 151.668 191.216L144.879 195.135Z" fill="#494846"/>
<path d="M132.977 202.006C132.714 202.159 132.694 202.408 132.974 202.571L139.719 206.491C139.999 206.654 140.43 206.643 140.693 206.491L147.501 202.56C147.764 202.408 147.784 202.159 147.504 201.996L140.759 198.076C140.479 197.913 140.048 197.924 139.785 198.076L132.977 202.006Z" fill="#494846"/>
<path d="M121.093 208.871C120.83 209.023 120.81 209.272 121.09 209.435L127.835 213.355C128.115 213.518 128.546 213.507 128.809 213.355L135.598 209.435C135.88 209.273 135.882 209.034 135.601 208.871L128.857 204.951C128.576 204.788 128.164 204.788 127.882 204.951L121.093 208.871Z" fill="#494846"/>
<path d="M109.206 215.732C108.924 215.895 108.922 216.134 109.202 216.297L115.947 220.216C116.227 220.379 116.64 220.379 116.922 220.216L123.711 216.297C123.974 216.145 123.994 215.895 123.714 215.732L116.969 211.812C116.689 211.65 116.258 211.66 115.994 211.812L109.206 215.732Z" fill="#494846"/>
<path d="M97.3042 222.603C97.0408 222.755 97.0207 223.004 97.301 223.167L104.046 227.087C104.326 227.25 104.757 227.239 105.02 227.087L111.828 223.156C112.091 223.004 112.093 222.766 111.812 222.603L105.068 218.683C104.787 218.52 104.375 218.52 104.112 218.672L97.3042 222.603Z" fill="#494846"/>
<path d="M73.5151 236.339C73.2518 236.491 73.2316 236.74 73.5119 236.903L80.2566 240.823C80.5368 240.986 80.9681 240.975 81.2313 240.823L100.168 229.89C100.451 229.727 100.452 229.488 100.172 229.325L93.427 225.405C93.1468 225.242 92.7344 225.242 92.4523 225.405L73.5151 236.339Z" fill="#494846"/>
<path d="M181.552 187.489C181.289 187.641 181.269 187.891 181.549 188.054L188.294 191.973C188.574 192.136 189.005 192.125 189.268 191.973L206.739 181.887C207.021 181.724 207.022 181.485 206.742 181.322L199.997 177.402C199.717 177.24 199.305 177.24 199.023 177.402L181.552 187.489Z" fill="#494846"/>
<path d="M183.995 195.019L117.229 233.57C116.957 233.718 116.538 233.743 116.242 233.57L109.509 229.648C109.213 229.5 109.237 229.229 109.509 229.081L176.275 190.53C176.547 190.383 176.966 190.358 177.262 190.53L183.995 194.452C184.291 194.625 184.267 194.871 183.995 195.019Z" fill="#494846"/>
<path d="M63.8155 224.027L57.0126 227.945C56.7696 228.097 56.3141 228.097 56.0407 227.945L49.2682 224.027C49.1466 223.936 49.0859 223.845 49.0859 223.754V222.539C49.0859 222.63 49.1466 222.752 49.2682 222.812L56.0407 226.761C56.3141 226.912 56.7392 226.912 57.0126 226.761L63.8155 222.812C63.9674 222.752 64.0282 222.63 64.0282 222.539V223.724C64.0282 223.845 63.9674 223.936 63.8155 224.027Z" fill="#21201F"/>
<path d="M61.1734 217.135C61.052 217.075 60.9912 216.984 60.9912 216.862V215.678C60.9912 215.769 61.052 215.86 61.1734 215.951L67.946 219.869C68.2194 220.021 68.6446 220.051 68.9179 219.869L75.7208 215.951C75.8424 215.89 75.903 215.769 75.903 215.678V216.893C75.903 216.984 75.8424 217.075 75.7208 217.166L68.9179 221.084C68.6446 221.236 68.2194 221.236 67.946 221.084L61.1734 217.135Z" fill="#21201F"/>
<path d="M84.9821 203.407C84.8301 203.346 84.7695 203.225 84.7695 203.134V201.919C84.7695 202.04 84.8301 202.131 84.9821 202.223L91.7243 206.14C91.9977 206.292 92.4228 206.292 92.6962 206.14L99.4991 202.223C99.6207 202.162 99.6814 202.04 99.6814 201.949L99.7117 203.134C99.7117 203.255 99.6207 203.346 99.4991 203.437L92.6962 207.355C92.4228 207.507 91.9977 207.507 91.7243 207.355L84.9821 203.407Z" fill="#21201F"/>
<path d="M110.222 210.059L116.994 206.141C117.146 206.081 117.207 205.959 117.207 205.868V207.052C117.207 207.174 117.146 207.265 116.994 207.356L110.222 211.274C109.948 211.426 109.493 211.426 109.25 211.274L102.508 207.356C102.356 207.265 102.295 207.174 102.295 207.052V205.868C102.295 205.959 102.356 206.05 102.508 206.141L109.25 210.059C109.493 210.211 109.918 210.242 110.222 210.059Z" fill="#21201F"/>
<path d="M110.586 237.271L110.616 238.425C110.616 238.546 110.525 238.637 110.403 238.698L92.9101 248.811C92.6366 248.963 92.2116 248.963 91.9382 248.811L85.196 244.894C85.044 244.803 84.9834 244.711 84.9834 244.62V243.405C84.9834 243.496 85.044 243.618 85.196 243.679L91.9382 247.597C92.2116 247.779 92.6366 247.748 92.9101 247.597L110.403 237.514C110.494 237.422 110.586 237.362 110.586 237.271Z" fill="#21201F"/>
<path d="M108.731 189.681C108.61 189.621 108.549 189.53 108.549 189.408V188.224C108.549 188.315 108.61 188.406 108.731 188.497L115.504 192.415C115.777 192.567 116.202 192.567 116.476 192.415L123.279 188.497C123.43 188.406 123.491 188.315 123.491 188.193V189.408C123.491 189.499 123.43 189.621 123.279 189.681L116.476 193.63C116.202 193.781 115.777 193.781 115.504 193.63L108.731 189.681Z" fill="#21201F"/>
<path d="M73.0788 210.302C72.927 210.211 72.8662 210.119 72.8662 209.998V208.813C72.8662 208.905 72.927 209.026 73.0788 209.087L79.8212 213.005C80.0944 213.156 80.55 213.156 80.793 213.005L87.6264 209.087C87.7478 209.026 87.8086 208.905 87.8086 208.813V210.028C87.8086 210.119 87.7478 210.211 87.6264 210.302L80.8234 214.22C80.55 214.371 80.0944 214.371 79.8212 214.22L73.0788 210.302Z" fill="#21201F"/>
<path d="M97.3161 224.364C97.1641 224.303 97.1035 224.182 97.1035 224.091V222.906C97.1035 222.997 97.1641 223.089 97.2857 223.18L104.058 227.098C104.332 227.249 104.757 227.249 105.03 227.098L111.833 223.149C111.955 223.089 112.015 222.997 112.015 222.876V224.091C112.015 224.182 111.955 224.273 111.833 224.364L105.03 228.282C104.757 228.434 104.332 228.464 104.058 228.282L97.3161 224.364Z" fill="#21201F"/>
<path d="M96.6749 196.272L96.6445 195.088C96.6445 195.179 96.7357 195.27 96.8572 195.361L103.63 199.279C103.873 199.431 104.328 199.431 104.602 199.279L111.374 195.361C111.526 195.27 111.587 195.179 111.587 195.088V196.272C111.587 196.394 111.526 196.485 111.374 196.576L104.602 200.494C104.328 200.646 103.873 200.646 103.63 200.494L96.8572 196.546C96.7357 196.485 96.6749 196.363 96.6749 196.272Z" fill="#21201F"/>
<path d="M85.9239 224.089L92.6965 220.171C92.8483 220.08 92.9091 219.988 92.9091 219.897V221.082C92.9091 221.203 92.8483 221.294 92.6965 221.386L85.9239 225.303C85.6505 225.455 85.195 225.455 84.952 225.303L78.2097 221.386C78.0579 221.294 77.9971 221.203 77.9971 221.082V219.897C77.9971 219.988 78.0579 220.08 78.2097 220.171L84.952 224.089C85.195 224.24 85.6201 224.24 85.9239 224.089Z" fill="#21201F"/>
<path d="M81.2495 228.007L69.1317 234.992C68.8585 235.144 68.4029 235.144 68.1598 234.992L61.4177 231.074C61.2659 230.983 61.2051 230.892 61.2051 230.801V229.586C61.2051 229.677 61.2659 229.799 61.4177 229.859L68.1598 233.777C68.4029 233.929 68.8585 233.929 69.1317 233.777L81.2495 226.792C81.3711 226.701 81.4317 226.61 81.4317 226.519V227.703C81.4317 227.824 81.3711 227.916 81.2495 228.007Z" fill="#21201F"/>
<path d="M97.1005 218.292L90.3581 214.374C90.2063 214.283 90.1455 214.192 90.1455 214.07V212.886C90.1455 212.977 90.2063 213.068 90.3581 213.159L97.1005 217.077C97.3435 217.229 97.7685 217.229 98.0723 217.077L104.845 213.159C104.997 213.098 105.058 212.977 105.058 212.886V214.07C105.058 214.192 104.997 214.283 104.845 214.374L98.0723 218.292C97.7989 218.443 97.3435 218.443 97.1005 218.292Z" fill="#21201F"/>
<path d="M100.167 231.107L81.2156 242.041C80.9728 242.192 80.5475 242.192 80.2439 242.041L73.5016 238.092C73.3801 238.032 73.3193 237.941 73.3193 237.819V236.635C73.3193 236.726 73.3801 236.817 73.5016 236.908L80.2439 240.826C80.5475 240.978 80.9728 240.978 81.2156 240.826L100.167 229.892C100.319 229.801 100.38 229.71 100.38 229.619V230.803C100.38 230.895 100.319 231.016 100.167 231.107Z" fill="#21201F"/>
<path d="M115.962 221.418L109.219 217.5C109.068 217.409 109.007 217.318 109.007 217.227V216.012C109.007 216.103 109.068 216.224 109.189 216.285L115.962 220.203C116.235 220.385 116.63 220.385 116.933 220.203L123.706 216.285C123.858 216.224 123.919 216.103 123.919 216.012V217.227C123.919 217.318 123.858 217.409 123.706 217.5L116.933 221.418C116.63 221.57 116.235 221.57 115.962 221.418Z" fill="#21201F"/>
<path d="M132.546 175.951C132.394 175.89 132.333 175.769 132.333 175.678V174.463C132.333 174.584 132.394 174.676 132.546 174.767L139.288 178.684C139.561 178.836 140.017 178.836 140.26 178.684L147.063 174.767C147.215 174.676 147.275 174.584 147.275 174.493V175.678C147.275 175.799 147.215 175.89 147.093 175.951L140.26 179.899C140.017 180.051 139.561 180.051 139.288 179.899L132.546 175.951Z" fill="#21201F"/>
<path d="M151.617 200.827L144.875 196.909C144.753 196.818 144.662 196.727 144.662 196.636V195.421C144.662 195.512 144.753 195.634 144.875 195.694L151.617 199.612C151.89 199.794 152.316 199.794 152.589 199.612L159.392 195.694C159.513 195.634 159.605 195.512 159.605 195.421V196.605C159.605 196.727 159.544 196.818 159.392 196.909L152.589 200.827C152.316 200.979 151.921 200.979 151.617 200.827Z" fill="#21201F"/>
<path d="M127.838 214.552L121.095 210.634C120.943 210.543 120.883 210.452 120.883 210.36V209.146C120.883 209.267 120.943 209.358 121.095 209.419L127.838 213.367C128.111 213.519 128.536 213.519 128.809 213.367L135.612 209.419C135.703 209.358 135.795 209.267 135.795 209.176L135.825 210.36C135.825 210.452 135.734 210.543 135.612 210.634L128.809 214.552C128.536 214.703 128.111 214.703 127.838 214.552Z" fill="#21201F"/>
<path d="M134.488 196.058L141.291 192.11C141.443 192.05 141.504 191.928 141.504 191.837V193.021C141.504 193.143 141.443 193.234 141.291 193.325L134.488 197.243C134.245 197.395 133.79 197.395 133.516 197.243L126.774 193.325C126.653 193.264 126.562 193.143 126.562 193.052V191.837C126.562 191.958 126.622 192.05 126.774 192.141L133.516 196.058C133.79 196.21 134.215 196.21 134.488 196.058Z" fill="#21201F"/>
<path d="M122.34 203.074L129.143 199.126C129.295 199.065 129.355 198.944 129.355 198.853V200.037C129.355 200.158 129.295 200.249 129.143 200.341L122.34 204.258C122.097 204.41 121.641 204.41 121.368 204.258L114.626 200.341C114.504 200.249 114.413 200.158 114.413 200.067V198.853C114.413 198.974 114.474 199.065 114.626 199.156L121.368 203.074C121.641 203.226 122.066 203.226 122.34 203.074Z" fill="#21201F"/>
<path d="M139.713 207.691L132.97 203.773C132.849 203.682 132.788 203.591 132.788 203.5L132.758 202.285C132.758 202.407 132.849 202.498 132.97 202.589L139.713 206.507C139.986 206.659 140.441 206.659 140.684 206.507L147.487 202.558C147.639 202.498 147.7 202.376 147.7 202.285V203.469C147.7 203.591 147.639 203.682 147.518 203.773L140.684 207.691C140.441 207.843 140.016 207.843 139.713 207.691Z" fill="#21201F"/>
<path d="M144.45 169.091C144.298 169 144.237 168.908 144.237 168.817V167.603C144.237 167.694 144.298 167.815 144.42 167.876L151.192 171.824C151.465 171.976 151.891 171.976 152.164 171.824L158.967 167.906C159.089 167.815 159.149 167.724 159.149 167.603V168.817C159.149 168.908 159.089 169.03 158.967 169.091L152.164 173.009C151.891 173.191 151.465 173.16 151.192 173.009L144.45 169.091Z" fill="#21201F"/>
<path d="M120.64 182.816C120.519 182.755 120.458 182.634 120.458 182.543V181.328C120.458 181.45 120.519 181.541 120.64 181.632L127.413 185.55C127.686 185.701 128.111 185.701 128.385 185.55L135.188 181.632C135.309 181.541 135.37 181.45 135.37 181.359V182.543C135.37 182.634 135.309 182.755 135.188 182.816L128.385 186.734C128.111 186.916 127.686 186.886 127.413 186.734L120.64 182.816Z" fill="#21201F"/>
<path d="M146.637 189.041L153.44 185.093C153.531 185.032 153.622 184.971 153.622 184.88L153.652 186.034C153.652 186.125 153.591 186.216 153.44 186.307L146.637 190.225C146.394 190.377 145.938 190.377 145.665 190.225L138.922 186.307C138.801 186.247 138.71 186.125 138.71 186.034V184.819C138.71 184.941 138.771 185.032 138.922 185.123L145.665 189.041C145.938 189.193 146.363 189.193 146.637 189.041Z" fill="#21201F"/>
<path d="M156.142 161.952L156.111 160.737C156.111 160.859 156.202 160.95 156.324 161.011L163.097 164.959C163.34 165.111 163.795 165.111 164.068 164.959L170.841 161.041C170.993 160.95 171.054 160.859 171.054 160.737V161.952C171.054 162.043 170.993 162.165 170.841 162.226L164.068 166.143C163.795 166.295 163.34 166.295 163.097 166.143L156.324 162.226C156.202 162.134 156.142 162.043 156.142 161.952Z" fill="#21201F"/>
<path d="M157.813 183.213L151.071 179.296C150.949 179.235 150.858 179.114 150.858 179.022V177.838C150.858 177.929 150.919 178.02 151.071 178.111L157.813 182.029C158.087 182.181 158.512 182.181 158.785 182.029L165.588 178.111C165.709 178.02 165.77 177.929 165.77 177.808L165.801 179.022C165.801 179.114 165.709 179.235 165.588 179.296L158.785 183.213C158.542 183.365 158.087 183.365 157.813 183.213Z" fill="#21201F"/>
<path d="M183.992 195.026C184.143 194.934 184.204 194.843 184.204 194.722V195.937C184.204 196.028 184.143 196.149 183.992 196.21L117.237 234.78C116.964 234.932 116.539 234.932 116.266 234.78L109.493 230.863C109.371 230.772 109.311 230.68 109.311 230.559V229.374C109.311 229.466 109.371 229.587 109.493 229.648L116.235 233.566C116.539 233.748 116.964 233.717 117.237 233.566L183.992 195.026Z" fill="#21201F"/>
<path d="M163.521 193.961L156.779 190.043C156.627 189.952 156.566 189.861 156.566 189.77V188.555C156.566 188.646 156.627 188.767 156.749 188.828L163.521 192.746C163.794 192.928 164.22 192.898 164.493 192.746L171.296 188.828C171.417 188.737 171.478 188.646 171.478 188.555V189.77C171.478 189.861 171.417 189.952 171.296 190.012L164.493 193.961C164.22 194.113 163.794 194.113 163.521 193.961Z" fill="#21201F"/>
<path d="M170.87 175.042L182.957 168.057C183.079 167.996 183.17 167.874 183.17 167.783V168.998C183.17 169.089 183.109 169.18 182.957 169.271L170.87 176.257C170.566 176.408 170.141 176.408 169.898 176.257L163.156 172.339C163.004 172.248 162.943 172.157 162.943 172.035V170.851C162.943 170.942 163.004 171.063 163.126 171.124L169.898 175.042C170.141 175.194 170.566 175.224 170.87 175.042Z" fill="#21201F"/>
<path d="M177.584 185.186L195.047 175.103C195.199 175.011 195.26 174.92 195.26 174.829L195.29 176.014C195.29 176.135 195.199 176.226 195.077 176.317L177.584 186.4C177.341 186.552 176.885 186.552 176.612 186.4L169.87 182.483C169.748 182.391 169.657 182.3 169.657 182.179V180.994C169.657 181.085 169.748 181.177 169.87 181.268L176.612 185.186C176.885 185.368 177.341 185.337 177.584 185.186Z" fill="#21201F"/>
<path d="M206.954 181.602V182.816C206.954 182.907 206.893 182.998 206.741 183.09L189.278 193.173C189.005 193.325 188.58 193.325 188.306 193.173L181.564 189.255C181.412 189.164 181.352 189.073 181.352 188.982V187.767C181.352 187.888 181.412 187.979 181.564 188.07L188.306 191.988C188.58 192.14 189.005 192.14 189.278 191.988L206.741 181.875C206.893 181.814 206.954 181.693 206.954 181.602Z" fill="#21201F"/>
<path d="M85.1899 243.126C84.9266 243.278 84.9064 243.527 85.1867 243.69L91.9314 247.61C92.2116 247.773 92.6429 247.762 92.9061 247.61L110.395 237.512C110.659 237.36 110.679 237.111 110.398 236.948L103.654 233.028C103.374 232.865 102.942 232.876 102.679 233.028L85.1899 243.126Z" fill="#494846"/>
<path d="M158.485 149.652C160.998 148.202 165.086 148.202 167.582 149.652L219.708 179.945C222.204 181.395 222.191 183.763 219.678 185.214L97.5629 255.717C95.0503 257.168 90.9625 257.168 88.4662 255.717L36.3401 225.425C33.8439 223.974 33.8571 221.606 36.3697 220.156L158.485 149.652ZM90.5168 254.533C91.8934 255.333 94.14 255.333 95.5256 254.534L217.641 184.03C219.027 183.23 219.034 181.929 217.657 181.129L165.531 150.836C164.155 150.036 161.908 150.036 160.523 150.836L38.407 221.34C37.0214 222.14 37.014 223.441 38.3907 224.241L90.5168 254.533Z" fill="#A0A8AA"/>
<path d="M186.202 235.453L160.741 250.238C159.347 251.05 157.673 251.05 156.303 250.263L140.074 240.881C138.578 240.044 138.578 237.913 140.023 237.051L165.509 222.267C166.878 221.456 168.577 221.456 169.947 222.242L186.202 231.625C187.672 232.461 187.672 234.592 186.202 235.453Z" fill="#A0A8AA"/>
<path d="M41.0059 210.498C41.2738 210.34 41.6393 210.364 42.0535 210.596C42.9184 211.095 43.5762 212.313 43.5762 213.288L163.802 143.757C163.802 142.783 163.144 141.565 162.291 141.077C161.877 140.834 161.5 140.822 161.232 140.98L41.0059 210.498Z" fill="#21201F"/>
<path d="M42.0579 210.596C41.2101 210.106 40.5389 210.551 40.5361 211.525L43.5772 213.281C43.5799 212.307 42.9134 211.09 42.0579 210.596Z" fill="#383736"/>
<path d="M164.038 33.9844L164.018 34.0122V33.9983L164.038 33.9844Z" fill="white"/>
<path d="M166.567 33.998V29.585L17.1328 115.817L17.1602 126.259L166.585 40.0322L166.567 33.998Z" fill="white"/>
<path d="M17.1621 126.261L17.3944 215.08L17.419 219.591L21.4735 217.132L166.854 133.211L166.587 40.0342L17.1621 126.261Z" fill="#3F9AE0"/>
<path d="M140.219 82.1561C143.137 80.4718 145.502 81.8196 145.511 85.1718C145.521 88.5241 143.171 92.5939 140.254 94.2782L50.6426 146.015C47.7253 147.7 45.3601 146.352 45.3506 143C45.3411 139.647 47.6909 135.577 50.6082 133.893L140.219 82.1561Z" fill="#0074D1"/>
<path d="M193.618 181.589L108.237 231.223C104.465 233.409 99.2791 233.109 93.5357 229.809C82.1772 223.251 72.9189 207.263 72.9618 194.19L73.0476 164.273C73.0905 154.457 66.1898 142.542 57.7029 137.656L54.96 136.07L140.384 86.4355L143.127 88.0214C151.614 92.9078 158.514 104.823 158.471 114.596L158.386 144.556C158.343 157.629 167.558 173.617 178.96 180.175C184.703 183.475 189.889 183.775 193.618 181.589Z" fill="#F2F2F2"/>
<path d="M196.168 185.959L110.746 235.601C115.096 233.073 117.797 227.706 117.819 220.086L203.24 170.444C203.219 178.064 200.518 183.432 196.168 185.959Z" fill="#D6D4D2"/>
<path d="M117.824 219.046L203.246 169.404L203.243 170.442L117.821 220.083L117.824 219.046Z" fill="#D6D4D2"/>
<path d="M122.904 207.903L208.326 158.262C205.201 160.078 203.26 163.93 203.244 169.406L117.822 219.048C117.838 213.572 119.779 209.719 122.904 207.903Z" fill="#D6D4D2"/>
<path d="M184.947 282.591L270.369 232.949L270.357 237.062L184.936 286.703L184.947 282.591Z" fill="#C4C2C0"/>
<path d="M57.6926 137.647C66.2048 142.561 73.0821 154.473 73.0544 164.254L72.9695 194.19C72.9324 207.269 82.156 223.245 93.5377 229.816C104.919 236.387 114.203 231.096 114.24 218.018L114.243 216.981C114.281 203.68 123.759 198.279 135.334 204.962C146.941 211.663 156.326 227.954 156.288 241.255L156.246 256.186C156.23 261.595 160.055 268.219 164.762 270.937L184.946 282.59L184.934 286.703L164.75 275.05C158.076 271.196 152.645 261.789 152.667 254.12L152.709 239.189C152.74 228.148 144.931 214.659 135.322 209.111C125.714 203.564 117.854 208.006 117.822 219.047L117.819 220.084C117.776 235.423 106.875 241.635 93.526 233.928C80.1775 226.222 69.3472 207.463 69.3907 192.124L69.4756 162.188C69.4969 154.667 64.2263 145.538 57.6809 141.759L54.9404 140.177L54.9521 136.064L57.6926 137.647Z" fill="#B2B0AF"/>
<path d="M120.39 203.518L205.811 153.877C209.638 151.653 214.932 151.956 220.757 155.319C232.364 162.02 241.749 178.311 241.711 191.612L156.289 241.254C156.327 227.953 146.943 211.662 135.335 204.96C129.51 201.597 124.217 201.294 120.39 203.518Z" fill="#F2F2F2"/>
<path d="M205.811 153.88L120.39 203.522C121.945 202.618 123.753 202.156 125.73 202.122L211.153 152.48C209.175 152.514 207.367 152.976 205.811 153.88Z" fill="#D6D4D2"/>
<path d="M270.386 232.939L184.962 282.573L164.774 270.957C160.059 268.214 156.244 261.614 156.244 256.17L156.287 241.254C156.33 227.967 146.943 211.679 135.328 204.95C131.899 202.978 128.599 202.078 125.727 202.121L211.15 152.487C214.022 152.444 217.323 153.344 220.752 155.316C232.367 162.002 241.754 178.333 241.711 191.62L241.668 206.536C241.668 211.936 245.483 218.58 250.198 221.28L270.386 232.939Z" fill="#F2F2F2"/>
<path d="M260.569 232.209L183.718 276.871L180.16 274.856L257.012 230.151L260.569 232.209Z" fill="#D6D4D2"/>
<path d="M246.429 223.936L169.448 268.684L166.92 267.227C166.62 267.055 166.32 266.841 166.02 266.584L243.685 221.45C244.543 222.393 245.443 223.207 246.429 223.936Z" fill="#D6D4D2"/>
<path d="M238.326 212.193L160.617 257.37C160.574 256.941 160.531 256.555 160.531 256.169V253.298L237.511 208.55C237.64 209.75 237.94 210.993 238.326 212.193Z" fill="#D6D4D2"/>
<path d="M237.424 192.173V196.245L160.573 240.907C160.573 239.621 160.487 238.335 160.272 237.007L237.424 192.173Z" fill="#D6D4D2"/>
<path d="M235.456 180.946L157.575 226.208C157.19 225.094 156.718 223.979 156.161 222.908L234.17 177.603C234.641 178.717 235.07 179.831 235.456 180.946Z" fill="#D6D4D2"/>
<path d="M202.187 183.733L150.759 213.648C150.073 212.705 149.345 211.762 148.616 210.862L199.958 180.947C200.773 181.847 201.502 182.747 202.187 183.733Z" fill="#D6D4D2"/>
<path d="M191 173.79L140.472 203.19C139.486 202.462 138.501 201.819 137.472 201.219C137.386 201.176 137.257 201.133 137.172 201.047L186.585 172.29C188 172.547 189.5 173.019 191 173.79Z" fill="#D6D4D2"/>
<path d="M148.958 99.5077L70.9489 144.856C70.3059 143.827 69.6202 142.884 68.8916 141.941L146.772 96.6787C147.543 97.5789 148.272 98.522 148.958 99.5077Z" fill="#D6D4D2"/>
<path d="M154.141 125.312V129.384L77.2891 174.047L77.332 169.975L154.141 125.312Z" fill="#D6D4D2"/>
<path d="M164.559 172.759L86.6363 218.022C85.9078 217.122 85.1792 216.136 84.5361 215.15L162.459 169.888C163.145 170.874 163.831 171.859 164.559 172.759Z" fill="#D6D4D2"/>
<path d="M157.446 160.414L79.5656 205.676C79.094 204.561 78.7512 203.404 78.4512 202.247L156.246 157.07C156.588 158.185 156.974 159.299 157.446 160.414Z" fill="#D6D4D2"/>
<path d="M154.144 145.844L77.25 190.549L77.2929 186.435L154.101 141.772V144.559C154.101 144.987 154.101 145.416 154.144 145.844Z" fill="#D6D4D2"/>
<path d="M154.1 112.966L76.6062 157.971C76.349 156.814 76.049 155.614 75.6631 154.457L153.458 109.237C153.801 110.523 154.015 111.766 154.1 112.966Z" fill="#D6D4D2"/>
<path d="M228.678 168.387L208.35 180.207C204.278 174.121 199.177 170.22 192.748 168.763L213.076 156.943C219.505 158.401 224.649 162.301 228.678 168.387Z" fill="#E19CBD"/>
<path d="M44.5472 105.174C44.5901 106.888 43.3901 108.989 41.8898 109.846C40.3897 110.703 39.2324 109.974 39.1895 108.26C39.1895 106.545 40.3897 104.531 41.8898 103.631C43.3901 102.774 44.5472 103.459 44.5472 105.174Z" fill="#F25A5A"/>
<path d="M36.188 110.017C36.188 111.732 34.9877 113.832 33.4876 114.689C31.9873 115.546 30.8302 114.818 30.8302 113.103C30.7873 111.432 31.9873 109.374 33.4876 108.517C34.9877 107.617 36.1451 108.303 36.188 110.017Z" fill="#F25A5A"/>
<path d="M27.7884 114.861C27.7884 116.575 26.5882 118.675 25.0881 119.533C23.6307 120.39 22.4307 119.704 22.4307 117.99C22.4307 116.275 23.588 114.218 25.0881 113.36C26.5882 112.503 27.7884 113.146 27.7884 114.861Z" fill="#F25A5A"/>
<path d="M217.427 240.762L205.513 251.023L204.03 253.807L201.498 258.585L206.863 257.394L213.79 255.866L223.067 247.876L217.427 240.762Z" fill="#EFC348"/>
<path d="M213.567 235.898L205.512 251.025L217.425 240.764L213.567 235.898Z" fill="#FFD651"/>
<path d="M223.065 247.876L213.788 255.866L227.077 252.936L223.065 247.876Z" fill="#DDB040"/>
<path d="M282.387 205.874L229.665 251.632C226.29 254.551 220.232 253.045 216.13 248.293C212.028 243.542 211.429 237.325 214.801 234.419L267.469 188.706C264.138 191.622 264.771 197.818 268.853 202.536C272.954 207.287 279.012 208.794 282.387 205.874Z" fill="#F25A5A"/>
<path d="M268.85 202.537C267.712 201.222 266.853 199.791 266.262 198.35L213.544 244.106C214.133 245.547 214.99 246.977 216.128 248.295C217.117 249.441 218.223 250.394 219.375 251.146L272.096 205.388C270.944 204.636 269.839 203.683 268.85 202.537Z" fill="#DD4A4A"/>
<path d="M267.467 188.706L214.799 234.419C212.362 236.52 212.01 240.349 213.545 244.105L266.263 198.348C264.735 194.618 265.065 190.809 267.467 188.706Z" fill="#F25A5A"/>
<path d="M272.095 205.386L219.374 251.144C222.997 253.509 227.101 253.846 229.662 251.631L282.384 205.873C279.823 208.089 275.719 207.751 272.095 205.386Z" fill="#CC4848"/>
<path d="M276.334 181.011L267.514 188.657C265.051 190.785 264.717 194.674 266.308 198.468L275.128 190.821C273.537 187.028 273.871 183.138 276.334 181.011Z" fill="#D6D4D2"/>
<path d="M277.666 194.894C276.56 193.612 275.717 192.223 275.129 190.821L266.309 198.468C266.897 199.87 267.739 201.259 268.846 202.54C269.845 203.697 270.961 204.657 272.125 205.411L280.945 197.765C279.781 197.01 278.665 196.05 277.666 194.894Z" fill="#C4C2C0"/>
<path d="M280.943 197.764L272.123 205.41C275.741 207.755 279.833 208.082 282.385 205.878L291.205 198.232C288.653 200.436 284.561 200.108 280.943 197.764Z" fill="#B2B0AF"/>
<path d="M289.859 184.365C293.961 189.115 294.565 195.335 291.207 198.235C287.833 201.149 281.767 199.646 277.665 194.896C273.564 190.147 272.96 183.927 276.334 181.013C279.692 178.113 285.758 179.616 289.859 184.365Z" fill="#E9E8E6"/>
<path d="M282.431 176.943L277.888 180.867C275.684 182.77 275.292 186.16 276.549 189.544L281.092 185.621C279.834 182.237 280.226 178.847 282.431 176.943Z" fill="#EFC348"/>
<path d="M286.92 192.744L282.377 196.667C285.727 198.774 289.46 199.033 291.816 196.999L296.359 193.075C294.003 195.11 290.27 194.851 286.92 192.744Z" fill="#CEA03A"/>
<path d="M283.665 189.926C282.498 188.575 281.639 187.098 281.09 185.62L276.547 189.543C277.096 191.021 277.956 192.498 279.123 193.849C280.113 194.997 281.223 195.938 282.377 196.664L286.919 192.741C285.765 192.015 284.656 191.073 283.665 189.926Z" fill="#DDB040"/>
<path d="M295.075 180.079C298.943 184.558 299.506 190.36 296.362 193.076C293.195 195.81 287.537 194.408 283.669 189.929C279.829 185.483 279.265 179.68 282.432 176.946C285.577 174.23 291.235 175.633 295.075 180.079Z" fill="#FFD651"/>
<path d="M206.863 257.4L201.498 258.591L204.03 253.813L206.863 257.4Z" fill="#434240"/>
<path d="M162.33 104.161L156.447 100.743L156.357 69.0225L162.24 72.4412L162.33 104.161Z" fill="#6D797A"/>
<path d="M162.24 72.4412L156.357 69.0225L261.395 8.37891L267.278 11.7976L162.24 72.4412Z" fill="#A0A8AA"/>
<path d="M162.24 72.4424L156.357 69.0237L240.457 20.4688L246.34 23.8875L162.24 72.4424Z" fill="#7E8A8C"/>
<path d="M162.24 72.4388L156.357 69.0201L219.519 32.5537L225.402 35.9724L162.24 72.4388Z" fill="#A0A8AA"/>
<path d="M162.24 72.4427L156.357 69.0239L197.993 44.9854L203.876 48.4041L162.24 72.4427Z" fill="#7E8A8C"/>
<path d="M162.24 72.4412L156.357 69.0225L177.643 56.7334L183.526 60.1521L162.24 72.4412Z" fill="#A0A8AA"/>
<path d="M267.279 11.7969L267.369 43.5172L162.331 104.161L162.241 72.4404L267.279 11.7969Z" fill="#8D9799"/>
<path d="M185.534 79.5892L183.818 78.5925L186.983 65.499L188.698 66.4958L185.534 79.5892Z" fill="#B2B0AF"/>
<path d="M188.697 66.4958L186.981 65.499L190.045 63.7305L191.76 64.7272L188.697 66.4958Z" fill="#B2B0AF"/>
<path d="M183.858 85.1793L182.143 84.1825L179.071 75.2002L180.786 76.197L183.858 85.1793Z" fill="#B2B0AF"/>
<path d="M176.143 84.9105L174.428 83.9138L177.659 70.8838L179.374 71.8806L176.143 84.9105Z" fill="#B2B0AF"/>
<path d="M179.375 71.876L177.66 70.8792L180.612 69.1748L182.327 70.1716L179.375 71.876Z" fill="#B2B0AF"/>
<path d="M169.698 77.4658L167.982 76.4691L171.29 74.5596L173.005 75.5563L169.698 77.4658Z" fill="#B2B0AF"/>
<path d="M174.271 90.7158L172.556 89.7191L167.982 76.4688L169.698 77.4655L174.271 90.7158Z" fill="#B2B0AF"/>
<path d="M191.76 64.7266L187.299 83.1927L183.858 85.1791L180.787 76.1968L177.688 88.7418L174.269 90.7153L169.696 77.465L173.004 75.5555L176.143 84.9075L179.374 71.8775L182.326 70.1731L185.532 79.5885L188.697 66.4951L191.76 64.7266Z" fill="white"/>
<path d="M202.393 74.4818L200.678 73.4851L198.002 70.6104L199.717 71.6071L202.393 74.4818Z" fill="#B2B0AF"/>
<path d="M199.375 68.8653L197.66 67.8685C198.615 67.3175 199.346 66.6649 199.833 65.8984L201.549 66.8952C201.062 67.6617 200.33 68.3142 199.375 68.8653Z" fill="#B2B0AF"/>
<path d="M199.974 61.8652L201.689 62.862C202.097 63.0992 202.295 63.6218 202.297 64.4205C202.299 65.2877 202.057 66.1174 201.548 66.8967L199.833 65.9C200.342 65.1206 200.584 64.291 200.582 63.4238C200.58 62.625 200.382 62.1024 199.974 61.8652Z" fill="#B2B0AF"/>
<path d="M196.758 70.3752L195.043 69.3785L197.662 67.8662L199.377 68.863L196.758 70.3752Z" fill="#B2B0AF"/>
<path d="M202.503 58.423L204.218 59.4198C203.805 59.1796 203.303 59.0747 202.705 59.1014L200.99 58.1047C201.588 58.0779 202.09 58.1828 202.503 58.423Z" fill="#B2B0AF"/>
<path d="M199.507 60.2541L197.792 59.2573C199.035 58.5396 200.079 58.1669 200.99 58.1006L202.706 59.0973C201.794 59.1636 200.75 59.5364 199.507 60.2541Z" fill="#B2B0AF"/>
<path d="M193.58 79.5665L191.865 78.5698L191.82 62.7051L193.536 63.7018L193.58 79.5665Z" fill="#B2B0AF"/>
<path d="M202.715 69.1883L205.814 72.5082L202.396 74.4817L199.72 71.607L199.542 71.7096L196.768 73.3115L196.78 77.7241L193.584 79.5694L193.539 63.7047L199.51 60.2575C200.753 59.5398 201.797 59.167 202.708 59.1008C203.62 59.0599 204.31 59.3258 204.801 59.911C205.291 60.4708 205.538 61.35 205.542 62.5488C205.545 63.7221 205.304 64.8833 204.796 66.0198C204.31 67.169 203.623 68.2038 202.715 69.1883ZM201.552 66.8961C202.061 66.1167 202.303 65.2871 202.301 64.4199C202.298 63.5272 202.052 62.9795 201.54 62.7895C201.051 62.587 200.318 62.7803 199.363 63.3314L196.744 64.8437L196.759 70.3784L199.379 68.8662C200.333 68.3151 201.065 67.6626 201.552 66.8961Z" fill="white"/>
<path d="M193.536 63.7019L191.82 62.7051L197.791 59.2578L199.506 60.2546L193.536 63.7019Z" fill="#B2B0AF"/>
<path d="M226.745 60.422L225.029 59.4252L224.984 43.5605L226.7 44.5573L226.745 60.422Z" fill="#B2B0AF"/>
<path d="M226.7 44.5571L224.984 43.5603L228.181 41.7148L229.896 42.7116L226.7 44.5571Z" fill="#B2B0AF"/>
<path d="M229.895 42.71L229.94 58.5746L226.743 60.42L226.698 44.5554L229.895 42.71Z" fill="white"/>
<path d="M217.42 65.8059L215.704 64.8091L215.668 51.9287L217.383 52.9255L217.42 65.8059Z" fill="#B2B0AF"/>
<path d="M212.968 55.4741L211.253 54.4774L211.244 51.4932L212.959 52.4899L212.968 55.4741Z" fill="#B2B0AF"/>
<path d="M212.959 52.4896L211.244 51.4928L223.275 44.5469L224.99 45.5436L212.959 52.4896Z" fill="#B2B0AF"/>
<path d="M224.989 45.542L224.997 48.5262L220.58 51.0765L220.616 63.9569L217.42 65.8024L217.384 52.9219L212.966 55.4721L212.958 52.4879L224.989 45.542Z" fill="white"/>
<path d="M208.078 71.1973L206.362 70.2006L206.317 54.3359L208.033 55.3327L208.078 71.1973Z" fill="#B2B0AF"/>
<path d="M208.033 55.3324L206.317 54.3356L209.514 52.4902L211.229 53.487L208.033 55.3324Z" fill="#B2B0AF"/>
<path d="M211.227 53.4912L211.272 69.3559L208.076 71.2012L208.031 55.3366L211.227 53.4912Z" fill="white"/>
<path d="M242.708 44.9691L240.993 43.9723L240.966 34.3311L242.681 35.3278L242.708 44.9691Z" fill="#B2B0AF"/>
<path d="M242.681 35.3302L240.966 34.3335L244.118 32.5137L245.833 33.5104L242.681 35.3302Z" fill="#B2B0AF"/>
<path d="M243.256 50.8888L241.541 49.8921L234.633 44.2236L236.348 45.2204L243.256 50.8888Z" fill="#B2B0AF"/>
<path d="M233.179 40.8128L231.464 39.816L234.105 38.291L235.82 39.2878L233.179 40.8128Z" fill="#B2B0AF"/>
<path d="M233.224 56.6807L231.509 55.684L231.464 39.8193L233.179 40.8161L233.224 56.6807Z" fill="#B2B0AF"/>
<path d="M245.835 33.5107L245.88 49.3754L243.261 50.8876L236.352 45.2192L236.38 54.8603L233.228 56.6801L233.183 40.8155L235.824 39.2905L242.71 44.9718L242.683 35.3305L245.835 33.5107Z" fill="white"/>
<path d="M258.475 38.5489L256.76 37.5521L256.747 32.9102L258.462 33.9069L258.475 38.5489Z" fill="#B2B0AF"/>
<path d="M258.462 33.9081L256.747 32.9113L259.677 31.2197L261.392 32.2165L258.462 33.9081Z" fill="#B2B0AF"/>
<path d="M257.797 29.1787L259.512 30.1755C259.537 30.1898 259.561 30.2045 259.585 30.2196L257.87 29.2228C257.846 29.2077 257.821 29.193 257.797 29.1787Z" fill="#B2B0AF"/>
<path d="M252.735 41.1009L251.02 40.1042C251.293 40.2633 251.609 40.3541 251.966 40.3728C252.633 40.4221 253.411 40.1775 254.276 39.6777C255.208 39.1395 256.029 38.4358 256.76 37.5537L258.476 38.5505C257.744 39.4325 256.924 40.1363 255.991 40.6745C255.126 41.1743 254.348 41.4188 253.681 41.3696C253.324 41.3508 253.009 41.2601 252.735 41.1009Z" fill="#B2B0AF"/>
<path d="M259.586 25.6614L261.301 26.6581C260.695 26.306 259.976 26.168 259.13 26.2675L257.415 25.2707C258.261 25.1713 258.98 25.3092 259.586 25.6614Z" fill="#B2B0AF"/>
<path d="M255.845 27.4477L254.13 26.451C255.328 25.759 256.439 25.3478 257.417 25.2686L259.132 26.2653C258.154 26.3445 257.044 26.7558 255.845 27.4477Z" fill="#B2B0AF"/>
<path d="M250.267 44.6331L248.551 43.6364C248.169 43.4141 247.836 43.1086 247.55 42.7209C246.881 41.8556 246.566 40.6322 246.562 39.0509C246.557 37.4695 246.864 35.8873 247.526 34.253C248.166 32.6316 249.074 31.1369 250.226 29.7564C251.378 28.4013 252.687 27.2881 254.13 26.4551L255.845 27.4518C254.402 28.2849 253.093 29.3981 251.941 30.7531C250.789 32.1337 249.882 33.6284 249.241 35.2497C248.579 36.884 248.272 38.4662 248.277 40.0476C248.281 41.6289 248.596 42.8524 249.265 43.7177C249.551 44.1053 249.884 44.4108 250.267 44.6331Z" fill="#B2B0AF"/>
<path d="M255.843 27.4502C257.041 26.7583 258.152 26.347 259.13 26.2678C260.13 26.1501 260.953 26.3647 261.621 26.8729L259.585 30.2199C258.583 29.5978 257.405 29.6904 256.007 30.4977C255.119 31.0103 254.343 31.6629 253.656 32.4938C252.969 33.2993 252.438 34.2188 252.063 35.202C251.687 36.185 251.49 37.193 251.493 38.1878C251.496 39.157 251.698 39.9343 252.078 40.4817C252.457 41.029 252.991 41.3336 253.681 41.3698C254.348 41.4191 255.125 41.1746 255.991 40.6747C256.923 40.1365 257.744 39.4328 258.475 38.5507L258.462 33.9087L261.392 32.2171L261.41 38.6701C260.657 39.7434 259.793 40.7533 258.795 41.6616C257.82 42.5826 256.821 43.3378 255.822 43.9145C254.402 44.7347 253.113 45.1209 251.957 45.0731C250.801 45.0508 249.91 44.5943 249.263 43.7161C248.594 42.8508 248.279 41.6273 248.274 40.046C248.27 38.4646 248.577 36.8824 249.239 35.2481C249.879 33.6268 250.787 32.132 251.939 30.7515C253.091 29.3965 254.4 28.2833 255.843 27.4502Z" fill="white"/>
<path d="M287.479 118.526C287.509 128.141 280.976 139.455 272.613 144.286C272.171 144.54 271.688 144.662 271.212 144.662C270.241 144.662 269.299 144.157 268.781 143.258C268.004 141.917 268.463 140.198 269.805 139.422C276.364 135.635 281.888 126.073 281.865 118.543C281.859 115.509 280.924 113.236 279.308 112.307C277.672 111.369 275.197 111.709 272.524 113.252C271.183 114.029 269.468 113.566 268.691 112.225C267.915 110.883 268.377 109.165 269.719 108.389C274.236 105.778 278.637 105.441 282.11 107.44C285.556 109.426 287.466 113.365 287.479 118.526Z" fill="#2C8C2C"/>
<path d="M274.412 103.987L274.185 145.603C274.175 149.051 271.907 152.494 267.376 155.127C258.269 160.42 243.439 160.427 234.259 155.127C229.646 152.464 227.343 148.964 227.353 145.469L227.58 103.854C227.57 107.348 229.873 110.848 234.486 113.512C243.666 118.812 258.496 118.804 267.603 113.511C272.134 110.878 274.402 107.435 274.412 103.987Z" fill="#6DCB60"/>
<path d="M267.603 113.509C259.606 118.156 247.197 118.727 238.075 115.209V156.91C247.175 160.333 259.445 159.733 267.376 155.124C271.907 152.491 274.175 149.048 274.185 145.6L274.412 103.984C274.402 107.433 272.134 110.876 267.603 113.509Z" fill="#3DB542"/>
<path d="M267.605 113.509C264.417 115.361 260.527 116.564 256.425 117.12V158.704C260.443 158.134 264.249 156.943 267.378 155.124C271.909 152.491 274.177 149.048 274.186 145.6L274.413 103.984C274.404 107.433 272.136 110.876 267.605 113.509Z" fill="#2C9A2C"/>
<path d="M274.45 104.008C274.472 96.516 264.006 90.4115 251.072 90.3727C238.138 90.3339 227.635 96.3755 227.613 103.867C227.59 111.359 238.057 117.463 250.991 117.502C263.924 117.541 274.427 111.499 274.45 104.008Z" fill="#81D672"/>
<path d="M269.88 106.637C269.058 104.684 267.349 102.83 264.706 101.304C257.086 96.9056 244.758 96.899 237.175 101.304C234.585 102.81 232.909 104.637 232.1 106.564C230.55 102.876 232.225 98.8254 237.175 95.9474C244.758 91.5429 257.086 91.5495 264.706 95.9474C269.732 98.8485 271.443 102.929 269.88 106.637Z" fill="#3DB542"/>
<path d="M269.88 106.636C269.081 108.566 267.385 110.383 264.798 111.89C257.225 116.281 244.897 116.298 237.258 111.89C234.624 110.37 232.916 108.516 232.1 106.557C232.727 105.083 233.857 103.656 235.526 102.393C236.025 102.013 236.57 101.65 237.165 101.303C244.755 96.8951 257.099 96.8951 264.719 101.303C266.279 102.205 267.514 103.219 268.43 104.306C269.064 105.053 269.55 105.836 269.88 106.636Z" fill="#EFC348"/>
<path d="M268.43 104.306C267.928 104.687 267.379 105.05 266.781 105.397C259.208 109.788 246.88 109.805 239.244 105.397C237.681 104.495 236.445 103.48 235.526 102.393C236.025 102.013 236.571 101.65 237.165 101.303C244.755 96.8951 257.1 96.8951 264.719 101.303C266.279 102.205 267.515 103.219 268.43 104.306Z" fill="#FFD651"/>
<path d="M260.367 76.38L260.357 76.9682C260.347 77.7579 260.231 78.5443 260.063 79.3208C259.96 79.7041 259.858 80.0874 259.729 80.464L259.521 81.0224L259.412 81.3033L259.313 81.5412C259.045 82.1624 258.771 82.777 258.49 83.3916C258.206 84.0062 257.915 84.6142 257.618 85.2188C257.376 85.7343 257.148 86.2266 256.976 86.7619C256.785 87.2872 256.659 87.8358 256.537 88.3909C256.494 88.6684 256.435 88.9526 256.411 89.2368C256.395 89.3788 256.369 89.5209 256.359 89.6663L256.332 90.0991C256.259 91.2655 256.382 92.465 256.639 93.6975C256.788 94.3022 256.95 94.93 257.185 95.5478C257.29 95.8584 257.426 96.1889 257.548 96.516C257.667 96.8464 257.789 97.1801 257.892 97.5238C257.591 97.3255 257.31 97.114 257.026 96.9026C256.749 96.6878 256.471 96.4862 256.203 96.2318C256.114 96.1558 256.025 96.0765 255.942 95.9972C255.493 95.5743 255.1 95.0919 254.723 94.583C253.874 93.3571 253.253 91.9165 252.968 90.39C252.674 88.8667 252.691 87.2543 253.038 85.7046C253.193 84.9281 253.467 84.1648 253.765 83.4445C254.032 82.8232 254.307 82.2054 254.591 81.5941C254.875 80.9828 255.162 80.3715 255.463 79.7668L255.572 79.5455L255.658 79.3571C255.714 79.2316 255.774 79.106 255.837 78.9805C255.949 78.726 256.038 78.465 256.147 78.2072C256.223 77.9396 256.329 77.6786 256.398 77.4043C256.458 77.1334 256.56 76.8624 256.603 76.5816L256.686 76.1619C256.709 76.0232 256.719 75.8811 256.742 75.739C256.795 75.4548 256.815 75.1674 256.831 74.8766C256.924 73.7102 256.831 72.5041 256.573 71.275C256.326 70.0657 255.896 68.853 255.318 67.5809C255.308 67.5544 255.298 67.5313 255.285 67.5049C257.816 68.8299 259.673 71.5757 260.192 74.6354C260.251 75.0187 260.314 75.4019 260.334 75.7952C260.35 75.9901 260.363 76.1851 260.367 76.38Z" fill="#E9E8E6"/>
<path d="M258.487 75.0704L258.48 75.6585C258.47 76.4482 258.351 77.2346 258.183 78.0111C258.083 78.3944 257.978 78.7777 257.852 79.1544L257.641 79.7128L257.532 79.9937L257.432 80.2316C257.168 80.8528 256.891 81.4674 256.61 82.0819C256.329 82.6965 256.038 83.3045 255.741 83.9092C255.496 84.4246 255.268 84.917 255.096 85.4523C254.908 85.9776 254.779 86.5261 254.657 87.0813C254.614 87.3588 254.555 87.643 254.531 87.9271C254.515 88.0692 254.492 88.2146 254.479 88.3567L254.455 88.7928C254.379 89.9559 254.505 91.1554 254.759 92.3878C254.908 92.9925 255.073 93.6203 255.308 94.2382C255.414 94.5488 255.546 94.8792 255.671 95.2063C255.764 95.4707 255.86 95.7317 255.942 95.9994C255.493 95.5764 255.1 95.094 254.723 94.5851C253.874 93.3593 253.253 91.9186 252.968 90.3921C252.674 88.8688 252.691 87.2564 253.038 85.7067C253.193 84.9302 253.467 84.1669 253.765 83.4466C254.032 82.8254 254.307 82.2075 254.591 81.5962C254.875 80.9849 255.162 80.3737 255.463 79.769L255.572 79.5476L255.658 79.3592C255.714 79.2337 255.774 79.1081 255.837 78.9826C255.949 78.7282 256.038 78.4671 256.147 78.2094C256.223 77.9418 256.329 77.6807 256.398 77.4065C256.458 77.1355 256.56 76.8646 256.603 76.5837L256.686 76.1641C256.709 76.0253 256.719 75.8832 256.742 75.7411C256.795 75.457 256.815 75.1695 256.831 74.8787C256.924 73.7124 256.831 72.5063 256.573 71.2771C256.326 70.0678 255.896 68.8551 255.318 67.583C256.851 69.0468 257.935 71.1053 258.311 73.3257C258.374 73.7091 258.434 74.0956 258.457 74.4855C258.47 74.6805 258.483 74.8754 258.487 75.0704Z" fill="#D6D4D2"/>
<path d="M251.289 74.6853L251.265 75.4122C251.239 76.3803 251.084 77.3484 250.869 78.3001C250.74 78.7693 250.608 79.2451 250.449 79.7077L250.185 80.3917L250.049 80.7353L249.924 81.036C249.58 81.8224 249.227 82.6055 248.87 83.3853C248.51 84.1651 248.143 84.9416 247.77 85.7147C247.452 86.3954 247.155 87.0596 246.94 87.7733C246.699 88.4738 246.544 89.204 246.405 89.9408C246.355 90.3143 246.286 90.6843 246.266 91.061C246.253 91.2493 246.226 91.441 246.217 91.6293L246.2 92.201C246.157 93.7341 246.378 95.2904 246.788 96.8566C247.016 97.6265 247.267 98.4162 247.608 99.1828C247.766 99.5694 247.955 99.9725 248.133 100.372C248.308 100.779 248.483 101.182 248.639 101.601C248.285 101.331 247.948 101.046 247.611 100.762C247.277 100.471 246.947 100.194 246.626 99.8668C246.362 99.6189 246.111 99.3513 245.876 99.0737C245.519 98.6541 245.189 98.2047 244.872 97.7422C243.871 96.1825 243.147 94.3851 242.836 92.4917C242.513 90.6017 242.559 88.6192 243.002 86.7159C243.2 85.761 243.547 84.8259 243.917 83.9371C244.26 83.1507 244.611 82.3676 244.971 81.5878C245.331 80.8113 245.698 80.0348 246.074 79.2616L246.213 78.9774L246.326 78.7263L246.554 78.2241C246.699 77.8837 246.818 77.5335 246.953 77.1865L247.112 76.6546C247.168 76.4761 247.234 76.301 247.267 76.1193C247.343 75.7558 247.462 75.3956 247.509 75.0256L247.604 74.4672C247.634 74.2822 247.641 74.0938 247.667 73.9054C247.684 73.7171 247.72 73.5288 247.727 73.3371L247.75 72.7688C247.816 71.2356 247.631 69.6694 247.224 68.1065C246.821 66.537 246.174 64.9906 245.324 63.4277C245.592 63.5929 245.856 63.7681 246.111 63.9564C248.734 65.896 250.591 69.0714 251.107 72.5276L251.203 73.2413C251.236 73.4792 251.239 73.7204 251.259 73.9616C251.272 74.2029 251.285 74.4441 251.289 74.6853Z" fill="#E9E8E6"/>
<path d="M249.227 72.7258L249.204 73.4528C249.177 74.4209 249.022 75.389 248.807 76.3407C248.678 76.8132 248.546 77.2857 248.387 77.7483L248.123 78.4322L247.991 78.7759L247.862 79.0766C247.518 79.863 247.165 80.6461 246.808 81.4259C246.448 82.2057 246.081 82.9822 245.708 83.7553C245.39 84.436 245.093 85.1002 244.878 85.8139C244.637 86.5177 244.482 87.2446 244.343 87.9815C244.293 88.3548 244.224 88.7249 244.204 89.1049C244.191 89.2932 244.165 89.4816 244.155 89.6699L244.138 90.2415C244.095 91.7747 244.317 93.331 244.726 94.8972C244.954 95.6671 245.205 96.4568 245.546 97.2234C245.704 97.6099 245.893 98.0131 246.071 98.4162C246.246 98.8193 246.421 99.2225 246.577 99.6421C246.336 99.457 246.104 99.2687 245.876 99.0737C245.519 98.6541 245.189 98.2047 244.872 97.7422C243.871 96.1825 243.147 94.3851 242.836 92.4917C242.513 90.6017 242.559 88.6192 243.002 86.7159C243.2 85.761 243.547 84.8259 243.917 83.9371C244.26 83.1507 244.611 82.3676 244.971 81.5878C245.331 80.8113 245.698 80.0348 246.074 79.2616L246.213 78.9774L246.326 78.7263L246.554 78.2241C246.699 77.8837 246.818 77.5335 246.953 77.1865L247.112 76.6546C247.168 76.4761 247.234 76.301 247.267 76.1193C247.343 75.7558 247.462 75.3956 247.509 75.0256L247.604 74.4672C247.634 74.2822 247.641 74.0938 247.667 73.9054C247.684 73.7171 247.72 73.5288 247.727 73.3371L247.75 72.7688C247.816 71.2356 247.631 69.6694 247.224 68.1065C246.821 66.537 246.174 64.9906 245.324 63.4277C245.592 63.5929 245.856 63.7681 246.111 63.9564C247.631 65.787 248.678 68.1065 249.045 70.5682L249.141 71.2819C249.174 71.5198 249.177 71.761 249.197 72.0022C249.21 72.2434 249.227 72.4846 249.227 72.7258Z" fill="#D6D4D2"/>
</svg>
