<svg width="301" height="301" viewBox="0 0 301 301" fill="none" xmlns="http://www.w3.org/2000/svg">
<path d="M295.522 207.092L225.795 166.569L225.681 124.478C225.681 123.592 225.363 123.001 224.863 122.706L222.181 121.16C221.704 120.865 221 120.91 220.25 121.365L176 146.91L175.25 146.478C173.863 145.683 173 144.183 173 142.569L172.931 123.478C185.795 113.115 195.341 94.5921 195.295 79.0012C195.272 70.0466 192.045 63.7512 186.886 60.8875L156.659 43.5012C154 41.9557 150.841 41.3421 147.295 41.7284L133.636 33.8875C128.522 30.9102 121.454 31.2966 113.681 35.7966C110.091 37.8421 106.613 40.6602 103.568 43.9102L99.0224 41.2966C91.1815 36.7287 80.2042 37.3648 68.1587 44.2966C44.636 57.9102 25.5224 90.7966 24.9996 118.115C13.4087 127.115 4.49964 143.978 4.5451 158.001C4.56782 165.66 7.31782 171.069 11.7269 173.615L42.1815 191.138C41.9769 191.001 41.7951 190.865 41.5906 190.728C46.136 193.751 52.636 193.569 59.7951 189.433L100.545 165.91L100.591 181.728C100.613 184.138 101.909 186.388 103.977 187.592L124.772 199.592L111.772 207.092L111.841 216.069L203.409 269.297L295.591 216.069L295.522 207.092ZM124.591 56.7739C123.341 56.433 122 56.1832 120.659 56.0468C122.022 56.183 123.318 56.4102 124.591 56.7739ZM127.045 198.274L105.113 185.615C103.727 184.819 102.863 183.32 102.863 181.728L102.818 164.592L135.613 145.66L135.659 162.16C135.659 164.569 136.977 166.819 139.045 168.024L149.295 173.933L149.341 185.41L127.045 198.274ZM152 160.751C150.477 161.638 149.272 163.728 149.272 165.478L149.295 171.297L140.181 166.047C138.795 165.251 137.931 163.751 137.931 162.16L137.886 144.365L167.409 127.297C168.523 126.66 169.613 125.956 170.681 125.183L170.727 142.592C170.727 144.842 171.909 146.933 173.772 148.183L152 160.751Z" fill="#D4DAE8"/>
<path d="M273.249 248.206L285.931 255.524L285.886 262.388L273.295 269.706L260.636 262.388L260.658 255.524L273.249 248.206Z" fill="#D4DAE8"/>
<path d="M63.2808 214.449L63.248 221.306L75.9144 228.619L88.5083 221.3L88.541 214.443L75.8746 207.13L63.2808 214.449Z" fill="#D4DAE8"/>
<path d="M285.712 166.308V164.151L261.738 150.31L237.901 164.162V166.319L261.875 180.16L285.712 166.308Z" fill="#D4DAE8"/>
<path d="M138.379 207.458L103.987 187.59C101.902 186.385 100.602 184.141 100.596 181.733L100.467 137.218L102.74 137.211L102.868 181.727C102.873 183.328 103.737 184.82 105.123 185.622L139.515 205.489L138.379 207.458Z" fill="#416E84"/>
<path d="M173.444 187.883L139.052 168.015C136.967 166.81 135.668 164.566 135.661 162.159L135.531 117.642L137.804 117.636L137.934 162.153C137.938 163.754 138.803 165.245 140.189 166.047L174.58 185.914L173.444 187.883Z" fill="#416E84"/>
<path d="M208.509 168.309L174.118 148.442C172.033 147.238 170.733 144.993 170.725 142.585L170.597 98.0691L172.869 98.0625L172.998 142.578C173.004 144.18 173.868 145.673 175.254 146.473L209.646 166.341L208.509 168.309Z" fill="#416E84"/>
<path d="M156.659 43.4949L187.119 61.0049C182.91 58.559 177.364 58.4302 171.167 61.0459L140.706 43.5361C146.903 40.9202 152.45 41.049 156.659 43.4949Z" fill="#D4DAE8"/>
<path d="M133.642 33.8891L164.103 51.3991C158.994 48.4302 151.914 48.8091 144.132 53.3018C140.375 55.4711 136.704 58.4554 133.536 61.9184L103.075 44.4084C106.244 40.9452 109.915 37.9609 113.672 35.7916C121.454 31.2991 128.533 30.9202 133.642 33.8891Z" fill="#CAD0DD"/>
<path d="M42.1779 191.131L11.7172 173.621C7.31421 171.062 4.56785 165.665 4.54603 157.992C4.50626 143.985 13.4067 127.122 25.006 118.119L55.4665 135.629C43.8674 144.632 34.9669 161.494 35.0067 175.502C35.0283 183.175 37.7749 188.572 42.1779 191.131Z" fill="#CAD0DD"/>
<path d="M129.493 58.8211C121.516 54.2443 110.661 54.8981 98.6306 61.8295C75.0909 75.4295 55.9952 108.309 55.4715 135.64L25.0059 118.119C25.5286 90.7875 44.6252 57.9084 68.164 44.3084C80.1956 37.377 91.1802 36.7234 99.0261 41.3L129.493 58.8211Z" fill="#D4DAE8"/>
<path d="M195.3 79.0115C195.357 96.7583 182.956 118.329 167.415 127.307L59.792 189.431C46.2676 197.248 35.0451 191.047 35.007 175.507C34.9688 161.488 43.8708 144.635 55.474 135.638C55.9686 108.228 75.1231 75.4733 98.6526 61.8731C112.938 53.6367 125.568 54.2265 133.538 61.9113C136.696 58.4495 140.367 55.4631 144.133 53.2945C156.915 45.9331 167.796 49.6424 171.162 61.0363C184.782 55.2917 195.262 62.8052 195.3 79.0115Z" fill="#E4E8F4"/>
<path d="M191.488 79.0161C191.525 88.0702 188.026 98.0945 182.471 106.787V106.94C181.787 108.043 181.045 109.127 180.284 110.173C179.523 111.219 178.724 112.227 177.925 113.217C174.235 117.667 169.993 121.415 165.504 124.021L151.39 132.162L142.203 137.469L111.674 155.102C111.655 155.102 111.655 155.102 111.655 155.102L57.8811 186.145C54.6475 188.009 51.4709 188.998 48.7127 188.998C42.5307 188.998 38.8407 183.957 38.8027 175.492C38.8027 171.137 39.7727 166.381 41.5036 161.702C41.827 160.808 42.1884 159.914 42.5689 159.02C42.7971 158.506 43.0255 157.974 43.2727 157.46C43.7102 156.528 44.1668 155.615 44.6614 154.702C44.8896 154.265 45.1368 153.827 45.3841 153.39C45.7836 152.686 46.202 151.982 46.6395 151.278C47.0009 150.707 47.3623 150.156 47.7427 149.604C48.3325 148.729 48.9411 147.873 49.6068 147.036V147.017C50.0064 146.504 50.4057 145.99 50.8052 145.496C51.3377 144.868 51.8705 144.24 52.4411 143.651C52.7646 143.27 53.1071 142.909 53.4493 142.566C53.6014 142.395 53.7536 142.243 53.9059 142.091C54.7048 141.311 55.5036 140.569 56.3216 139.865C56.8161 139.447 57.3107 139.028 57.8052 138.648L57.9193 138.553L59.2509 137.526L59.27 136.517V135.7C59.27 135.186 59.2891 134.691 59.3271 134.178C59.3461 133.322 59.4032 132.466 59.4982 131.591C59.5173 131.306 59.5361 131.001 59.5552 130.697C59.6123 130.24 59.6693 129.784 59.7264 129.327C59.7646 128.985 59.8025 128.643 59.8596 128.319C59.9166 127.939 59.9546 127.558 60.0307 127.197C60.3161 125.314 60.6775 123.393 61.153 121.491C61.5143 119.912 61.9327 118.314 62.4273 116.716C62.5223 116.336 62.6366 115.975 62.7696 115.594C62.8836 115.175 63.0359 114.738 63.1882 114.32C64.6527 109.85 66.498 105.418 68.7043 101.119C76.2939 86.035 87.8209 72.5295 100.565 65.1684C106.728 61.6113 112.796 59.7284 118.103 59.7284C123.201 59.7284 127.5 61.3832 130.904 64.6547L131.475 65.2063L133.72 67.3557L136.345 64.4834C138.361 62.2768 140.586 60.2986 142.888 58.6438L143.097 58.5107C144.067 57.7879 145.018 57.1602 146.027 56.5895C147.054 56 148.081 55.4863 149.108 55.0488C149.755 54.7636 150.401 54.5163 151.029 54.3261C151.048 54.3261 151.048 54.307 151.067 54.307C153.026 53.6413 154.91 53.2988 156.66 53.2988C161.986 53.2988 165.828 56.4184 167.521 62.1056L167.94 63.5322L168.719 66.1952L170.926 65.2632L172.638 64.5404C175.187 63.4752 177.602 62.9236 179.809 62.9236C187.113 62.9241 191.468 68.9347 191.488 79.0161Z" fill="white"/>
<path d="M182.471 105.151V106.939C181.786 108.043 181.044 109.127 180.283 110.173C179.522 111.219 178.724 112.227 177.925 113.216C174.234 117.667 169.993 121.415 165.504 124.02L151.39 132.162C150.743 132.238 150.039 132.105 149.564 131.838L141.803 127.33C141.803 127.33 141.784 127.311 141.765 127.311H141.746V127.292L139.292 125.885V125.866L137.694 124.953L134.118 122.879V122.86H134.099L132.216 121.776L125.387 117.8L124.569 117.325H124.55L122.667 116.241L120.328 114.871C120.289 114.852 120.251 114.814 120.214 114.776C119.909 114.567 119.776 114.339 119.776 114.072C119.757 114.053 119.757 114.034 119.757 114.015L119.738 110.002V109.051L119.719 105.189C119.719 105.265 119.738 105.323 119.757 105.399C119.795 105.532 119.89 105.684 120.023 105.798C120.099 105.874 120.194 105.95 120.309 106.007L122.648 107.358L123.485 107.852L130.314 111.809L132.197 112.912L134.556 114.301C134.556 114.282 134.575 114.301 134.575 114.301L136.249 115.271L139.844 117.363L141.727 118.447V118.466H141.746L142.317 118.809L149.507 122.974L149.526 122.993C150.211 123.393 151.333 123.45 152.132 123.145C152.246 123.108 152.36 123.069 152.455 123.013L181.844 106.026C182.261 105.779 182.452 105.475 182.471 105.151Z" fill="#474B59"/>
<path d="M120.309 105.998L149.513 122.974C150.32 123.439 151.654 123.439 152.461 123.005L181.851 106.029C182.689 105.533 182.658 104.757 181.882 104.291L152.647 87.315C151.84 86.8496 150.568 86.8496 149.73 87.3462L120.309 104.322C119.534 104.787 119.502 105.532 120.309 105.998Z" fill="#5B5E71"/>
<path d="M137.958 106.135L151.02 113.75L164.229 106.11L151.143 98.5195L137.958 106.135Z" fill="#363A44"/>
<path d="M136.258 105.149L137.958 106.134L151.143 98.5192V96.5479L136.258 105.149Z" fill="#474B59"/>
<path d="M151.143 96.5479V98.5192L164.229 106.11L165.929 105.124L151.143 96.5479Z" fill="#3F434F"/>
<path d="M154.077 104.002C155.753 104.969 155.762 106.522 154.097 107.489C152.451 108.445 149.771 108.445 148.095 107.478C146.439 106.522 146.431 104.969 148.076 104.013C149.741 103.046 152.421 103.046 154.077 104.002Z" fill="#748BFD"/>
<path d="M170.715 115.174C171.497 114.723 172.153 115.076 172.156 115.995C172.158 116.893 171.506 118.022 170.725 118.474C169.943 118.925 169.287 118.551 169.284 117.653C169.282 116.734 169.934 115.625 170.715 115.174Z" fill="#F9BB4A"/>
<path d="M174.986 112.708C175.767 112.257 176.424 112.61 176.426 113.529C176.429 114.427 175.777 115.557 174.995 116.008C174.214 116.459 173.557 116.085 173.555 115.187C173.552 114.268 174.204 113.159 174.986 112.708Z" fill="#75CA75"/>
<path d="M180.283 110.173C179.522 111.219 178.723 112.227 177.924 113.216C177.867 113.083 177.829 112.912 177.829 112.721C177.829 111.809 178.457 110.705 179.256 110.249C179.655 110.02 180.017 109.982 180.283 110.173Z" fill="#E4E8F4"/>
<path d="M124.036 111.628C123.336 111.224 122.749 111.54 122.746 112.363C122.744 113.167 123.328 114.179 124.028 114.583C124.744 114.996 125.315 114.652 125.318 113.848C125.32 113.025 124.752 112.042 124.036 111.628Z" fill="#5B5E71"/>
<path d="M145.666 124.343L145.662 126.723L126.93 115.907L126.934 113.527L145.666 124.343Z" fill="#5B5E71"/>
<path d="M119.713 94.6405L119.757 103.474C119.757 103.787 119.936 104.054 120.337 104.322L149.573 121.283C150.331 121.729 151.67 121.774 152.474 121.328L181.887 104.322C182.289 104.099 182.512 103.786 182.512 103.474L182.468 94.5957C182.468 94.9082 182.289 95.2207 181.843 95.4884L152.474 112.449C151.67 112.895 150.332 112.895 149.528 112.449L120.293 95.4437C119.891 95.2209 119.713 94.9084 119.713 94.6405Z" fill="#474B59"/>
<path d="M120.309 95.4511L149.513 112.427C150.32 112.892 151.654 112.892 152.461 112.458L181.851 95.4822C182.689 94.9859 182.658 94.21 181.882 93.7443L152.647 76.7681C151.84 76.3027 150.568 76.3027 149.73 76.7993L120.309 93.7752C119.534 94.2407 119.502 94.9857 120.309 95.4511Z" fill="#5B5E71"/>
<path d="M137.958 95.5877L151.02 103.203L164.229 95.5631L151.143 87.9727L137.958 95.5877Z" fill="#363A44"/>
<path d="M136.258 94.6017L137.958 95.5876L151.143 87.9726V86.001L136.258 94.6017Z" fill="#474B59"/>
<path d="M151.143 86.001V87.9726L164.229 95.563L165.929 94.5771L151.143 86.001Z" fill="#3F434F"/>
<path d="M154.077 93.455C155.753 94.4225 155.762 95.9748 154.097 96.9423C152.451 97.8984 149.771 97.8984 148.095 96.9309C146.439 95.9747 146.431 94.4222 148.076 93.4661C149.741 92.4988 152.421 92.4988 154.077 93.455Z" fill="#748BFD"/>
<path d="M170.715 104.627C171.497 104.176 172.153 104.529 172.156 105.448C172.158 106.346 171.506 107.475 170.725 107.927C169.943 108.378 169.287 108.004 169.284 107.106C169.282 106.187 169.934 105.078 170.715 104.627Z" fill="#F9BB4A"/>
<path d="M174.987 102.161C175.768 101.71 176.425 102.063 176.427 102.982C176.43 103.88 175.778 105.01 174.996 105.461C174.215 105.912 173.558 105.538 173.556 104.64C173.553 103.721 174.205 102.613 174.987 102.161Z" fill="#75CA75"/>
<path d="M179.257 99.6954C180.039 99.2443 180.695 99.5975 180.698 100.516C180.7 101.414 180.048 102.544 179.267 102.995C178.467 103.457 177.829 103.072 177.826 102.174C177.824 101.255 178.458 100.157 179.257 99.6954Z" fill="#E4E8F4"/>
<path d="M124.036 101.081C123.336 100.677 122.749 100.994 122.746 101.816C122.744 102.62 123.328 103.632 124.028 104.036C124.744 104.449 125.315 104.105 125.318 103.301C125.32 102.478 124.752 101.495 124.036 101.081Z" fill="#5B5E71"/>
<path d="M145.666 113.796L145.662 116.176L126.93 105.36L126.934 102.98L145.666 113.796Z" fill="#5B5E71"/>
<path d="M119.713 83.5809L119.757 92.4145C119.757 92.727 119.936 92.9948 120.337 93.2625L149.573 110.223C150.331 110.669 151.67 110.714 152.474 110.268L181.887 93.2625C182.289 93.0391 182.512 92.7268 182.512 92.4145L182.468 83.5361C182.468 83.8486 182.289 84.1611 181.843 84.4289L152.474 101.39C151.67 101.836 150.332 101.836 149.528 101.39L120.293 84.3843C119.891 84.1611 119.713 83.8489 119.713 83.5809Z" fill="#474B59"/>
<path d="M120.309 84.3913L149.513 101.367C150.32 101.833 151.654 101.833 152.461 101.398L181.851 84.4224C182.689 83.9261 182.658 83.1502 181.882 82.6845L152.647 65.7086C151.84 65.2431 150.568 65.2431 149.73 65.7397L120.309 82.7156C119.534 83.1811 119.502 83.9261 120.309 84.3913Z" fill="#5B5E71"/>
<path d="M137.958 84.5283L151.02 92.1433L164.229 84.5035L151.143 76.9131L137.958 84.5283Z" fill="#363A44"/>
<path d="M136.258 83.5421L137.958 84.528L151.143 76.9128V74.9414L136.258 83.5421Z" fill="#474B59"/>
<path d="M151.143 74.9414V76.9128L164.229 84.5032L165.929 83.5175L151.143 74.9414Z" fill="#3F434F"/>
<path d="M154.077 82.3954C155.753 83.3629 155.762 84.9152 154.097 85.8827C152.451 86.8388 149.771 86.8388 148.095 85.8713C146.439 84.9152 146.431 83.3627 148.076 82.4065C149.741 81.4393 152.421 81.4393 154.077 82.3954Z" fill="#748BFD"/>
<path d="M170.715 93.5675C171.497 93.1163 172.153 93.4695 172.156 94.3884C172.158 95.2863 171.506 96.4159 170.725 96.8672C169.943 97.3186 169.287 96.9445 169.284 96.0463C169.282 95.1272 169.934 94.0186 170.715 93.5675Z" fill="#F9BB4A"/>
<path d="M174.987 91.1017C175.768 90.6505 176.425 91.0037 176.427 91.9226C176.43 92.8205 175.778 93.9501 174.996 94.4014C174.215 94.8528 173.558 94.4787 173.556 93.5805C173.553 92.6614 174.205 91.5528 174.987 91.1017Z" fill="#75CA75"/>
<path d="M179.257 88.6358C180.039 88.1847 180.695 88.5379 180.698 89.4567C180.7 90.3547 180.048 91.4842 179.267 91.9356C178.467 92.3972 177.829 92.0129 177.826 91.1147C177.824 90.1958 178.458 89.0977 179.257 88.6358Z" fill="#E4E8F4"/>
<path d="M124.036 90.0217C123.336 89.6176 122.749 89.934 122.746 90.7567C122.744 91.5608 123.328 92.5724 124.028 92.9765C124.744 93.3899 125.315 93.0456 125.318 92.2415C125.32 91.4185 124.752 90.4351 124.036 90.0217Z" fill="#5B5E71"/>
<path d="M145.666 102.736L145.662 105.116L126.93 94.3007L126.934 91.9209L145.666 102.736Z" fill="#5B5E71"/>
<path d="M119.713 72.5213L119.757 81.355C119.757 81.6675 119.936 81.9352 120.337 82.2029L149.573 99.1636C150.331 99.6098 151.67 99.6545 152.474 99.2084L181.887 82.2029C182.289 81.9795 182.512 81.6672 182.512 81.355L182.468 72.4766C182.468 72.7891 182.289 73.1016 181.843 73.3693L152.474 90.33C151.67 90.7761 150.332 90.7761 149.528 90.33L120.293 73.3245C119.891 73.1016 119.713 72.7891 119.713 72.5213Z" fill="#474B59"/>
<path d="M182.471 72.4724C182.471 72.7958 182.262 73.119 181.843 73.3662L173.816 78.0074L165.086 83.0481L164.268 83.5235L163.412 84.0181H163.393L155.537 88.5451L155.194 88.7735H155.156L153.844 89.5342L152.455 90.3331C151.656 90.7706 150.325 90.7706 149.507 90.3142L148.309 89.6103H148.289L147.053 88.8876L146.596 88.6212L138.76 84.0751L137.961 83.5996H137.942L137.789 83.5046L137.067 83.0671L128.412 78.0456L120.309 73.3283C120.214 73.2712 120.119 73.2142 120.042 73.1381C119.909 73.024 119.814 72.8908 119.757 72.7385C119.738 72.6815 119.719 72.6056 119.719 72.5292C119.7 72.2058 119.909 71.9015 120.309 71.6542L131.474 65.206L142.887 58.6435L143.096 58.5103L149.107 55.0485C149.754 54.7633 150.4 54.516 151.028 54.3258C151.047 54.3258 151.047 54.3067 151.066 54.3067C151.637 54.2878 152.207 54.4019 152.645 54.6492L167.938 63.5321L168.718 66.1951L170.924 65.2631L181.88 71.6162C182.262 71.8446 182.471 72.1681 182.471 72.4724Z" fill="#5B5E71"/>
<path d="M137.958 73.4687L151.02 81.0837L164.229 73.444L151.143 65.8535L137.958 73.4687Z" fill="#363A44"/>
<path d="M136.258 72.4825L137.958 73.4684L151.143 65.8532V63.8818L136.258 72.4825Z" fill="#474B59"/>
<path d="M151.143 63.8818V65.8532L164.229 73.4437L165.929 72.458L151.143 63.8818Z" fill="#3F434F"/>
<path d="M154.077 71.3368C155.753 72.3043 155.762 73.8566 154.097 74.8241C152.451 75.7802 149.771 75.7802 148.095 74.8127C146.439 73.8566 146.431 72.3041 148.076 71.3479C149.741 70.3807 152.421 70.3807 154.077 71.3368Z" fill="#748BFD"/>
<path d="M170.715 82.5079C171.497 82.0568 172.153 82.41 172.156 83.3288C172.158 84.2268 171.506 85.3563 170.725 85.8077C169.943 86.259 169.287 85.885 169.284 84.9868C169.282 84.0679 169.934 82.9593 170.715 82.5079Z" fill="#F9BB4A"/>
<path d="M174.987 80.0421C175.768 79.5909 176.425 79.9441 176.427 80.863C176.43 81.7609 175.778 82.8905 174.996 83.3419C174.215 83.7932 173.558 83.4191 173.556 82.5209C173.553 81.6019 174.205 80.4932 174.987 80.0421Z" fill="#75CA75"/>
<path d="M179.257 77.5763C180.039 77.1251 180.695 77.4783 180.698 78.3972C180.7 79.2951 180.048 80.4247 179.267 80.876C178.467 81.3376 177.829 80.9533 177.826 80.0551C177.824 79.1363 178.458 78.0379 179.257 77.5763Z" fill="#E4E8F4"/>
<path d="M124.036 78.9621C123.336 78.558 122.749 78.8744 122.746 79.6971C122.744 80.5012 123.328 81.5128 124.028 81.9169C124.744 82.3303 125.315 81.986 125.318 81.1819C125.32 80.359 124.752 79.3755 124.036 78.9621Z" fill="#5B5E71"/>
<path d="M145.666 91.6778L145.662 94.0575L126.93 83.2423L126.934 80.8623L145.666 91.6778Z" fill="#5B5E71"/>
<path d="M79.5693 128.183L79.6137 137.017C79.6137 137.33 79.7923 137.597 80.1939 137.865L109.429 154.826C110.188 155.272 111.527 155.317 112.33 154.87L141.744 137.865C142.145 137.642 142.368 137.329 142.368 137.017L142.324 128.139C142.324 128.451 142.145 128.764 141.699 129.031L112.33 145.992C111.527 146.438 110.188 146.438 109.385 145.992L80.1496 128.987C79.7477 128.764 79.5693 128.451 79.5693 128.183Z" fill="#37617B"/>
<path d="M80.1658 128.995L109.369 145.971C110.176 146.436 111.511 146.436 112.318 146.002L141.707 129.026C142.545 128.53 142.514 127.754 141.738 127.288L112.504 110.312C111.697 109.847 110.425 109.847 109.587 110.343L80.166 127.319C79.3899 127.784 79.359 128.529 80.1658 128.995Z" fill="#4C7891"/>
<path d="M97.8145 129.131L110.876 136.746L124.085 129.106L110.999 121.516L97.8145 129.131Z" fill="#363A44"/>
<path d="M96.1143 128.145L97.8147 129.131L110.999 121.516V119.544L96.1143 128.145Z" fill="#37617B"/>
<path d="M110.999 119.544V121.516L124.085 129.106L125.785 128.12L110.999 119.544Z" fill="#3F434F"/>
<path d="M113.933 126.999C115.609 127.966 115.618 129.519 113.953 130.486C112.308 131.442 109.628 131.442 107.952 130.475C106.296 129.519 106.287 127.966 107.932 127.01C109.597 126.043 112.278 126.043 113.933 126.999Z" fill="#748BFD"/>
<path d="M130.572 138.17C131.353 137.719 132.01 138.072 132.012 138.991C132.015 139.889 131.363 141.018 130.581 141.47C129.799 141.921 129.143 141.547 129.141 140.649C129.138 139.73 129.79 138.621 130.572 138.17Z" fill="#F9BB4A"/>
<path d="M134.842 135.704C135.624 135.253 136.28 135.606 136.283 136.525C136.285 137.423 135.633 138.553 134.852 139.004C134.07 139.455 133.414 139.081 133.411 138.183C133.409 137.264 134.061 136.156 134.842 135.704Z" fill="#75CA75"/>
<path d="M139.114 133.238C139.895 132.787 140.552 133.14 140.554 134.059C140.557 134.957 139.905 136.087 139.123 136.538C138.323 137 137.685 136.615 137.683 135.717C137.68 134.798 138.314 133.7 139.114 133.238Z" fill="#E4E8F4"/>
<path d="M83.8925 134.625C83.1928 134.221 82.605 134.538 82.6025 135.36C82.6003 136.164 83.1841 137.176 83.8841 137.58C84.6003 137.993 85.1716 137.649 85.1741 136.845C85.1764 136.022 84.6087 135.039 83.8925 134.625Z" fill="#4C7891"/>
<path d="M105.523 147.34L105.519 149.72L86.7861 138.904L86.79 136.524L105.523 147.34Z" fill="#4C7891"/>
<path d="M79.5693 117.638L79.6137 126.471C79.6137 126.784 79.7923 127.051 80.1939 127.319L109.429 144.28C110.188 144.726 111.527 144.771 112.33 144.325L141.744 127.319C142.145 127.096 142.368 126.783 142.368 126.471L142.324 117.593C142.324 117.905 142.145 118.218 141.699 118.485L112.33 135.446C111.527 135.892 110.188 135.892 109.385 135.446L80.1496 118.441C79.7477 118.218 79.5693 117.905 79.5693 117.638Z" fill="#37617B"/>
<path d="M80.1658 118.448L109.369 135.424C110.176 135.889 111.511 135.889 112.318 135.455L141.707 118.479C142.545 117.983 142.514 117.207 141.738 116.741L112.504 99.7652C111.697 99.2998 110.425 99.2998 109.587 99.7964L80.166 116.772C79.3899 117.237 79.359 117.982 80.1658 118.448Z" fill="#4C7891"/>
<path d="M97.8145 118.585L110.876 126.2L124.085 118.56L110.999 110.97L97.8145 118.585Z" fill="#363A44"/>
<path d="M96.1143 117.599L97.8147 118.585L110.999 110.969V108.998L96.1143 117.599Z" fill="#37617B"/>
<path d="M110.999 108.998V110.969L124.085 118.56L125.785 117.574L110.999 108.998Z" fill="#3F434F"/>
<path d="M113.933 116.452C115.609 117.42 115.618 118.972 113.953 119.939C112.308 120.895 109.628 120.895 107.952 119.928C106.296 118.972 106.287 117.419 107.932 116.463C109.597 115.496 112.278 115.496 113.933 116.452Z" fill="#748BFD"/>
<path d="M130.572 127.624C131.353 127.173 132.01 127.526 132.012 128.445C132.015 129.343 131.363 130.473 130.581 130.924C129.799 131.375 129.143 131.001 129.141 130.103C129.138 129.184 129.79 128.075 130.572 127.624Z" fill="#F9BB4A"/>
<path d="M134.842 125.158C135.624 124.707 136.28 125.06 136.283 125.979C136.285 126.877 135.633 128.007 134.852 128.458C134.07 128.909 133.414 128.535 133.411 127.637C133.409 126.718 134.061 125.609 134.842 125.158Z" fill="#75CA75"/>
<path d="M139.114 122.692C139.895 122.241 140.552 122.595 140.554 123.513C140.557 124.411 139.905 125.541 139.123 125.992C138.323 126.454 137.685 126.07 137.683 125.171C137.68 124.252 138.314 123.154 139.114 122.692Z" fill="#E4E8F4"/>
<path d="M83.8925 124.078C83.1928 123.674 82.605 123.991 82.6025 124.813C82.6003 125.617 83.1841 126.629 83.8841 127.033C84.6003 127.447 85.1716 127.102 85.1741 126.298C85.1764 125.475 84.6087 124.492 83.8925 124.078Z" fill="#4C7891"/>
<path d="M105.523 136.793L105.519 139.173L86.7861 128.358L86.79 125.978L105.523 136.793Z" fill="#4C7891"/>
<path d="M79.5693 106.578L79.6137 115.412C79.6137 115.724 79.7923 115.992 80.1939 116.26L109.429 133.22C110.188 133.666 111.527 133.711 112.33 133.265L141.744 116.26C142.145 116.036 142.368 115.724 142.368 115.412L142.324 106.533C142.324 106.846 142.145 107.158 141.699 107.426L112.33 124.387C111.527 124.833 110.188 124.833 109.385 124.387L80.1496 107.381C79.7477 107.158 79.5693 106.846 79.5693 106.578Z" fill="#37617B"/>
<path d="M80.1658 107.388L109.369 124.364C110.176 124.83 111.511 124.83 112.318 124.395L141.707 107.42C142.545 106.923 142.514 106.147 141.738 105.682L112.504 88.7056C111.697 88.2402 110.425 88.2402 109.587 88.7368L80.166 105.713C79.3899 106.178 79.359 106.923 80.1658 107.388Z" fill="#4C7891"/>
<path d="M97.8145 107.524L110.876 115.139L124.085 107.5L110.999 99.9092L97.8145 107.524Z" fill="#363A44"/>
<path d="M96.1143 106.538L97.8147 107.524L110.999 99.9091V97.9375L96.1143 106.538Z" fill="#37617B"/>
<path d="M110.999 97.9375V99.9091L124.085 107.5L125.785 106.514L110.999 97.9375Z" fill="#3F434F"/>
<path d="M113.933 105.393C115.609 106.36 115.618 107.912 113.953 108.88C112.308 109.836 109.628 109.836 107.952 108.868C106.296 107.912 106.287 106.36 107.932 105.404C109.597 104.436 112.278 104.436 113.933 105.393Z" fill="#748BFD"/>
<path d="M130.572 116.565C131.353 116.113 132.01 116.467 132.012 117.385C132.015 118.283 131.363 119.413 130.581 119.864C129.799 120.315 129.143 119.942 129.141 119.043C129.138 118.125 129.79 117.016 130.572 116.565Z" fill="#F9BB4A"/>
<path d="M134.842 114.098C135.624 113.647 136.28 114 136.283 114.919C136.285 115.817 135.633 116.946 134.852 117.398C134.07 117.849 133.414 117.475 133.411 116.577C133.409 115.658 134.061 114.549 134.842 114.098Z" fill="#75CA75"/>
<path d="M139.114 111.633C139.895 111.182 140.552 111.535 140.554 112.454C140.557 113.352 139.905 114.481 139.123 114.933C138.323 115.394 137.685 115.01 137.683 114.112C137.68 113.193 138.314 112.094 139.114 111.633Z" fill="#E4E8F4"/>
<path d="M83.8925 113.019C83.1928 112.615 82.605 112.931 82.6025 113.754C82.6003 114.558 83.1841 115.569 83.8841 115.974C84.6003 116.387 85.1716 116.043 85.1741 115.239C85.1764 114.416 84.6087 113.432 83.8925 113.019Z" fill="#4C7891"/>
<path d="M105.523 125.733L105.519 128.113L86.7861 117.298L86.79 114.918L105.523 125.733Z" fill="#4C7891"/>
<path d="M79.5693 95.5184L79.6137 104.352C79.6137 104.665 79.7923 104.932 80.1939 105.2L109.429 122.161C110.188 122.607 111.527 122.652 112.33 122.205L141.744 105.2C142.145 104.977 142.368 104.664 142.368 104.352L142.324 95.4736C142.324 95.7861 142.145 96.0986 141.699 96.3664L112.33 113.327C111.527 113.773 110.188 113.773 109.385 113.327L80.1496 96.3216C79.7477 96.0986 79.5693 95.7861 79.5693 95.5184Z" fill="#37617B"/>
<path d="M80.1658 96.3288L109.369 113.305C110.176 113.77 111.511 113.77 112.318 113.336L141.707 96.3599C142.545 95.8636 142.514 95.0877 141.738 94.622L112.504 77.6461C111.697 77.1806 110.425 77.1806 109.587 77.6772L80.166 94.6531C79.3899 95.1184 79.359 95.8633 80.1658 96.3288Z" fill="#4C7891"/>
<path d="M97.8145 96.4646L110.876 104.08L124.085 96.4401L110.999 88.8496L97.8145 96.4646Z" fill="#363A44"/>
<path d="M96.1143 95.4788L97.8147 96.4645L110.999 88.8495V86.8779L96.1143 95.4788Z" fill="#37617B"/>
<path d="M110.999 86.8779V88.8495L124.085 96.44L125.785 95.4541L110.999 86.8779Z" fill="#37617B"/>
<path d="M113.933 94.3329C115.609 95.3004 115.618 96.8527 113.953 97.8202C112.308 98.7763 109.628 98.7763 107.952 97.8088C106.296 96.8527 106.287 95.3002 107.932 94.344C109.597 93.3768 112.278 93.3768 113.933 94.3329Z" fill="#748BFD"/>
<path d="M130.572 105.504C131.353 105.053 132.01 105.406 132.012 106.325C132.015 107.223 131.363 108.352 130.581 108.804C129.799 109.255 129.143 108.881 129.141 107.983C129.138 107.064 129.79 105.955 130.572 105.504Z" fill="#F9BB4A"/>
<path d="M134.842 103.038C135.624 102.587 136.28 102.94 136.283 103.859C136.285 104.757 135.633 105.887 134.852 106.338C134.07 106.789 133.414 106.415 133.411 105.517C133.409 104.598 134.061 103.49 134.842 103.038Z" fill="#75CA75"/>
<path d="M139.114 100.573C139.895 100.122 140.552 100.475 140.554 101.394C140.557 102.292 139.905 103.422 139.123 103.873C138.323 104.335 137.685 103.95 137.683 103.052C137.68 102.133 138.314 101.035 139.114 100.573Z" fill="#E4E8F4"/>
<path d="M83.8925 101.959C83.1928 101.555 82.605 101.871 82.6025 102.694C82.6003 103.498 83.1841 104.51 83.8841 104.914C84.6003 105.327 85.1716 104.983 85.1741 104.179C85.1764 103.356 84.6087 102.373 83.8925 101.959Z" fill="#4C7891"/>
<path d="M105.523 114.674L105.519 117.054L86.7861 106.238L86.79 103.858L105.523 114.674Z" fill="#4C7891"/>
<path d="M102.22 160.009C102.22 160.333 101.992 160.637 101.593 160.865L72.1855 177.871C71.3866 178.308 70.0362 178.27 69.2941 177.832L41.5039 161.702C41.8273 160.808 42.1887 159.914 42.5691 159.02C42.7973 158.507 43.0257 157.974 43.273 157.461C43.7105 156.528 44.1671 155.615 44.6616 154.702L69.2182 168.968L69.2373 168.988C69.3323 169.045 69.4466 169.083 69.5796 169.14C70.0932 169.33 70.7589 169.387 71.3296 169.273C71.5007 169.235 71.6719 169.197 71.8432 169.14C71.9573 169.102 72.0714 169.064 72.1666 169.007L101.555 152.021C101.669 151.944 101.764 151.887 101.84 151.811C102.087 151.602 102.182 151.374 102.182 151.146L102.22 160.009Z" fill="#474B59"/>
<path d="M102.183 151.145C102.183 151.374 102.088 151.602 101.841 151.811C101.764 151.887 101.669 151.944 101.555 152.02L72.1671 169.007C72.0721 169.064 71.9578 169.102 71.8437 169.14C71.6726 169.197 71.5014 169.235 71.3301 169.273C70.7405 169.368 70.0937 169.311 69.5801 169.14C69.4469 169.083 69.3328 169.045 69.2378 168.988L69.2187 168.968L44.6621 154.702C44.8903 154.265 45.1376 153.827 45.3848 153.39C45.7844 152.686 46.2028 151.982 46.6403 151.278C47.0017 150.708 47.363 150.156 47.7435 149.605C48.3332 148.73 48.9419 147.874 49.6076 147.037V147.018C50.0071 146.504 50.4064 145.99 50.806 145.496C51.3385 144.868 51.8712 144.24 52.4419 143.651C52.7653 143.27 53.1078 142.909 53.4501 142.567L54.0778 142.205L56.4176 140.855L57.2164 140.398L59.1567 139.276L61.5914 137.868L63.6457 136.689L65.9662 135.358L66.7653 134.882L69.4473 133.341C69.8469 133.113 70.3603 132.98 70.8548 132.961C71.4064 132.961 71.9392 133.075 72.3576 133.303L74.8682 134.768H74.8873L75.7053 135.263H75.7244L80.1373 137.83L82.5342 139.219H82.5533L83.7896 139.961L84.151 140.17L84.4173 140.323H84.4364L85.2353 140.798H85.2544L92.0642 144.755H92.0833L93.9664 145.858L97.5614 147.95L99.1592 148.882L101.594 150.29H101.613V150.309C101.993 150.537 102.183 150.822 102.183 151.145Z" fill="#5B5E71"/>
<path d="M57.6709 152.129L70.7323 159.744L83.9416 152.104L70.8554 144.514L57.6709 152.129Z" fill="#363A44"/>
<path d="M55.9707 151.143L57.6712 152.129L70.8557 144.514V142.542L55.9707 151.143Z" fill="#474B59"/>
<path d="M70.8555 142.542V144.514L83.9416 152.104L85.6421 151.118L70.8555 142.542Z" fill="#3F434F"/>
<path d="M73.789 149.996C75.4646 150.963 75.4735 152.516 73.8085 153.483C72.1633 154.439 69.4833 154.439 67.8074 153.472C66.1512 152.516 66.1426 150.963 67.7878 150.007C69.4528 149.04 72.1328 149.04 73.789 149.996Z" fill="#748BFD"/>
<path d="M90.4272 161.168C91.2088 160.717 91.8652 161.07 91.8677 161.989C91.8702 162.887 91.2181 164.016 90.4366 164.468C89.655 164.919 88.9986 164.545 88.9961 163.647C88.9936 162.728 89.6456 161.619 90.4272 161.168Z" fill="#F9BB4A"/>
<path d="M94.6987 158.702C95.4803 158.251 96.1367 158.604 96.1392 159.523C96.1417 160.421 95.4896 161.551 94.708 162.002C93.9265 162.453 93.2701 162.079 93.2676 161.181C93.2651 160.262 93.9171 159.153 94.6987 158.702Z" fill="#75CA75"/>
<path d="M98.9692 156.236C99.7508 155.785 100.407 156.138 100.41 157.057C100.412 157.955 99.7601 159.085 98.9785 159.536C98.1788 159.998 97.5406 159.613 97.5381 158.715C97.5356 157.796 98.1697 156.698 98.9692 156.236Z" fill="#E4E8F4"/>
<path d="M45.0232 159.839C45.0232 160.638 44.4525 160.999 43.7487 160.58C43.2352 160.295 42.7787 159.648 42.5693 159.021C42.7975 158.507 43.0259 157.974 43.2732 157.461C43.4255 157.461 43.5775 157.518 43.7487 157.632C44.4716 158.032 45.0232 159.021 45.0232 159.839Z" fill="#5B5E71"/>
<path d="M65.3784 170.337L65.3743 172.717L46.6416 161.901L46.6457 159.521L65.3784 170.337Z" fill="#5B5E71"/>
<path d="M102.22 147.817V149.472C102.22 149.776 101.992 150.081 101.611 150.29V150.309H101.592L72.1852 167.314C71.3863 167.771 70.0358 167.733 69.2938 167.276L45.3838 153.39C45.7833 152.687 46.2017 151.983 46.6392 151.279C47.0006 150.708 47.362 150.157 47.7424 149.605C48.3322 148.73 48.9408 147.874 49.6065 147.037L56.3211 150.937H56.3402L58.0331 151.926L69.2177 158.431L69.2367 158.45C69.5411 158.621 69.9024 158.717 70.3211 158.755C70.7015 158.793 71.1199 158.774 71.5004 158.697C71.7477 158.64 71.9758 158.564 72.1661 158.45L83.5599 151.869L85.2338 150.899H85.2529L93.9647 145.858L96.3995 144.451L98.4729 143.271L101.554 141.483C101.573 141.483 101.592 141.464 101.592 141.464V141.445C101.687 141.407 101.764 141.331 101.84 141.274C101.916 141.198 101.992 141.141 102.03 141.065C102.087 140.989 102.125 140.912 102.144 140.837C102.163 140.76 102.182 140.684 102.182 140.608V141.807L102.201 145.421L102.22 147.817Z" fill="#474B59"/>
<path d="M102.182 140.608C102.182 140.684 102.163 140.76 102.143 140.836C102.124 140.912 102.086 140.988 102.029 141.064C101.991 141.14 101.915 141.197 101.839 141.274C101.763 141.331 101.687 141.407 101.592 141.445V141.464C101.592 141.464 101.573 141.483 101.554 141.483L98.4724 143.271L96.3989 144.45L93.9642 145.858L85.2524 150.898H85.2333L83.5594 151.868L72.1655 158.45C71.9753 158.564 71.7471 158.64 71.4999 158.697C71.1194 158.773 70.701 158.792 70.3205 158.754C69.921 158.716 69.5405 158.602 69.2362 158.45L69.2171 158.431L58.0326 151.925L56.3396 150.936H56.321L49.6064 147.018C50.006 146.504 50.4053 145.991 50.8049 145.496C51.3374 144.868 51.8701 144.241 52.4408 143.651C52.7642 143.271 53.1067 142.909 53.4489 142.567C53.601 142.396 53.7533 142.243 53.9055 142.091C54.7044 141.312 55.5033 140.57 56.3212 139.866C56.8158 139.447 57.3103 139.029 57.8049 138.648L57.9189 138.553L59.2505 137.526L59.2696 136.518V135.7C59.2696 135.186 59.2887 134.692 59.3267 134.178C59.3458 133.322 59.4028 132.466 59.4978 131.591C59.5169 131.306 59.5358 131.002 59.5549 130.697C59.6119 130.241 59.6689 129.785 59.726 129.328C59.7642 128.986 59.8021 128.643 59.8592 128.32L66.4026 124.554L69.446 122.785C69.8455 122.556 70.3401 122.423 70.8535 122.404C71.4051 122.404 71.9378 122.518 72.3562 122.766L75.2664 124.458L80.1739 127.312H80.193L83.9783 129.499V129.518L84.8153 129.994L91.6439 133.95L93.5271 135.053H93.546L97.5785 137.412L98.7008 138.059L101.173 139.485H101.193L101.592 139.733C101.991 139.961 102.182 140.284 102.182 140.608Z" fill="#5B5E71"/>
<path d="M57.6699 141.582L70.7313 149.197L83.9406 141.557L70.8545 133.967L57.6699 141.582Z" fill="#363A44"/>
<path d="M55.9697 140.596L57.6702 141.582L70.8547 133.967V131.995L55.9697 140.596Z" fill="#474B59"/>
<path d="M70.8545 131.995V133.967L83.9406 141.557L85.6411 140.571L70.8545 131.995Z" fill="#3F434F"/>
<path d="M73.789 139.45C75.4646 140.418 75.4735 141.97 73.8085 142.937C72.1633 143.894 69.4833 143.893 67.8074 142.926C66.1512 141.97 66.1426 140.417 67.7878 139.461C69.4528 138.494 72.1328 138.494 73.789 139.45Z" fill="#748BFD"/>
<path d="M90.4272 150.621C91.2088 150.17 91.8652 150.523 91.8677 151.442C91.8702 152.34 91.2181 153.47 90.4366 153.921C89.655 154.372 88.9986 153.998 88.9961 153.1C88.9936 152.181 89.6456 151.072 90.4272 150.621Z" fill="#F9BB4A"/>
<path d="M94.6977 148.155C95.4793 147.704 96.1357 148.057 96.1382 148.976C96.1407 149.874 95.4887 151.004 94.7071 151.455C93.9255 151.906 93.2691 151.532 93.2666 150.634C93.2641 149.715 93.9162 148.606 94.6977 148.155Z" fill="#75CA75"/>
<path d="M98.9692 145.69C99.7508 145.238 100.407 145.592 100.41 146.51C100.412 147.408 99.7601 148.538 98.9785 148.989C98.1788 149.451 97.5406 149.067 97.5381 148.168C97.5356 147.25 98.1697 146.151 98.9692 145.69Z" fill="#E4E8F4"/>
<path d="M65.3758 159.782V162.179L46.6396 151.355V151.279C47.001 150.709 47.3624 150.157 47.7428 149.605L65.3758 159.782Z" fill="#5B5E71"/>
<path d="M102.22 137.279V138.401C102.22 138.725 101.992 139.029 101.592 139.257L101.193 139.486H101.174L99.709 140.361H99.6899L96.5704 142.168L94.497 143.347L92.0813 144.755H92.0622L83.3504 149.795L81.6765 150.784L72.1849 156.263C71.3861 156.7 70.0356 156.662 69.2936 156.224L59.954 150.803L58.2611 149.833L50.8047 145.496C51.3372 144.868 51.8699 144.241 52.4406 143.651C52.764 143.271 53.1065 142.909 53.4488 142.567C53.6008 142.396 53.7531 142.243 53.9054 142.091C54.7042 141.312 55.5031 140.57 56.3211 139.866L56.7776 140.132L57.2151 140.398L58.4706 141.121L65.8699 145.42H65.889L67.5629 146.409H67.582L69.2179 147.36C69.2179 147.36 69.237 147.36 69.237 147.379C69.3892 147.456 69.5604 147.531 69.7506 147.588C69.9217 147.646 70.112 147.683 70.3213 147.703C70.9679 147.779 71.6717 147.664 72.1663 147.398L73.9924 146.333H74.0115L75.6854 145.363H75.7042L83.1035 141.083L84.4161 140.322H84.4352L84.8156 140.094L86.832 138.915L88.8863 137.736H88.9051L92.0438 135.909H92.0629L93.5276 135.053H93.5465L93.6417 134.996L95.9622 133.665L98.0356 132.466L100.775 130.868H100.794L101.136 130.659H101.155L101.554 130.431C101.669 130.355 101.764 130.279 101.84 130.222C101.916 130.146 101.973 130.069 102.03 129.993C102.087 129.917 102.125 129.841 102.144 129.765C102.163 129.689 102.182 129.613 102.182 129.537V131.686L102.202 134.863L102.22 137.279Z" fill="#474B59"/>
<path d="M102.182 129.537C102.182 129.613 102.163 129.689 102.144 129.765C102.125 129.841 102.087 129.917 102.03 129.993C101.973 130.07 101.916 130.146 101.839 130.222C101.763 130.279 101.668 130.355 101.554 130.412L101.154 130.64V130.659H101.136L100.793 130.868H100.774L98.016 132.447L95.9426 133.646L93.641 134.996L93.5458 135.053H93.5269L92.0621 135.909H92.043L88.9044 137.735H88.8855L86.8312 138.915L84.8149 140.094L84.4344 140.322H84.4153L83.1028 141.083L75.7035 145.363H75.6846L74.0108 146.333H73.9917L72.1655 147.398C71.671 147.664 70.9671 147.778 70.3205 147.702C70.1112 147.683 69.921 147.645 69.7499 147.588C69.5596 147.531 69.3885 147.455 69.2362 147.379C69.2362 147.36 69.2171 147.36 69.2171 147.36L67.5812 146.409H67.5621L65.8883 145.42H65.8692L58.4699 141.121L57.2144 140.398L56.7769 140.132L56.3203 139.866C56.8149 139.447 57.3094 139.029 57.8039 138.648L57.918 138.553L59.2496 137.526L59.2687 136.518V135.7C59.2687 135.186 59.2878 134.692 59.3258 134.178C59.3449 133.322 59.4019 132.466 59.4969 131.591C59.516 131.306 59.5349 131.002 59.5539 130.697C59.611 130.241 59.668 129.784 59.7251 129.328C59.7633 128.985 59.8012 128.643 59.8583 128.32C59.9153 127.939 59.9533 127.559 60.0294 127.197C60.3149 125.314 60.6762 123.393 61.1517 121.491C61.513 119.912 61.9314 118.314 62.426 116.717C62.521 116.336 62.6353 115.975 62.7683 115.594L69.4449 111.733C69.8444 111.505 70.3578 111.372 70.8524 111.353C71.4039 111.353 71.9367 111.467 72.3551 111.695L80.1349 116.222L80.6294 116.507L84.8142 118.923L89.7405 121.795L93.526 124.001L97.5774 126.341V126.36L98.3953 126.835L98.6996 127.007L100.088 127.805H100.107L101.173 128.433H101.192L101.591 128.68C101.992 128.909 102.182 129.214 102.182 129.537Z" fill="#5B5E71"/>
<path d="M83.9405 130.488L83.3319 130.83L79.6037 132.999L76.1037 135.034L75.7233 135.262H75.7042L74.3917 136.023L70.7396 138.134L67.2017 136.08L65.9653 135.357L65.5087 135.091H65.4896L59.498 131.591C59.5171 131.306 59.536 131.001 59.5551 130.697C59.6121 130.24 59.6692 129.784 59.7262 129.328L67.2017 125.01L70.8537 122.898L74.4108 124.953L79.6037 127.977L83.1035 130.013H83.1226L83.9405 130.488Z" fill="#363A44"/>
<path d="M70.8541 120.939V122.899L67.202 125.01L59.7266 129.328C59.7647 128.985 59.8027 128.643 59.8597 128.319C59.9168 127.939 59.9547 127.559 60.0309 127.197L65.5091 124.021L69.922 121.472L70.8541 120.939Z" fill="#474B59"/>
<path d="M70.8555 120.936V122.907L83.9416 130.497L85.6421 129.512L70.8555 120.936Z" fill="#3F434F"/>
<path d="M73.789 128.391C75.4646 129.358 75.4735 130.91 73.8085 131.878C72.1633 132.834 69.4833 132.834 67.8074 131.866C66.1512 130.91 66.1426 129.358 67.7878 128.402C69.4528 127.434 72.1328 127.434 73.789 128.391Z" fill="#748BFD"/>
<path d="M90.4272 139.562C91.2088 139.11 91.8652 139.464 91.8677 140.383C91.8702 141.28 91.2181 142.41 90.4366 142.861C89.655 143.313 88.9986 142.939 88.9961 142.04C88.9936 141.121 89.6456 140.013 90.4272 139.562Z" fill="#F9BB4A"/>
<path d="M94.6977 137.096C95.4793 136.645 96.1357 136.998 96.1382 137.917C96.1407 138.815 95.4887 139.944 94.7071 140.396C93.9255 140.847 93.2691 140.473 93.2666 139.575C93.2641 138.656 93.9162 137.547 94.6977 137.096Z" fill="#75CA75"/>
<path d="M98.9692 134.63C99.7508 134.179 100.407 134.532 100.41 135.451C100.412 136.349 99.7601 137.478 98.9785 137.93C98.1788 138.391 97.5406 138.007 97.5381 137.109C97.5356 136.19 98.1697 135.092 98.9692 134.63Z" fill="#E4E8F4"/>
<path d="M65.376 148.73V151.108L62.4087 149.396L60.716 148.407H60.6966L52.4414 143.652C52.7648 143.271 53.1073 142.91 53.4496 142.567C53.6016 142.396 53.7539 142.244 53.9062 142.092L54.0773 142.206L62.77 147.227L64.463 148.197L65.376 148.73Z" fill="#5B5E71"/>
<path d="M102.22 126.209V127.35C102.22 127.654 101.992 127.977 101.593 128.206L101.193 128.434H101.174L99.2719 129.556H99.2528L98.8914 129.765L96.1335 131.363L94.0601 132.562L91.6444 133.95L90.1799 134.806H90.1608L87.003 136.632L86.7937 136.765L82.9324 138.991L82.5519 139.219H82.5328L81.2203 139.98L73.821 144.26L72.1851 145.211C72.166 145.23 72.1469 145.23 72.128 145.249H72.1089C71.3862 145.61 70.2828 145.61 69.541 145.268C69.446 145.249 69.3699 145.192 69.2937 145.154L67.8292 144.298L60.4108 139.999L59.1553 139.277L58.6987 139.01L57.9189 138.554L59.2505 137.526L59.2696 136.518V135.7C59.2696 135.187 59.2887 134.692 59.3267 134.179C59.3458 133.323 59.4028 132.467 59.4978 131.592C59.5169 131.306 59.5358 131.002 59.5549 130.698L66.3074 134.616L66.7639 134.882L68.0003 135.605H68.0194L69.2178 136.309C70.0358 136.766 71.3671 136.766 72.166 136.328L73.5546 135.529L74.8669 134.768H74.886L75.2664 134.559L79.5844 132.048L82.5137 130.355L83.1033 130.013H83.1224L83.9783 129.519L84.7962 129.043L86.7935 127.883L88.4483 126.932L91.606 125.106L93.5271 124.002L95.9619 122.595L98.0162 121.397H98.0353L100.337 120.065L101.155 119.59L101.554 119.361C101.668 119.304 101.764 119.228 101.84 119.152C102.087 118.943 102.182 118.715 102.182 118.486V120.198L102.201 121.149V124.63L102.22 126.209Z" fill="#474B59"/>
<path d="M102.182 118.486C102.182 118.714 102.087 118.942 101.84 119.151C101.764 119.227 101.669 119.304 101.555 119.361L101.155 119.589L100.337 120.064L98.0357 121.396H98.0166L95.9622 122.594L93.5275 124.002L91.6063 125.105L88.4486 126.931L86.7938 127.882L84.7968 129.042L83.9788 129.499V129.518L83.1229 130.013H83.1038L82.5143 130.355L79.585 132.048L75.2482 134.54L74.8868 134.768H74.8677L73.5554 135.529L72.1668 136.328C71.3679 136.765 70.0363 136.765 69.2186 136.309L68.0202 135.605H68.0011L66.7648 134.882L66.3082 134.616L59.5557 130.697C59.6127 130.241 59.6698 129.784 59.7268 129.328C59.765 128.985 59.8029 128.643 59.86 128.319C59.917 127.939 59.955 127.559 60.0311 127.197C60.3166 125.314 60.6779 123.393 61.1534 121.491C61.5148 119.912 61.9332 118.314 62.4277 116.716C62.5227 116.336 62.637 115.975 62.77 115.594C62.8841 115.176 63.0363 114.738 63.1886 114.32C64.6532 109.85 66.4984 105.418 68.7048 101.119L69.4466 100.681C70.2836 100.187 71.5579 100.187 72.3568 100.644L80.1175 105.151L80.6311 105.456H80.6502L90.18 110.991L98.8348 116.013H98.8538L99.2913 116.279L100.547 117.002L101.593 117.61C101.593 117.61 101.612 117.61 101.612 117.629C101.992 117.858 102.182 118.162 102.182 118.486Z" fill="#5B5E71"/>
<path d="M83.941 119.436L82.914 120.045H82.8949L79.5851 121.947L76.1042 123.982L75.2672 124.458L74.4113 124.952L70.7401 127.083L67.2022 125.01L66.4033 124.553L65.5092 124.02L61.1533 121.491C61.5147 119.912 61.9331 118.314 62.4276 116.716L70.854 111.847L79.8322 117.059L83.941 119.436Z" fill="#363A44"/>
<path d="M70.8541 109.869V111.847L62.4277 116.717C62.5227 116.337 62.6371 115.975 62.77 115.595C62.8841 115.176 63.0364 114.739 63.1886 114.32L70.8541 109.869Z" fill="#474B59"/>
<path d="M70.8555 109.876V111.847L83.9416 119.438L85.6421 118.452L70.8555 109.876Z" fill="#3F434F"/>
<path d="M73.789 117.33C75.4646 118.297 75.4735 119.85 73.8085 120.817C72.1633 121.773 69.4833 121.773 67.8074 120.806C66.1512 119.85 66.1426 118.297 67.7878 117.341C69.4528 116.374 72.1328 116.374 73.789 117.33Z" fill="#748BFD"/>
<path d="M90.4272 128.502C91.2088 128.051 91.8652 128.404 91.8677 129.323C91.8702 130.221 91.2181 131.35 90.4366 131.802C89.655 132.253 88.9986 131.879 88.9961 130.981C88.9936 130.062 89.6456 128.953 90.4272 128.502Z" fill="#F9BB4A"/>
<path d="M94.6987 126.036C95.4803 125.585 96.1367 125.938 96.1392 126.857C96.1417 127.755 95.4896 128.885 94.708 129.336C93.9265 129.787 93.2701 129.413 93.2676 128.515C93.2651 127.596 93.9171 126.487 94.6987 126.036Z" fill="#75CA75"/>
<path d="M98.9692 123.57C99.7508 123.119 100.407 123.472 100.41 124.391C100.412 125.289 99.7601 126.419 98.9785 126.87C98.1788 127.332 97.5406 126.947 97.5381 126.049C97.5356 125.13 98.1697 124.032 98.9692 123.57Z" fill="#E4E8F4"/>
<path d="M65.3764 137.678V140.055L62.8466 138.591L61.5912 137.868L61.1346 137.602L59.2705 136.517V135.699C59.2705 135.186 59.2896 134.691 59.3276 134.178L63.1889 136.422L63.6455 136.688L64.901 137.411L65.3764 137.678Z" fill="#5B5E71"/>
<path d="M111.772 207.09L111.836 216.07L203.415 269.29L203.352 260.31L111.772 207.09Z" fill="#F9BB4A"/>
<path d="M203.352 260.31L203.415 269.29L295.593 216.071L295.53 207.091L203.352 260.31Z" fill="#EFAC41"/>
<path d="M295.522 207.093L203.34 260.32L111.772 207.093L203.954 153.865L295.522 207.093Z" fill="#FED57A"/>
<path d="M152.112 217.023L195.32 242.133C196.818 243.003 199.254 243.003 200.761 242.133L269.009 202.73C270.523 201.856 270.531 200.445 269.033 199.575L225.825 174.465L152.112 217.023Z" fill="#CAD0DD"/>
<path d="M251.583 193.198L184.323 232.044L157.962 216.75L224.977 178.075L251.583 193.198Z" fill="#AFB5BF"/>
<path d="M224.883 122.729C224.39 122.438 223.696 122.471 222.935 122.919L152.11 217.01L150.223 215.912C149.726 215.623 149.419 215.092 149.417 214.516L149.274 165.468C149.274 163.734 150.483 161.63 151.994 160.757L220.246 121.354C221.006 120.918 221.7 120.873 222.193 121.164L224.883 122.729Z" fill="#CAD0DD"/>
<path d="M222.939 122.915C224.446 122.044 225.672 122.743 225.677 124.475L225.819 174.449L152.105 217.007L151.964 167.033C151.959 165.301 153.177 163.192 154.684 162.321L222.939 122.915Z" fill="#5B5E71"/>
<path d="M155.321 167.024C155.319 166.488 155.894 165.499 156.363 165.228L222.328 127.144L222.457 172.514L155.446 211.202L155.321 167.024Z" fill="white"/>
<path d="M152.112 217.027L152.127 220.63C152.132 221.219 152.455 221.758 152.972 222.04L195.342 245.944C196.841 246.817 199.27 246.817 200.78 245.944L269.032 206.542C269.793 206.105 270.173 205.523 270.173 204.953L270.151 201.158C270.151 201.729 269.77 202.3 269.01 202.736L200.769 242.028C199.258 242.89 196.819 242.89 195.33 242.028L152.112 217.027Z" fill="#5B5E71"/>
<path d="M236.671 217.621L236.299 217.857L224.503 224.684C223.861 225.056 223.049 225.056 222.407 224.684L215.039 220.426L214.634 220.189C213.924 219.817 213.924 218.77 214.634 218.398L226.768 211.334C227.443 210.928 228.255 210.928 228.931 211.3L236.637 215.795C237.381 216.201 237.381 217.215 236.671 217.621Z" fill="#BAC1CE"/>
<path d="M210.181 194.298C210.035 194.382 210.035 194.519 210.179 194.603L212.868 196.166C213.012 196.25 213.242 196.245 213.387 196.161L216.093 194.598C216.238 194.514 216.239 194.386 216.095 194.303L213.406 192.74C213.262 192.656 213.032 192.652 212.887 192.735L210.181 194.298Z" fill="#5B5E71"/>
<path d="M207.86 201.356C207.715 201.44 207.723 201.573 207.867 201.657L210.556 203.219C210.691 203.298 210.921 203.303 211.066 203.219L213.772 201.657C213.918 201.573 213.918 201.435 213.783 201.356L211.094 199.793C210.95 199.71 210.712 199.71 210.567 199.793L207.86 201.356Z" fill="#5B5E71"/>
<path d="M212.855 198.472C212.709 198.556 212.709 198.694 212.853 198.778L215.542 200.34C215.677 200.419 215.916 200.419 216.061 200.335L221.03 197.467C221.175 197.383 221.167 197.25 221.031 197.171L218.342 195.608C218.198 195.524 217.968 195.52 217.823 195.603L212.855 198.472Z" fill="#5B5E71"/>
<path d="M185.903 219.751C185.758 219.835 185.766 219.968 185.901 220.047L188.59 221.61C188.734 221.694 188.964 221.698 189.109 221.615L191.816 220.052C191.961 219.968 191.953 219.835 191.809 219.751L189.12 218.189C188.984 218.11 188.755 218.105 188.609 218.189L185.903 219.751Z" fill="#5B5E71"/>
<path d="M171.464 222.369C171.328 222.448 171.327 222.586 171.471 222.669L174.16 224.232C174.295 224.311 174.534 224.311 174.67 224.232L178.564 221.984C178.7 221.905 178.701 221.767 178.565 221.689L175.876 220.126C175.732 220.042 175.494 220.042 175.357 220.121L171.464 222.369Z" fill="#5B5E71"/>
<path d="M178.448 218.337C178.303 218.421 178.311 218.554 178.455 218.637L181.144 220.2C181.279 220.279 181.509 220.284 181.654 220.2L184.361 218.637C184.506 218.554 184.498 218.421 184.362 218.342L181.673 216.779C181.529 216.695 181.3 216.691 181.154 216.774L178.448 218.337Z" fill="#5B5E71"/>
<path d="M183.349 215.507C183.212 215.586 183.212 215.724 183.356 215.808L186.045 217.37C186.18 217.449 186.419 217.449 186.555 217.37L189.261 215.808C189.407 215.724 189.407 215.586 189.272 215.507L186.583 213.945C186.438 213.861 186.2 213.861 186.055 213.945L183.349 215.507Z" fill="#5B5E71"/>
<path d="M220.106 205.723C219.961 205.807 219.961 205.935 220.105 206.019L222.794 207.581C222.938 207.665 223.159 207.665 223.304 207.581L230.894 203.199C231.039 203.116 231.04 202.988 230.896 202.904L228.207 201.341C228.063 201.257 227.841 201.257 227.696 201.341L220.106 205.723Z" fill="#5B5E71"/>
<path d="M198.059 207.014C197.914 207.098 197.922 207.231 198.066 207.315L200.755 208.878C200.891 208.957 201.12 208.962 201.266 208.878L203.972 207.315C204.117 207.231 204.109 207.098 203.974 207.019L201.285 205.457C201.14 205.373 200.911 205.368 200.766 205.452L198.059 207.014Z" fill="#5B5E71"/>
<path d="M205.591 208.385C205.445 208.469 205.453 208.602 205.589 208.681L208.278 210.243C208.422 210.327 208.652 210.332 208.797 210.248L211.503 208.686C211.648 208.602 211.641 208.469 211.496 208.385L208.808 206.823C208.672 206.744 208.442 206.739 208.297 206.823L205.591 208.385Z" fill="#5B5E71"/>
<path d="M193.158 209.844C193.013 209.928 193.012 210.066 193.156 210.149L195.845 211.712C195.981 211.791 196.219 211.791 196.364 211.707L199.071 210.144C199.207 210.066 199.208 209.928 199.072 209.849L196.383 208.286C196.239 208.202 196.001 208.202 195.864 208.281L193.158 209.844Z" fill="#5B5E71"/>
<path d="M200.664 211.229C200.528 211.308 200.527 211.446 200.663 211.525L203.352 213.087C203.496 213.171 203.734 213.171 203.871 213.092L206.586 211.525C206.722 211.446 206.723 211.308 206.579 211.224L203.89 209.662C203.754 209.583 203.516 209.583 203.38 209.662L200.664 211.229Z" fill="#5B5E71"/>
<path d="M188.249 212.679C188.113 212.758 188.112 212.896 188.256 212.979L190.945 214.542C191.081 214.621 191.319 214.621 191.456 214.542L194.171 212.974C194.307 212.896 194.308 212.758 194.172 212.679L191.483 211.116C191.339 211.032 191.101 211.032 190.964 211.111L188.249 212.679Z" fill="#5B5E71"/>
<path d="M195.747 214.068C195.602 214.152 195.61 214.285 195.745 214.364L198.434 215.926C198.578 216.01 198.808 216.015 198.953 215.931L201.659 214.369C201.805 214.285 201.797 214.152 201.653 214.068L198.964 212.505C198.828 212.427 198.598 212.422 198.453 212.505L195.747 214.068Z" fill="#5B5E71"/>
<path d="M190.821 216.912C190.684 216.991 190.683 217.129 190.819 217.208L193.508 218.77C193.652 218.854 193.89 218.854 194.027 218.775L196.733 217.213C196.879 217.129 196.879 216.991 196.735 216.907L194.046 215.345C193.91 215.266 193.672 215.266 193.527 215.35L190.821 216.912Z" fill="#5B5E71"/>
<path d="M190.499 222.818C190.362 222.897 190.353 223.03 190.497 223.113L193.186 224.676C193.33 224.76 193.56 224.755 193.697 224.676L221.537 208.602C221.683 208.518 221.683 208.39 221.539 208.306L218.85 206.744C218.706 206.66 218.485 206.66 218.34 206.744L190.499 222.818Z" fill="#5B5E71"/>
<path d="M210.508 205.546C210.372 205.624 210.371 205.762 210.507 205.841L213.195 207.404C213.34 207.488 213.578 207.488 213.715 207.409L216.43 205.841C216.566 205.762 216.567 205.624 216.423 205.541L213.734 203.978C213.598 203.899 213.36 203.899 213.223 203.978L210.508 205.546Z" fill="#5B5E71"/>
<path d="M215.46 202.687C215.315 202.771 215.314 202.909 215.45 202.987L218.139 204.55C218.283 204.634 218.521 204.634 218.666 204.55L225.966 200.335C226.111 200.251 226.103 200.119 225.959 200.035L223.27 198.472C223.135 198.393 222.905 198.388 222.76 198.472L215.46 202.687Z" fill="#5B5E71"/>
<path d="M200.481 199.896C200.336 199.98 200.336 200.118 200.48 200.202L203.169 201.765C203.313 201.848 203.543 201.843 203.688 201.76L206.394 200.197C206.531 200.118 206.54 199.985 206.396 199.901L203.707 198.339C203.563 198.255 203.324 198.255 203.188 198.334L200.481 199.896Z" fill="#5B5E71"/>
<path d="M205.331 197.097C205.186 197.18 205.185 197.318 205.329 197.402L208.018 198.965C208.163 199.049 208.392 199.044 208.537 198.96L211.244 197.397C211.38 197.318 211.39 197.185 211.245 197.102L208.557 195.539C208.412 195.455 208.174 195.455 208.037 195.534L205.331 197.097Z" fill="#5B5E71"/>
<path d="M181.338 228.107C181.201 228.186 181.192 228.319 181.336 228.403L184.025 229.965C184.169 230.049 184.399 230.044 184.535 229.965L190.862 226.313C191.007 226.229 191.008 226.101 190.864 226.017L188.175 224.454C188.03 224.371 187.809 224.371 187.664 224.454L181.338 228.107Z" fill="#5B5E71"/>
<path d="M176.401 225.238C176.264 225.317 176.263 225.455 176.399 225.534L179.088 227.096C179.232 227.18 179.471 227.18 179.607 227.101L187.018 222.823C187.163 222.739 187.155 222.606 187.011 222.522L184.322 220.959C184.186 220.881 183.956 220.876 183.811 220.959L176.401 225.238Z" fill="#5B5E71"/>
<path d="M202.96 204.185C202.814 204.269 202.822 204.402 202.967 204.486L205.655 206.049C205.791 206.127 206.021 206.132 206.166 206.049L208.872 204.486C209.018 204.402 209.01 204.269 208.874 204.19L206.185 202.628C206.041 202.544 205.811 202.539 205.666 202.623L202.96 204.185Z" fill="#5B5E71"/>
<path d="M176.227 213.9C176.09 213.979 176.09 214.117 176.234 214.201L178.923 215.764C179.067 215.847 179.297 215.842 179.433 215.764L182.148 214.196C182.285 214.117 182.294 213.984 182.15 213.9L179.461 212.338C179.317 212.254 179.078 212.254 178.942 212.333L176.227 213.9Z" fill="#5B5E71"/>
<path d="M181.084 211.096C180.939 211.18 180.938 211.317 181.082 211.401L183.771 212.964C183.916 213.048 184.145 213.043 184.29 212.959L186.997 211.396C187.133 211.317 187.143 211.184 186.998 211.101L184.309 209.538C184.165 209.454 183.927 209.454 183.79 209.533L181.084 211.096Z" fill="#5B5E71"/>
<path d="M185.934 208.296C185.788 208.38 185.788 208.518 185.932 208.602L188.621 210.164C188.765 210.248 188.995 210.243 189.14 210.159L191.846 208.597C191.983 208.518 191.992 208.384 191.848 208.301L189.159 206.738C189.015 206.654 188.777 206.654 188.64 206.733L185.934 208.296Z" fill="#5B5E71"/>
<path d="M195.633 202.696C195.488 202.78 195.487 202.918 195.631 203.002L198.32 204.564C198.464 204.648 198.694 204.643 198.839 204.559L201.546 202.997C201.682 202.918 201.691 202.785 201.547 202.701L198.858 201.139C198.714 201.055 198.476 201.055 198.339 201.134L195.633 202.696Z" fill="#5B5E71"/>
<path d="M190.783 205.496C190.638 205.58 190.637 205.718 190.782 205.802L193.47 207.364C193.615 207.448 193.845 207.443 193.99 207.359L196.696 205.797C196.833 205.718 196.842 205.585 196.698 205.501L194.009 203.939C193.864 203.855 193.626 203.855 193.49 203.934L190.783 205.496Z" fill="#5B5E71"/>
<path d="M226.991 184.592C226.846 184.676 226.854 184.809 226.998 184.892L229.687 186.455C229.831 186.539 230.052 186.539 230.197 186.455L232.904 184.892C233.049 184.809 233.05 184.68 232.905 184.597L230.216 183.034C230.072 182.95 229.842 182.945 229.697 183.029L226.991 184.592Z" fill="#5B5E71"/>
<path d="M222.141 187.391C221.996 187.475 222.004 187.608 222.148 187.692L224.837 189.255C224.981 189.338 225.202 189.338 225.348 189.255L228.054 187.692C228.199 187.608 228.2 187.48 228.056 187.396L225.367 185.834C225.222 185.75 224.993 185.745 224.848 185.829L222.141 187.391Z" fill="#5B5E71"/>
<path d="M231.928 187.461C231.782 187.545 231.79 187.678 231.934 187.761L234.623 189.324C234.759 189.403 234.989 189.408 235.134 189.324L237.84 187.761C237.985 187.678 237.978 187.545 237.842 187.466L235.153 185.903C235.009 185.819 234.779 185.815 234.634 185.898L231.928 187.461Z" fill="#5B5E71"/>
<path d="M227.078 190.261C226.933 190.344 226.94 190.477 227.085 190.561L229.774 192.124C229.909 192.203 230.139 192.208 230.284 192.124L232.991 190.561C233.136 190.477 233.128 190.344 232.992 190.266L230.303 188.703C230.159 188.619 229.929 188.614 229.784 188.698L227.078 190.261Z" fill="#5B5E71"/>
<path d="M236.864 190.33C236.719 190.413 236.727 190.546 236.862 190.625L239.551 192.188C239.696 192.272 239.925 192.276 240.07 192.193L242.777 190.63C242.922 190.546 242.914 190.413 242.77 190.33L240.081 188.767C239.945 188.688 239.716 188.683 239.57 188.767L236.864 190.33Z" fill="#5B5E71"/>
<path d="M241.779 193.061C241.634 193.145 241.642 193.278 241.777 193.357L244.466 194.919C244.611 195.003 244.84 195.008 244.985 194.924L247.692 193.362C247.837 193.278 247.829 193.145 247.685 193.061L244.996 191.499C244.86 191.42 244.631 191.415 244.485 191.499L241.779 193.061Z" fill="#5B5E71"/>
<path d="M222.229 193.06C222.084 193.144 222.092 193.277 222.236 193.361L224.925 194.924C225.061 195.002 225.29 195.007 225.436 194.924L228.142 193.361C228.287 193.277 228.279 193.144 228.144 193.065L225.455 191.503C225.311 191.419 225.081 191.414 224.936 191.498L222.229 193.06Z" fill="#5B5E71"/>
<path d="M232.014 193.129C231.869 193.213 231.877 193.346 232.013 193.425L234.702 194.988C234.846 195.071 235.076 195.076 235.221 194.993L237.927 193.43C238.072 193.346 238.064 193.213 237.92 193.129L235.231 191.567C235.096 191.488 234.866 191.483 234.721 191.567L232.014 193.129Z" fill="#5B5E71"/>
<path d="M227.166 195.929C227.02 196.013 227.028 196.146 227.164 196.225L229.853 197.787C229.997 197.871 230.227 197.876 230.372 197.792L233.078 196.23C233.224 196.146 233.216 196.013 233.072 195.929L230.383 194.367C230.247 194.288 230.017 194.283 229.872 194.367L227.166 195.929Z" fill="#5B5E71"/>
<path d="M236.951 195.998C236.806 196.082 236.805 196.21 236.949 196.294L239.638 197.857C239.783 197.94 240.004 197.94 240.149 197.857L242.855 196.294C243 196.21 243.001 196.082 242.857 195.998L240.168 194.436C240.024 194.352 239.803 194.352 239.657 194.436L236.951 195.998Z" fill="#5B5E71"/>
<path d="M232.102 198.798C231.956 198.882 231.956 199.01 232.1 199.094L234.789 200.656C234.933 200.74 235.154 200.74 235.299 200.656L238.005 199.094C238.151 199.01 238.151 198.882 238.007 198.798L235.318 197.236C235.174 197.152 234.953 197.152 234.808 197.236L232.102 198.798Z" fill="#5B5E71"/>
<path d="M217.293 190.191C217.147 190.275 217.155 190.408 217.299 190.492L219.988 192.054C220.133 192.138 220.354 192.138 220.499 192.054L223.205 190.492C223.351 190.408 223.351 190.28 223.207 190.196L220.518 188.634C220.374 188.55 220.144 188.545 219.999 188.629L217.293 190.191Z" fill="#5B5E71"/>
<path d="M171.377 216.7C171.241 216.779 171.24 216.917 171.384 217.001L174.073 218.563C174.217 218.647 174.447 218.642 174.584 218.563L177.299 216.996C177.435 216.917 177.445 216.784 177.3 216.7L174.611 215.138C174.467 215.054 174.229 215.054 174.092 215.133L171.377 216.7Z" fill="#5B5E71"/>
<path d="M166.528 219.5C166.391 219.579 166.39 219.717 166.534 219.801L169.223 221.364C169.368 221.447 169.597 221.442 169.734 221.364L172.44 219.801C172.586 219.717 172.595 219.584 172.451 219.5L169.762 217.938C169.617 217.854 169.379 217.854 169.234 217.938L166.528 219.5Z" fill="#5B5E71"/>
<path d="M198.849 195.101C198.712 195.18 198.712 195.308 198.847 195.387L200.018 196.067C200.154 196.146 200.375 196.146 200.511 196.067L203.116 194.563C203.252 194.485 203.253 194.356 203.117 194.277L201.947 193.597C201.811 193.518 201.59 193.518 201.453 193.597L198.849 195.101Z" fill="#5B5E71"/>
<path d="M203.511 192.409C203.375 192.488 203.374 192.616 203.51 192.695L204.68 193.375C204.816 193.454 205.037 193.454 205.174 193.375L207.777 191.872C207.914 191.793 207.915 191.665 207.779 191.586L206.609 190.906C206.473 190.827 206.252 190.827 206.115 190.906L203.511 192.409Z" fill="#5B5E71"/>
<path d="M208.172 189.718C208.036 189.797 208.035 189.925 208.171 190.004L209.341 190.684C209.477 190.763 209.698 190.763 209.835 190.684L211.147 189.927C211.284 189.848 211.285 189.72 211.149 189.641L209.978 188.961C209.843 188.882 209.621 188.882 209.485 188.961L208.172 189.718Z" fill="#5B5E71"/>
<path d="M217.495 184.335C217.359 184.414 217.358 184.542 217.494 184.621L218.664 185.302C218.8 185.38 219.021 185.38 219.158 185.302L221.753 183.803C221.899 183.719 221.899 183.591 221.764 183.512L220.593 182.832C220.458 182.753 220.236 182.753 220.091 182.837L217.495 184.335Z" fill="#5B5E71"/>
<path d="M212.834 187.026C212.698 187.105 212.697 187.233 212.833 187.312L214.003 187.993C214.139 188.071 214.36 188.071 214.497 187.993L217.101 186.489C217.237 186.41 217.238 186.282 217.102 186.203L215.932 185.523C215.796 185.444 215.575 185.444 215.438 185.523L212.834 187.026Z" fill="#5B5E71"/>
<path d="M222.157 181.644C222.02 181.723 222.019 181.852 222.155 181.93L223.325 182.611C223.461 182.689 223.683 182.689 223.819 182.611L226.415 181.112C226.551 181.033 226.552 180.905 226.416 180.826L225.246 180.146C225.11 180.067 224.889 180.067 224.752 180.146L222.157 181.644Z" fill="#5B5E71"/>
<path d="M184.873 203.17C184.737 203.249 184.736 203.377 184.872 203.456L186.042 204.136C186.178 204.215 186.399 204.215 186.536 204.136L189.131 202.638C189.268 202.559 189.269 202.431 189.133 202.352L187.962 201.671C187.827 201.593 187.605 201.593 187.469 201.671L184.873 203.17Z" fill="#5B5E71"/>
<path d="M189.535 200.478C189.39 200.562 189.389 200.69 189.525 200.769L190.696 201.45C190.831 201.528 191.053 201.528 191.198 201.445L193.793 199.946C193.93 199.867 193.93 199.739 193.795 199.66L192.624 198.98C192.488 198.901 192.267 198.901 192.131 198.98L189.535 200.478Z" fill="#5B5E71"/>
<path d="M194.188 197.792C194.051 197.871 194.051 197.999 194.186 198.078L195.357 198.758C195.492 198.837 195.714 198.837 195.85 198.758L198.454 197.255C198.591 197.176 198.592 197.048 198.456 196.969L197.286 196.289C197.15 196.21 196.929 196.21 196.792 196.289L194.188 197.792Z" fill="#5B5E71"/>
<path d="M170.889 211.244C170.752 211.323 170.752 211.451 170.887 211.53L172.058 212.21C172.194 212.289 172.415 212.289 172.552 212.21L175.155 210.707C175.292 210.628 175.293 210.5 175.157 210.421L173.987 209.741C173.851 209.662 173.629 209.662 173.493 209.741L170.889 211.244Z" fill="#5B5E71"/>
<path d="M175.55 208.553C175.414 208.632 175.413 208.76 175.549 208.839L176.719 209.519C176.855 209.598 177.076 209.598 177.213 209.519L179.817 208.016C179.953 207.937 179.954 207.808 179.818 207.73L178.648 207.049C178.512 206.971 178.291 206.971 178.154 207.049L175.55 208.553Z" fill="#5B5E71"/>
<path d="M180.212 205.861C180.076 205.94 180.075 206.068 180.211 206.147L181.381 206.827C181.517 206.906 181.738 206.906 181.875 206.827L184.47 205.329C184.607 205.25 184.608 205.122 184.472 205.043L183.301 204.363C183.166 204.284 182.944 204.284 182.808 204.363L180.212 205.861Z" fill="#5B5E71"/>
<path d="M166.227 213.936C166.09 214.014 166.09 214.143 166.225 214.222L167.396 214.902C167.531 214.981 167.753 214.981 167.889 214.902L170.493 213.398C170.63 213.319 170.631 213.191 170.495 213.112L169.324 212.432C169.189 212.353 168.967 212.353 168.831 212.432L166.227 213.936Z" fill="#5B5E71"/>
<path d="M161.566 216.626C161.429 216.705 161.429 216.833 161.564 216.912L162.735 217.592C162.87 217.671 163.092 217.671 163.228 217.592L165.832 216.089C165.969 216.01 165.969 215.882 165.834 215.803L164.663 215.123C164.528 215.044 164.306 215.044 164.17 215.123L161.566 216.626Z" fill="#5B5E71"/>
<path d="M162.306 223.795L162.3 224.445L165.832 226.484L165.838 225.834L162.306 223.795Z" fill="#BAC1CE"/>
<path d="M158.924 221.843L158.918 222.493L160.905 223.64L160.911 222.99L158.924 221.843Z" fill="#BAC1CE"/>
<path d="M180.453 177.163L180.455 177.813L176.17 180.287L176.168 179.637L180.453 177.163Z" fill="#4C7891"/>
<path d="M183.238 188.688L183.24 189.337L181.373 190.415L181.371 189.765L183.238 188.688Z" fill="#4C7891"/>
<path d="M183.23 186.06L183.232 186.709L177.33 190.117L177.328 189.467L183.23 186.06Z" fill="#4C7891"/>
<path d="M183.222 183.431L183.224 184.095L179.715 186.122L179.713 185.457L183.222 183.431Z" fill="#4C7891"/>
<path d="M183.215 180.818L183.217 181.468L175.948 185.664L175.946 185.015L183.215 180.818Z" fill="#4C7891"/>
<path d="M183.208 178.189L183.21 178.839L172.576 184.979L172.574 184.329L183.208 178.189Z" fill="#4C7891"/>
<path d="M175.418 180.069L175.42 180.719L168.927 184.468L168.925 183.818L175.418 180.069Z" fill="#4C7891"/>
<path d="M173.124 178.762L173.126 179.411L166.173 183.426L166.171 182.776L173.124 178.762Z" fill="#4C7891"/>
<path d="M167.832 179.185L167.834 179.834L159.395 184.706L159.394 184.057L167.832 179.185Z" fill="#4C7891"/>
<path d="M183.201 175.577L183.203 176.227L181.586 177.16L181.584 176.511L183.201 175.577Z" fill="#4C7891"/>
<path d="M183.193 172.948L183.195 173.598L174.007 178.903L174.005 178.253L183.193 172.948Z" fill="#4C7891"/>
<path d="M183.186 170.32L183.188 170.97L179.323 173.201L179.321 172.552L183.186 170.32Z" fill="#4C7891"/>
<path d="M178.125 173.242L178.127 173.892L168.676 179.348L168.674 178.699L178.125 173.242Z" fill="#4C7891"/>
<path d="M178.662 186.064L178.663 186.729L171.736 190.729L171.734 190.064L178.662 186.064Z" fill="#4C7891"/>
<path d="M174.947 185.592L174.949 186.241L169.113 189.611L169.111 188.962L174.947 185.592Z" fill="#4C7891"/>
<path d="M162.755 189.998L162.757 190.648L159.418 192.575L159.416 191.926L162.755 189.998Z" fill="#4C7891"/>
<path d="M176.421 189.99L176.423 190.64L168.799 195.042L168.797 194.392L176.421 189.99Z" fill="#4C7891"/>
<path d="M171.038 190.466L171.04 191.13L165.111 194.553L165.109 193.889L171.038 190.466Z" fill="#4C7891"/>
<path d="M176.069 195.444L176.07 196.109L166.961 201.368L166.959 200.703L176.069 195.444Z" fill="#4C7891"/>
<path d="M170.46 196.063L170.462 196.713L164.021 200.432L164.02 199.782L170.46 196.063Z" fill="#4C7891"/>
<path d="M164.268 194.375L164.27 195.04L159.433 197.832L159.431 197.168L164.268 194.375Z" fill="#4C7891"/>
<path d="M168.624 189.242L168.626 189.892L159.425 195.204L159.423 194.555L168.624 189.242Z" fill="#4C7891"/>
<path d="M171.075 185.194L171.077 185.844L163.887 189.995L163.885 189.345L171.075 185.194Z" fill="#4C7891"/>
<path d="M167.519 184.631L167.52 185.28L159.41 189.963L159.408 189.313L167.519 184.631Z" fill="#4C7891"/>
<path d="M165.053 183.422L165.055 184.071L159.403 187.335L159.401 186.685L165.053 183.422Z" fill="#4C7891"/>
<path d="M167.154 195.341L167.156 195.99L159.44 200.445L159.438 199.796L167.154 195.341Z" fill="#4C7891"/>
<path d="M162.521 200.647L162.523 201.297L159.447 203.073L159.445 202.423L162.521 200.647Z" fill="#4C7891"/>
<path d="M183.245 191.301L183.247 191.966L177.515 195.274L177.514 194.61L183.245 191.301Z" fill="#4C7891"/>
<path d="M180.648 190.183L180.65 190.832L172.093 195.773L172.091 195.123L180.648 190.183Z" fill="#4C7891"/>
<path d="M165.25 201.689L165.252 202.354L159.455 205.701L159.453 205.036L165.25 201.689Z" fill="#4C7891"/>
<path d="M214.143 159.286L214.186 174.673L218.227 172.34L218.183 156.953L214.143 159.286Z" fill="#FA5168"/>
<path d="M205.269 157.927L205.274 159.784L209.314 157.452L209.309 155.595L205.269 157.927Z" fill="#748BFD"/>
<path d="M205.279 161.694L205.343 179.779L209.384 177.446L209.32 159.361L205.279 161.694Z" fill="#748BFD"/>
<path d="M196.446 165.73L196.452 167.614L200.492 165.281L200.487 163.397L196.446 165.73Z" fill="#4C7891"/>
<path d="M196.457 169.497L196.501 184.884L200.541 182.551L200.497 167.164L196.457 169.497Z" fill="#4C7891"/>
<path d="M187.607 176.601L187.658 189.99L191.699 187.657L191.648 174.269L187.607 176.601Z" fill="#BAC1CE"/>
<path d="M187.597 172.834L187.602 174.717L191.643 172.384L191.637 170.501L187.597 172.834Z" fill="#BAC1CE"/>
<path d="M214.132 155.519L214.137 157.403L218.178 155.07L218.172 153.187L214.132 155.519Z" fill="#FA5168"/>
<path d="M175.623 157.795L175.627 159.051L159.068 168.611L159.064 167.355L175.623 157.795Z" fill="#A4A9B3"/>
<path d="M219.073 132.71L219.076 133.965L207.45 140.678L207.446 139.422L219.073 132.71Z" fill="#A4A9B3"/>
<path d="M219.083 136.45L219.087 137.706L188.796 155.194L188.793 153.938L219.083 136.45Z" fill="#A4A9B3"/>
<path d="M200.444 154.709L200.448 155.96L177.539 169.186L177.535 167.935L200.444 154.709Z" fill="#A4A9B3"/>
<path d="M174.884 169.467L174.887 170.718L159.1 179.833L159.097 178.581L174.884 169.467Z" fill="#A4A9B3"/>
<path d="M219.094 140.19L219.097 141.446L159.09 176.092L159.086 174.836L219.094 140.19Z" fill="#A4A9B3"/>
<path d="M186.194 155.438L186.198 156.694L159.079 172.351L159.075 171.096L186.194 155.438Z" fill="#A4A9B3"/>
<path d="M219.104 143.936L219.107 145.187L203.148 154.401L203.145 153.149L219.104 143.936Z" fill="#A4A9B3"/>
<path d="M205.524 140.532L205.527 141.788L178.801 157.218L178.798 155.962L205.524 140.532Z" fill="#A4A9B3"/>
<path d="M88.5407 214.443L88.5079 221.3L75.9141 228.619L75.9468 221.762L88.5407 214.443Z" fill="#6EBA6E"/>
<path d="M75.9471 221.763L75.9144 228.62L63.248 221.307L63.2808 214.45L75.9471 221.763Z" fill="#75CA75"/>
<path d="M88.5415 214.444L75.9476 221.762L63.2812 214.45L75.8751 207.131L88.5415 214.444Z" fill="#9AD898"/>
<path d="M285.713 164.151V166.309L261.876 180.161V178.004L285.713 164.151Z" fill="#4562EF"/>
<path d="M261.876 178.003V180.161L237.902 166.319V164.162L261.876 178.003Z" fill="#576CFB"/>
<path d="M285.713 164.151L261.876 178.003L237.902 164.162L261.739 150.31L285.713 164.151Z" fill="#748BFD"/>
<path d="M285.922 255.526L285.89 262.383L273.296 269.702L273.329 262.845L285.922 255.526Z" fill="#F34858"/>
<path d="M273.329 262.846L273.296 269.703L260.63 262.39L260.663 255.533L273.329 262.846Z" fill="#FA5168"/>
<path d="M285.923 255.527L273.329 262.846L260.663 255.533L273.257 248.214L285.923 255.527Z" fill="#F9607F"/>
</svg>
