<svg width="302" height="301" viewBox="0 0 302 301" fill="none" xmlns="http://www.w3.org/2000/svg">
<path d="M185.071 230.143C185.074 231.078 184.441 232.015 183.175 232.746L105.304 277.706C102.788 279.158 98.8733 279.158 96.3737 277.706L69.183 261.904C67.9412 261.182 67.3193 260.259 67.3164 259.335L67.3387 273.932C67.3416 274.855 67.9635 275.778 69.2053 276.5L96.396 292.302C98.8956 293.754 102.81 293.755 105.326 292.302L183.198 247.343C184.464 246.612 185.095 245.674 185.093 244.739L185.071 230.143Z" fill="#383736"/>
<path d="M185.098 230.119V244.75C185.098 245.689 184.453 246.627 183.221 247.331L105.324 292.322C102.802 293.729 98.8718 293.729 96.408 292.322L96.3496 277.69C98.8718 279.157 102.802 279.157 105.324 277.69L183.163 232.758C184.453 231.996 185.098 231.058 185.098 230.119Z" fill="#2D2C2B"/>
<path d="M183.162 232.758L139.298 258.079V272.7L183.221 247.331C184.453 246.627 185.098 245.689 185.098 244.75V230.119C185.098 231.058 184.453 231.996 183.162 232.758Z" fill="#191918"/>
<path d="M69.2118 256.731C66.6957 258.184 66.6832 260.451 69.1828 261.904L96.3735 277.705C98.8731 279.158 102.787 279.158 105.304 277.705L183.175 232.746C185.691 231.294 185.704 229.026 183.204 227.574L156.014 211.772C153.514 210.319 149.599 210.32 147.084 211.772L69.2118 256.731Z" fill="#434240"/>
<path d="M105.063 264.8L98.2988 260.869C101.928 242.06 103.596 224.172 103.608 206.887L110.372 210.817C110.359 228.103 108.692 245.991 105.063 264.8Z" fill="#C4C2C0"/>
<path d="M110.372 210.816L103.608 206.886L137.982 187.04L144.746 190.971L110.372 210.816Z" fill="#E0E2E2"/>
<path d="M144.746 190.973C144.857 208.187 146.681 224.059 150.344 238.658L105.063 264.8C108.692 245.992 110.36 228.103 110.373 210.818L144.746 190.973Z" fill="#D6D4D2"/>
<path d="M220.984 164.347C221.005 170.371 216.769 177.701 211.536 180.723L35.1635 282.552C29.9306 285.575 25.6642 283.148 25.654 277.124L25.6128 262.639L25.253 136.692C25.2324 130.678 29.468 123.348 34.7008 120.325L211.074 18.4965C216.317 15.4741 220.573 17.9003 220.593 23.9144L220.943 149.933L220.984 164.347Z" fill="#21201F"/>
<path d="M208.622 157.033L37.9878 255.519L37.5771 133.042L208.27 34.3223L208.622 157.033Z" fill="white"/>
<path d="M220.986 164.348C221.006 170.372 216.771 177.702 211.538 180.725L35.1649 282.553C29.9321 285.576 25.6656 283.15 25.6554 277.125L25.6143 262.64L220.944 149.935L220.986 164.348Z" fill="#E9E8E6"/>
<path d="M134.392 212.847C134.401 216.945 131.511 221.955 127.946 224.008C124.381 226.071 121.472 224.407 121.463 220.319C121.444 216.222 124.343 211.222 127.899 209.169C131.473 207.106 134.382 208.76 134.392 212.847Z" fill="#D6D4D2"/>
<path d="M7.42755 126.295C7.40972 124.489 7.81953 122.564 8.49392 120.666C7.81206 122.57 7.39218 124.504 7.39851 126.322L7.5006 162.123L7.51728 162.133L7.42755 126.295Z" fill="#434240"/>
<path d="M10.5646 272.839L28.4199 283.208L28.3793 283.175L10.5557 272.831L10.5646 272.839Z" fill="#434240"/>
<path d="M7.49902 162.121L7.63361 209.234L7.5157 162.131L7.49902 162.121Z" fill="#434240"/>
<path d="M49.5371 91.0793L67.3976 101.446L124.472 68.4935L106.612 58.127L49.5371 91.0793Z" fill="#2D2C2B"/>
<path d="M106.61 58.1301L124.471 68.4966L176.143 38.6634L158.283 28.2969L106.61 58.1301Z" fill="#383736"/>
<path d="M217.828 17.838L199.963 7.46853C198.246 6.46112 195.851 6.60491 193.219 8.12652L158.284 28.2957L176.145 38.6623L211.074 18.496C213.706 16.9743 216.101 16.8303 217.828 17.838Z" fill="#494846"/>
<path d="M16.8809 109.934L34.7034 120.311C34.1003 120.663 33.5145 121.085 32.9428 121.543C33.5139 121.09 34.0991 120.671 34.7016 120.323L67.3977 101.446L49.5373 91.0801L16.8809 109.934Z" fill="#494846"/>
<path d="M7.79959 266.756L7.65464 215.987L7.77946 266.782C7.77946 269.773 8.83547 271.827 10.5365 272.824L10.5561 272.835C8.85589 271.846 7.79959 269.742 7.79959 266.756Z" fill="#383736"/>
<path d="M16.8465 109.956L16.881 109.936L16.8715 109.931C13.1864 112.06 10.0529 116.28 8.49414 120.667C10.0675 116.275 13.1959 112.065 16.8465 109.956Z" fill="#383736"/>
<path d="M25.253 136.692L25.3551 172.487L25.3632 172.492L25.2585 136.678C25.2585 131.386 28.5663 125.051 32.9419 121.545C28.5528 125.031 25.2346 131.37 25.253 136.692Z" fill="#383736"/>
<path d="M25.5113 226.35L25.5231 226.357L25.3655 172.494L25.3574 172.489L25.5113 226.35Z" fill="#383736"/>
<path d="M25.6547 277.125C25.6547 280.091 26.6995 282.181 28.3796 283.178L28.427 283.206C26.7257 282.208 25.6699 280.097 25.6699 277.105L25.5216 226.357L25.5098 226.35L25.6547 277.125Z" fill="#383736"/>
<path d="M25.511 226.346L25.3571 172.485L7.51855 162.131L7.63646 209.234L7.65573 215.982L25.511 226.346Z" fill="#494846"/>
<path d="M16.8815 109.934L16.847 109.954C13.1964 112.062 10.068 116.272 8.49466 120.665C7.82027 122.562 7.41046 124.487 7.42829 126.294L7.51802 162.131L25.3566 172.485L25.2545 136.69C25.2361 131.368 28.5543 125.029 32.9434 121.543C33.5151 121.085 34.1009 120.663 34.704 120.311L16.8815 109.934Z" fill="#2D2C2B"/>
<path d="M25.6555 277.124L25.5105 226.349L7.65527 215.985L7.80022 266.755C7.80022 269.741 8.85651 271.845 10.5567 272.834L28.3804 283.178C26.7003 282.18 25.6555 280.09 25.6555 277.124Z" fill="#383736"/>
<path d="M60.2905 217.381C59.9057 217.381 59.5296 217.18 59.3219 216.821C59.0115 216.288 59.1951 215.601 59.7308 215.293L187.509 141.347C188.038 141.036 188.722 141.218 189.037 141.756C189.348 142.289 189.164 142.976 188.628 143.284L60.8502 217.23C60.6753 217.333 60.4807 217.381 60.2905 217.381Z" fill="#E9E8E6"/>
<path d="M60.2905 193.211C59.9057 193.211 59.5296 193.01 59.3219 192.651C59.0115 192.118 59.1951 191.431 59.7308 191.123L187.509 117.179C188.038 116.864 188.722 117.05 189.037 117.588C189.348 118.121 189.164 118.808 188.628 119.116L60.8502 193.06C60.6753 193.163 60.4829 193.211 60.2905 193.211Z" fill="#E9E8E6"/>
<path d="M60.2905 169.931C59.9057 169.931 59.5296 169.73 59.3219 169.371C59.0115 168.838 59.1951 168.151 59.7308 167.843L187.509 93.8991C188.038 93.5864 188.722 93.7723 189.037 94.3079C189.348 94.8414 189.164 95.5279 188.628 95.8362L60.8502 169.78C60.6753 169.883 60.4829 169.931 60.2905 169.931Z" fill="#E9E8E6"/>
<path d="M60.2905 144.763C59.9057 144.763 59.5296 144.561 59.3219 144.203C59.0115 143.669 59.1951 142.983 59.7308 142.675L187.509 68.7306C188.038 68.418 188.722 68.6016 189.037 69.1395C189.348 69.6729 189.164 70.3594 188.628 70.6677L60.8502 144.612C60.6753 144.714 60.4829 144.763 60.2905 144.763Z" fill="#E9E8E6"/>
<path d="M60.289 217.379C59.6725 217.379 59.1718 216.881 59.1696 216.264L58.9072 143.875C58.905 143.256 59.4035 142.753 60.0223 142.751C60.6388 142.751 61.1439 143.249 61.146 143.866L61.4084 216.256C61.4106 216.874 60.9077 217.377 60.289 217.379C60.2912 217.379 60.2868 217.379 60.289 217.379Z" fill="#E9E8E6"/>
<path d="M86.2851 202.333C85.6685 202.333 85.1679 201.835 85.1657 201.218L84.9033 128.829C84.9011 128.21 85.3996 127.707 86.0184 127.705C86.6349 127.705 87.1399 128.204 87.1421 128.82L87.4045 201.21C87.4067 201.828 86.9038 202.331 86.2851 202.333C86.2873 202.333 86.2829 202.333 86.2851 202.333Z" fill="#E9E8E6"/>
<path d="M112.287 187.288C111.67 187.288 111.17 186.79 111.168 186.173L110.905 113.784C110.903 113.165 111.402 112.662 112.02 112.66C112.637 112.66 113.142 113.159 113.144 113.775L113.406 186.165C113.409 186.783 112.906 187.286 112.287 187.288C112.289 187.288 112.285 187.288 112.287 187.288Z" fill="#E9E8E6"/>
<path d="M138.283 172.244C137.667 172.244 137.166 171.745 137.164 171.129L136.901 98.7391C136.899 98.1182 137.468 97.5585 138.021 97.6153C138.637 97.6153 139.138 98.1138 139.14 98.7303L139.403 171.12C139.405 171.739 138.902 172.241 138.283 172.244C138.285 172.244 138.281 172.244 138.283 172.244Z" fill="#E9E8E6"/>
<path d="M164.283 157.197C163.667 157.197 163.166 156.698 163.164 156.082L162.901 83.6921C162.899 83.0734 163.398 82.5705 164.016 82.5684C164.633 82.5684 165.138 83.0668 165.14 83.6834L165.403 156.073C165.405 156.694 164.788 157.164 164.283 157.197Z" fill="#E9E8E6"/>
<path d="M188.33 143.21C187.713 143.21 187.213 142.712 187.211 142.095L186.948 69.7058C186.946 69.0871 187.445 68.5842 188.063 68.582C188.68 68.582 189.185 69.0805 189.187 69.6971L189.449 142.087C189.452 142.705 188.949 143.208 188.33 143.21C188.332 143.21 188.328 143.21 188.33 143.21Z" fill="#E9E8E6"/>
<path d="M180.77 128.354L182.683 129.465C181.445 128.746 179.73 128.848 177.835 129.942L175.923 128.83C177.817 127.736 179.532 127.634 180.77 128.354Z" fill="#3F9AE0"/>
<path d="M173.032 146.075L171.119 144.964C169.896 144.253 169.138 142.74 169.132 140.593C169.12 136.265 172.155 131.003 175.922 128.828L177.835 129.94C174.068 132.114 171.032 137.376 171.044 141.705C171.05 143.852 171.808 145.364 173.032 146.075Z" fill="#006CB5"/>
<path d="M173.04 146.08L171.127 144.959C169.893 144.259 169.143 142.741 169.126 140.59L171.039 141.711C171.056 143.846 171.806 145.363 173.04 146.08Z" fill="#3F9AE0"/>
<path d="M177.836 129.94C181.603 127.765 184.658 129.51 184.671 133.838C184.683 138.158 181.647 143.425 177.881 145.599C174.114 147.774 171.058 146.025 171.046 141.705C171.034 137.376 174.069 132.114 177.836 129.94Z" fill="#0074D1"/>
<path d="M101.183 174.406L102.989 175.456C101.82 174.776 100.201 174.873 98.4123 175.906L96.6064 174.856C98.3953 173.823 100.014 173.727 101.183 174.406Z" fill="#FFD651"/>
<path d="M93.8748 191.14L92.0689 190.09C90.9138 189.419 90.1982 187.991 90.1924 185.964C90.1808 181.877 93.0473 176.908 96.6039 174.854L98.4098 175.904C94.8531 177.957 91.9867 182.926 91.9983 187.013C92.004 189.04 92.7197 190.468 93.8748 191.14Z" fill="#DDB040"/>
<path d="M93.8823 191.145L92.0761 190.086C90.9109 189.425 90.2023 187.992 90.1865 185.961L91.9928 187.02C92.0086 189.035 92.7171 190.468 93.8823 191.145Z" fill="#FFD651"/>
<path d="M98.4106 175.904C101.967 173.851 104.852 175.499 104.864 179.585C104.876 183.665 102.009 188.637 98.4525 190.691C94.8958 192.744 92.0106 191.092 91.9991 187.013C91.9875 182.926 94.8539 177.957 98.4106 175.904Z" fill="#EFC348"/>
<path d="M118.215 124.968L120.884 126.519C119.156 125.515 116.763 125.657 114.119 127.184L111.45 125.633C114.094 124.106 116.487 123.964 118.215 124.968Z" fill="#81D672"/>
<path d="M107.416 149.703L104.747 148.152C103.04 147.16 101.982 145.049 101.974 142.053C101.957 136.012 106.193 128.668 111.45 125.633L114.119 127.184C108.862 130.219 104.626 137.563 104.643 143.604C104.651 146.6 105.709 148.711 107.416 149.703Z" fill="#3DB542"/>
<path d="M107.426 149.712L104.757 148.146C103.034 147.169 101.987 145.051 101.964 142.049L104.634 143.614C104.657 146.593 105.704 148.711 107.426 149.712Z" fill="#81D672"/>
<path d="M114.12 127.185C119.377 124.15 123.642 126.586 123.659 132.626C123.676 138.655 119.439 146.005 114.182 149.04C108.925 152.075 104.661 149.634 104.644 143.604C104.626 137.564 108.863 130.22 114.12 127.185Z" fill="#6DCB60"/>
<path d="M70.5185 190.977L67.3877 190.82C67.462 189.344 69.362 154.575 83.9382 145.937C84.1459 145.812 89.3188 142.74 94.5922 144.306C97.6312 145.202 100.03 147.408 101.718 150.86C106.844 161.335 112.199 175.22 112.251 175.36C112.304 175.5 113.519 178.353 116.147 179.151C117.859 179.672 119.884 179.164 122.166 177.641C129.394 172.813 132.442 158.873 132.473 158.733L145.215 108.115C145.543 107.096 152.657 85.5521 161.297 80.9871C164.185 79.4632 166.798 79.1702 169.054 80.1169C173.143 81.8376 174.719 87.1613 175.476 89.7171L172.472 90.6091C171.851 88.5124 170.559 84.1507 167.839 83.0073C166.49 82.4388 164.78 82.6924 162.762 83.7594C156.518 87.0563 150.151 103.087 148.223 108.983L135.525 159.444C135.405 160.012 132.182 174.72 123.907 180.247C120.793 182.321 117.868 182.958 115.207 182.14C111.149 180.892 109.409 176.687 109.337 176.51C109.273 176.346 103.967 162.588 98.9015 152.238C97.6181 149.614 95.8756 147.959 93.7221 147.316C89.7998 146.146 85.5867 148.606 85.5408 148.63C72.3922 156.422 70.536 190.632 70.5185 190.977Z" fill="#F25A5A"/>
<path d="M192.253 160.289V155.781L50.5052 237.741C50.2426 237.872 49.9363 237.959 49.6737 237.959C49.3673 237.959 49.1047 237.872 48.8422 237.741C48.317 237.434 48.0107 236.909 48.0107 236.296L47.7919 152.225L43.7217 154.544L49.4111 141.459L55.1003 147.98L51.0741 150.299L51.3367 233.408L192.253 151.93L192.21 147.248L200.831 148.823L192.253 160.289Z" fill="#E9E8E6"/>
<path d="M187.055 102.33L181.362 99.0219L181.275 68.3281L186.968 71.6362L187.055 102.33Z" fill="#00649B"/>
<path d="M186.968 71.6365L181.275 68.3285L282.914 9.64746L288.606 12.9555L186.968 71.6365Z" fill="#3F9AE0"/>
<path d="M186.968 71.6344L181.275 68.3264L262.653 21.3428L268.346 24.6508L186.968 71.6344Z" fill="#006CB5"/>
<path d="M186.968 71.6363L181.275 68.3282L242.393 33.042L248.085 36.3501L186.968 71.6363Z" fill="#3F9AE0"/>
<path d="M186.968 71.6361L181.275 68.328L221.564 45.0674L227.256 48.3755L186.968 71.6361Z" fill="#006CB5"/>
<path d="M186.968 71.636L181.275 68.3279L201.872 56.4365L207.564 59.7446L186.968 71.636Z" fill="#3F9AE0"/>
<path d="M288.607 12.9541L288.694 43.6479L187.056 102.329L186.969 71.6351L288.607 12.9541Z" fill="#0074D1"/>
<path d="M209.146 80.2635L207.541 79.3306L214.583 75.2646L216.189 76.1975L209.146 80.2635Z" fill="#CFD0D1"/>
<path d="M209.131 74.154L207.525 73.2212L213.529 69.7549L215.134 70.6878L209.131 74.154Z" fill="#CFD0D1"/>
<path d="M206.184 84.7251L204.579 83.7922L204.537 68.9443L206.142 69.8772L206.184 84.7251Z" fill="#CFD0D1"/>
<path d="M206.142 69.8757L204.537 68.9428L214.301 63.3057L215.906 64.2385L206.142 69.8757Z" fill="#CFD0D1"/>
<path d="M215.905 64.2393L215.913 66.9842L209.12 70.9062L209.129 74.1527L215.133 70.6864L215.141 73.3601L209.137 76.8264L209.147 80.2639L216.189 76.198L216.197 78.9432L206.184 84.7243L206.142 69.8764L215.905 64.2393Z" fill="white"/>
<path d="M198.135 85.1147L196.529 84.1818L200.488 71.2803L202.093 72.2132L198.135 85.1147Z" fill="#CFD0D1"/>
<path d="M202.093 72.2134L200.487 71.2805L203.458 69.5654L205.063 70.4983L202.093 72.2134Z" fill="#CFD0D1"/>
<path d="M190.957 78.6426L189.352 77.7097L192.572 75.8506L194.177 76.7835L190.957 78.6426Z" fill="#CFD0D1"/>
<path d="M196.566 90.2763L194.961 89.3435L189.352 77.71L190.957 78.6428L196.566 90.2763Z" fill="#CFD0D1"/>
<path d="M205.062 70.499L199.516 88.5733L196.566 90.2764L190.956 78.6429L194.176 76.7838L198.132 85.1157L202.091 72.2141L205.062 70.499Z" fill="white"/>
<path d="M243.372 63.2564L241.767 62.3235L241.725 47.4756L243.33 48.4085L243.372 63.2564Z" fill="#CFD0D1"/>
<path d="M243.33 48.407L241.725 47.4742L244.716 45.7471L246.321 46.6799L243.33 48.407Z" fill="#CFD0D1"/>
<path d="M246.32 46.6807L246.363 61.5286L243.371 63.2556L243.329 48.4077L246.32 46.6807Z" fill="white"/>
<path d="M234.643 68.2926L233.038 67.3597L233.004 55.3047L234.609 56.2376L234.643 68.2926Z" fill="#CFD0D1"/>
<path d="M230.476 58.6232L228.871 57.6903L228.863 54.8975L230.469 55.8303L230.476 58.6232Z" fill="#CFD0D1"/>
<path d="M230.469 55.8311L228.863 54.8982L240.123 48.3975L241.728 49.3303L230.469 55.8311Z" fill="#CFD0D1"/>
<path d="M241.727 49.3311L241.735 52.1239L237.601 54.5107L237.635 66.5658L234.644 68.2929L234.61 56.2379L230.476 58.6247L230.468 55.8318L241.727 49.3311Z" fill="white"/>
<path d="M226.815 72.8137L225.21 71.8809L222.705 69.1904L224.31 70.1233L226.815 72.8137Z" fill="#CFD0D1"/>
<path d="M223.99 67.5572L222.385 66.6243C223.278 66.1085 223.963 65.4978 224.419 64.7803L226.024 65.7132C225.568 66.4306 224.883 67.0414 223.99 67.5572Z" fill="#CFD0D1"/>
<path d="M224.552 61.0039L226.157 61.9368C226.539 62.1588 226.724 62.6479 226.726 63.3953C226.728 64.207 226.502 64.9835 226.025 65.7127L224.42 64.7798C224.896 64.0507 225.123 63.2741 225.121 62.4624C225.119 61.715 224.934 61.2259 224.552 61.0039Z" fill="#CFD0D1"/>
<path d="M221.539 68.9731L219.934 68.0403L222.385 66.625L223.99 67.5579L221.539 68.9731Z" fill="#CFD0D1"/>
<path d="M226.918 57.7833L228.523 58.7162C228.136 58.4914 227.666 58.3931 227.107 58.4181C226.275 58.4682 225.277 58.8293 224.135 59.4889L222.529 58.5561C223.672 57.8964 224.67 57.5353 225.502 57.4852C226.061 57.4603 226.531 57.5585 226.918 57.7833Z" fill="#CFD0D1"/>
<path d="M218.525 62.7279L216.92 61.7951L222.529 58.5566L224.134 59.4895L218.525 62.7279Z" fill="#CFD0D1"/>
<path d="M218.567 77.5757L216.962 76.6428L216.92 61.7949L218.525 62.7278L218.567 77.5757Z" fill="#CFD0D1"/>
<path d="M227.112 67.861L230.013 70.9682L226.814 72.8153L224.309 70.1249L224.164 70.2088L221.546 71.7201L221.558 75.8498L218.567 77.5769L218.524 62.729L224.134 59.4906C225.276 58.831 226.274 58.4699 227.106 58.4198C227.959 58.3817 228.605 58.6305 229.064 59.1783C229.523 59.7022 229.755 60.549 229.758 61.6469C229.761 62.7452 229.535 63.8319 229.08 64.8835C228.605 65.9711 227.963 66.9396 227.112 67.861ZM226.024 65.7155C226.5 64.9863 226.727 64.2098 226.725 63.398C226.722 62.5627 226.492 62.05 226.013 61.8723C225.555 61.7065 224.869 61.8637 223.975 62.3795L221.524 63.7948L221.539 68.9748L223.99 67.5595C224.883 67.0437 225.568 66.433 226.024 65.7155Z" fill="white"/>
<path d="M279.82 39.4133L278.215 38.4804L284.696 34.7383L286.302 35.6712L279.82 39.4133Z" fill="#CFD0D1"/>
<path d="M276.839 43.9341L275.233 43.0012L275.191 28.1533L276.797 29.0862L276.839 43.9341Z" fill="#CFD0D1"/>
<path d="M276.797 29.0848L275.191 28.152L278.183 26.4248L279.788 27.3577L276.797 29.0848Z" fill="#CFD0D1"/>
<path d="M279.787 27.3584L279.822 39.4131L286.303 35.671L286.311 38.4642L276.838 43.9335L276.796 29.0856L279.787 27.3584Z" fill="white"/>
<path d="M272.352 46.5233L270.746 45.5905L269.595 43.0752L271.2 44.0081L272.352 46.5233Z" fill="#CFD0D1"/>
<path d="M266.164 44.284L264.559 43.3511L268.651 40.9883L270.256 41.9212L266.164 44.284Z" fill="#CFD0D1"/>
<path d="M270.255 41.9203L268.65 40.9874L266.577 36.4932L268.182 37.426L270.255 41.9203Z" fill="#CFD0D1"/>
<path d="M266.72 34.9007L265.115 33.9678L268.065 32.2646L269.67 33.1975L266.72 34.9007Z" fill="#CFD0D1"/>
<path d="M261.008 53.0709L259.402 52.138L265.115 33.9678L266.72 34.9007L261.008 53.0709Z" fill="#CFD0D1"/>
<path d="M269.67 33.1982L275.487 44.7118L272.351 46.5229L271.199 44.0076L265.195 47.4739L264.062 51.3085L261.008 53.0716L266.72 34.9014L269.67 33.1982ZM266.164 44.2845L270.257 41.9217L268.184 37.4274L266.164 44.2845Z" fill="white"/>
<path d="M259.019 49.7698L257.414 48.8369L259.331 49.7865L260.936 50.7194L259.019 49.7698Z" fill="#CFD0D1"/>
<path d="M257.15 42.6807L258.756 43.6136C258.84 43.6623 258.922 43.7171 259.002 43.778L257.396 42.8451C257.316 42.7842 257.234 42.7294 257.15 42.6807Z" fill="#CFD0D1"/>
<path d="M252.769 53.8035L251.164 52.8706C251.415 53.0163 251.7 53.1016 252.018 53.1251C252.643 53.1709 253.37 52.9422 254.16 52.4864C255.448 51.7428 256.547 50.5344 257.416 48.8369L259.021 49.7698C258.152 51.4673 257.053 52.6757 255.765 53.4193C254.976 53.8751 254.248 54.1038 253.623 54.058C253.306 54.0345 253.02 53.9491 252.769 53.8035Z" fill="#CFD0D1"/>
<path d="M258.981 39.4757L260.586 40.4086C260.029 40.0847 259.381 39.947 258.617 40.0088C257.722 40.0709 256.704 40.4201 255.582 41.0677L253.977 40.1348C255.098 39.4872 256.117 39.138 257.011 39.076C257.775 39.0141 258.424 39.1518 258.981 39.4757Z" fill="#CFD0D1"/>
<path d="M250.466 57.0963L248.861 56.1634C248.5 55.9537 248.181 55.67 247.904 55.311C247.298 54.4891 246.983 53.356 246.979 51.8761C246.974 50.3961 247.282 48.9034 247.881 47.3857C248.501 45.8564 249.33 44.4694 250.387 43.2131C251.445 41.9332 252.649 40.9033 253.978 40.1357L255.584 41.0686C254.254 41.8362 253.05 42.8661 251.993 44.146C250.935 45.4023 250.106 46.7893 249.487 48.3186C248.887 49.8362 248.58 51.329 248.584 52.8089C248.588 54.2889 248.903 55.422 249.509 56.2439C249.787 56.6028 250.105 56.8866 250.466 57.0963Z" fill="#CFD0D1"/>
<path d="M255.583 41.0684C256.705 40.4208 257.723 40.0716 258.618 40.0095C259.533 39.9354 260.283 40.1479 260.908 40.6238L259.003 43.78C258.127 43.1142 257.025 43.1768 255.737 43.9204C254.947 44.3762 254.221 44.987 253.599 45.7525C252.976 46.5184 252.479 47.379 252.128 48.299C251.798 49.2072 251.613 50.1504 251.616 51.0576C251.619 51.9888 251.808 52.6922 252.142 53.2165C252.497 53.7288 252.998 54.0137 253.622 54.0599C254.247 54.1057 254.974 53.877 255.764 53.4212C257.052 52.6776 258.151 51.4692 259.02 49.7717L260.937 50.7213C260.316 51.9404 259.57 53.0168 258.657 53.9978C257.745 54.9792 256.728 55.8058 255.606 56.4535C254.297 57.209 253.091 57.5703 252.03 57.5377C250.968 57.4807 250.135 57.0537 249.508 56.2436C248.902 55.4217 248.587 54.2887 248.583 52.8087C248.579 51.3287 248.887 49.836 249.486 48.3183C250.106 46.7891 250.934 45.4021 251.992 44.1458C253.049 42.8658 254.253 41.836 255.583 41.0684Z" fill="white"/>
<path d="M269.483 122.479L293.738 183.643L269.371 197.804L269.483 140.582V122.479Z" fill="#E9E8E6"/>
<path d="M269.481 140.582L269.369 197.803L244.842 183.643L269.481 122.479V140.582Z" fill="#B6B9BA"/>
<path d="M239.143 144.051L263.399 201.273L239.031 215.433L239.143 161.867V144.051Z" fill="#81D672"/>
<path d="M239.143 161.867L239.031 215.433L214.504 201.272L239.143 144.051V161.867Z" fill="#2C9A2C"/>
<path d="M233.052 218.904L208.692 233.066L208.798 179.497V141.966L233.052 218.904Z" fill="#F25A5A"/>
<path d="M208.805 179.502L208.693 233.067L184.166 218.907L208.805 141.972V179.502Z" fill="#DD4A4A"/>
</svg>
