<svg width="303" height="301" viewBox="0 0 303 301" fill="none" xmlns="http://www.w3.org/2000/svg">
<path d="M3.53477 190.464L13.3891 196.049L14.3533 147.132L3.39062 140.918L3.53477 190.464Z" fill="#C4C2C0"/>
<path d="M9.16992 104.592C5.91577 106.472 3.3125 111.004 3.3125 114.741L3.38863 140.918L14.3513 147.131L14.8649 121.085C14.8649 117.349 17.4682 112.817 20.7223 110.937L47.1676 95.6697L35.7923 89.2227L9.16992 104.592Z" fill="#D6D4D2"/>
<path d="M3.62607 222.394L12.7662 227.574L13.3875 196.049L3.5332 190.464L3.62607 222.394Z" fill="#E9E8E6"/>
<path d="M35.792 89.2224L47.1673 95.6695L91.8509 69.8738L80.4756 63.4268L35.792 89.2224Z" fill="#C4C2C0"/>
<path d="M80.4756 63.4269L91.8509 69.874L132.009 46.6903L120.634 40.2432L80.4756 63.4269Z" fill="#D6D4D2"/>
<path d="M160.378 19.3089C159.318 18.6826 157.823 18.7789 156.184 19.7186L120.632 40.2434L132.007 46.6905L167.736 26.0631C169.375 25.0994 168.457 23.8625 169.518 24.4893L160.378 19.3089Z" fill="#E9E8E6"/>
<path d="M171.529 135.906L12.7575 227.577L12.4385 119.921C12.4385 116.179 15.0494 111.653 18.2985 109.768L165.321 24.8846C168.57 22.9992 171.21 24.5078 171.239 28.2498L171.529 135.906Z" fill="#494846"/>
<path d="M12.7646 227.571L12.8128 237.792L105.882 291.818C109.112 293.698 114.343 293.698 117.597 291.818L264.614 206.945C266.253 206.004 267.072 204.751 267.072 203.522L267.024 193.39C267.024 194.619 266.204 195.848 264.565 196.788L12.7646 227.571Z" fill="#B2B0AF"/>
<path d="M267.025 193.389C267.025 194.618 266.205 195.847 264.566 196.787L48.0723 223.253V258.258L105.883 291.817C109.113 293.697 114.344 293.697 117.598 291.817L264.614 206.943C266.253 206.003 267.073 204.75 267.073 203.52L267.025 193.389Z" fill="#C4C2C0"/>
<path d="M267.023 193.389C267.023 194.618 266.203 195.847 264.564 196.787L87.8145 218.394V281.33L105.881 291.817C109.111 293.697 114.342 293.697 117.596 291.817L264.612 206.943C266.251 206.003 267.071 204.75 267.071 203.52L267.023 193.389Z" fill="#D6D4D2"/>
<path d="M267.027 193.389C267.027 194.618 266.207 195.847 264.568 196.787L147.663 211.079V274.461L264.616 206.943C266.255 206.003 267.075 204.75 267.075 203.52L267.027 193.389Z" fill="#C4C2C0"/>
<path d="M267.023 193.389C267.023 194.618 266.203 195.847 264.564 196.787L231.716 200.803V225.935L264.612 206.943C266.251 206.003 267.071 204.75 267.071 203.52L267.023 193.389Z" fill="#B2B0AF"/>
<path d="M12.7754 227.566L105.847 281.653C109.073 283.528 114.319 283.528 117.567 281.653L264.574 196.778C267.837 194.894 267.854 191.856 264.628 189.981L171.556 135.894L12.7754 227.566Z" fill="#E9E8E6"/>
<path d="M156.319 160.454C156.055 160.606 156.054 160.866 156.315 161.018L163.079 164.949C163.34 165.101 163.79 165.101 164.053 164.949L170.842 161.029C171.124 160.866 171.107 160.617 170.845 160.465L164.082 156.534C163.82 156.382 163.389 156.371 163.107 156.534L156.319 160.454Z" fill="#494846"/>
<path d="M144.436 167.315C144.154 167.478 144.171 167.727 144.433 167.879L151.196 171.81C151.458 171.962 151.889 171.973 152.171 171.81L158.96 167.89C159.223 167.738 159.225 167.478 158.963 167.326L152.2 163.395C151.938 163.243 151.488 163.243 151.225 163.395L144.436 167.315Z" fill="#494846"/>
<path d="M132.529 174.19C132.266 174.342 132.265 174.603 132.526 174.755L139.29 178.685C139.551 178.837 140.001 178.838 140.264 178.685L147.072 174.755C147.335 174.603 147.318 174.353 147.056 174.201L140.293 170.271C140.031 170.119 139.6 170.108 139.337 170.26L132.529 174.19Z" fill="#494846"/>
<path d="M163.144 170.565C162.862 170.728 162.861 170.967 163.141 171.13L169.886 175.05C170.147 175.202 170.578 175.212 170.86 175.05L182.952 168.068C183.234 167.905 183.217 167.656 182.956 167.504L176.211 163.584C175.931 163.421 175.518 163.421 175.236 163.584L163.144 170.565Z" fill="#494846"/>
<path d="M151.072 177.533C150.808 177.685 150.788 177.935 151.069 178.098L157.813 182.017C158.075 182.169 158.525 182.169 158.788 182.017L165.577 178.098C165.859 177.935 165.842 177.685 165.58 177.533L158.835 173.613C158.555 173.45 158.143 173.45 157.861 173.613L151.072 177.533Z" fill="#494846"/>
<path d="M138.923 184.546C138.66 184.698 138.64 184.948 138.92 185.111L145.665 189.03C145.926 189.182 146.376 189.182 146.64 189.03L153.447 185.1C153.71 184.948 153.693 184.698 153.431 184.546L146.687 180.626C146.407 180.464 145.994 180.464 145.731 180.616L138.923 184.546Z" fill="#494846"/>
<path d="M126.775 191.563C126.512 191.715 126.491 191.965 126.772 192.128L133.516 196.047C133.778 196.199 134.228 196.199 134.491 196.047L141.299 192.117C141.562 191.965 141.563 191.704 141.302 191.552L134.557 187.633C134.277 187.47 133.846 187.481 133.582 187.633L126.775 191.563Z" fill="#494846"/>
<path d="M114.626 198.575C114.363 198.727 114.343 198.977 114.623 199.139L121.368 203.059C121.63 203.211 122.079 203.211 122.343 203.059L129.15 199.129C129.414 198.977 129.415 198.716 129.153 198.564L122.409 194.644C122.128 194.482 121.697 194.492 121.434 194.644L114.626 198.575Z" fill="#494846"/>
<path d="M102.495 205.581C102.213 205.743 102.211 205.982 102.492 206.145L109.236 210.065C109.498 210.217 109.929 210.228 110.211 210.065L117 206.145C117.263 205.993 117.265 205.733 117.003 205.581L110.258 201.661C109.978 201.498 109.547 201.509 109.284 201.661L102.495 205.581Z" fill="#494846"/>
<path d="M90.3472 212.592C90.0651 212.755 90.0638 212.994 90.3441 213.157L97.0888 217.076C97.3503 217.228 97.7814 217.239 98.0635 217.076L104.852 213.157C105.116 213.005 105.117 212.744 104.855 212.592L98.1107 208.673C97.8305 208.51 97.3993 208.521 97.136 208.673L90.3472 212.592Z" fill="#494846"/>
<path d="M78.1978 219.608C77.9157 219.771 77.9144 220.01 78.1946 220.173L84.9393 224.092C85.2009 224.244 85.632 224.255 85.9141 224.092L92.7029 220.173C92.985 220.01 92.9677 219.76 92.7061 219.608L85.9614 215.689C85.6812 215.526 85.2688 215.526 84.9867 215.689L78.1978 219.608Z" fill="#494846"/>
<path d="M120.647 181.049C120.365 181.212 120.382 181.462 120.644 181.614L127.407 185.544C127.669 185.696 128.1 185.707 128.382 185.544L135.171 181.625C135.453 181.462 135.435 181.212 135.174 181.06L128.41 177.13C128.149 176.978 127.718 176.967 127.436 177.13L120.647 181.049Z" fill="#494846"/>
<path d="M108.74 187.926C108.477 188.078 108.476 188.339 108.737 188.491L115.501 192.421C115.762 192.573 116.212 192.573 116.475 192.421L123.283 188.491C123.546 188.339 123.548 188.078 123.286 187.926L116.523 183.996C116.261 183.844 115.811 183.844 115.548 183.996L108.74 187.926Z" fill="#494846"/>
<path d="M96.8557 194.785C96.5923 194.937 96.5909 195.197 96.8525 195.349L103.616 199.28C103.877 199.432 104.327 199.432 104.591 199.28L111.379 195.36C111.661 195.197 111.644 194.948 111.383 194.796L104.619 190.865C104.358 190.713 103.927 190.702 103.644 190.865L96.8557 194.785Z" fill="#494846"/>
<path d="M84.973 201.646C84.691 201.809 84.7083 202.058 84.9699 202.21L91.7333 206.141C91.9949 206.293 92.4259 206.304 92.7079 206.141L99.4968 202.221C99.76 202.069 99.7615 201.809 99.5 201.657L92.7366 197.726C92.475 197.574 92.0251 197.574 91.7618 197.726L84.973 201.646Z" fill="#494846"/>
<path d="M73.0666 208.521C72.8033 208.674 72.8019 208.934 73.0634 209.086L79.8268 213.017C80.0884 213.169 80.5382 213.169 80.8015 213.017L87.6091 209.086C87.8724 208.934 87.855 208.684 87.5935 208.532L80.8301 204.602C80.5685 204.45 80.1375 204.439 79.8742 204.591L73.0666 208.521Z" fill="#494846"/>
<path d="M61.184 215.38C60.9019 215.543 60.9193 215.793 61.1808 215.945L67.9442 219.875C68.2058 220.027 68.6368 220.038 68.9189 219.875L75.7077 215.956C75.9898 215.793 75.9724 215.543 75.7109 215.391L68.9475 211.461C68.6859 211.309 68.2549 211.298 67.9728 211.461L61.184 215.38Z" fill="#494846"/>
<path d="M49.2775 222.257C49.0143 222.409 49.0127 222.67 49.2743 222.822L56.0377 226.752C56.2993 226.904 56.7492 226.904 57.0124 226.752L63.82 222.822C64.0833 222.67 64.0848 222.409 63.8232 222.257L57.0599 218.327C56.7983 218.175 56.3483 218.175 56.0851 218.327L49.2775 222.257Z" fill="#494846"/>
<path d="M61.4047 229.302C61.1415 229.454 61.1213 229.704 61.4015 229.866L68.1462 233.786C68.4078 233.938 68.8577 233.938 69.1209 233.786L81.2318 226.794C81.5138 226.631 81.4964 226.381 81.2349 226.229L74.4902 222.31C74.2099 222.147 73.7975 222.147 73.5156 222.31L61.4047 229.302Z" fill="#494846"/>
<path d="M169.871 180.707C169.607 180.859 169.587 181.108 169.867 181.271L176.612 185.191C176.892 185.354 177.323 185.343 177.587 185.191L195.057 175.104C195.339 174.942 195.341 174.703 195.06 174.54L188.316 170.62C188.035 170.457 187.623 170.457 187.341 170.62L169.871 180.707Z" fill="#494846"/>
<path d="M156.764 188.273C156.501 188.425 156.481 188.674 156.761 188.837L163.506 192.757C163.786 192.92 164.217 192.909 164.48 192.757L171.288 188.826C171.551 188.674 171.553 188.435 171.272 188.273L164.528 184.353C164.247 184.19 163.835 184.19 163.572 184.342L156.764 188.273Z" fill="#494846"/>
<path d="M144.877 195.135C144.595 195.298 144.594 195.537 144.874 195.7L151.619 199.62C151.899 199.782 152.312 199.782 152.594 199.62L159.383 195.7C159.665 195.537 159.666 195.298 159.386 195.135L152.641 191.216C152.361 191.053 151.948 191.053 151.666 191.216L144.877 195.135Z" fill="#494846"/>
<path d="M132.975 202.006C132.712 202.159 132.692 202.408 132.972 202.571L139.717 206.491C139.997 206.654 140.428 206.643 140.691 206.491L147.499 202.56C147.762 202.408 147.782 202.159 147.502 201.996L140.757 198.076C140.477 197.913 140.046 197.924 139.783 198.076L132.975 202.006Z" fill="#494846"/>
<path d="M121.091 208.871C120.828 209.023 120.808 209.272 121.088 209.435L127.833 213.355C128.113 213.518 128.544 213.507 128.808 213.355L135.596 209.435C135.878 209.273 135.88 209.034 135.599 208.871L128.855 204.951C128.575 204.788 128.162 204.788 127.88 204.951L121.091 208.871Z" fill="#494846"/>
<path d="M109.204 215.732C108.922 215.895 108.92 216.134 109.201 216.297L115.945 220.216C116.225 220.379 116.638 220.379 116.92 220.216L123.709 216.297C123.972 216.145 123.992 215.895 123.712 215.732L116.967 211.812C116.687 211.65 116.256 211.66 115.992 211.812L109.204 215.732Z" fill="#494846"/>
<path d="M97.3022 222.603C97.0389 222.755 97.0188 223.004 97.299 223.167L104.044 227.087C104.324 227.25 104.755 227.239 105.018 227.087L111.826 223.156C112.089 223.004 112.091 222.766 111.81 222.603L105.066 218.683C104.785 218.52 104.373 218.52 104.11 218.672L97.3022 222.603Z" fill="#494846"/>
<path d="M73.5131 236.339C73.2499 236.491 73.2297 236.74 73.5099 236.903L80.2546 240.823C80.5349 240.986 80.9661 240.975 81.2293 240.823L100.167 229.89C100.449 229.727 100.45 229.488 100.17 229.325L93.4251 225.405C93.1448 225.242 92.7324 225.242 92.4503 225.405L73.5131 236.339Z" fill="#494846"/>
<path d="M181.55 187.489C181.287 187.641 181.267 187.891 181.547 188.054L188.292 191.973C188.572 192.136 189.003 192.125 189.266 191.973L206.737 181.887C207.019 181.724 207.02 181.485 206.74 181.322L199.995 177.402C199.715 177.24 199.303 177.24 199.021 177.402L181.55 187.489Z" fill="#494846"/>
<path d="M183.993 195.019L117.227 233.57C116.955 233.718 116.536 233.743 116.24 233.57L109.507 229.648C109.211 229.5 109.235 229.229 109.507 229.081L176.273 190.53C176.545 190.383 176.964 190.358 177.26 190.53L183.993 194.452C184.289 194.625 184.265 194.871 183.993 195.019Z" fill="#494846"/>
<path d="M63.8136 224.027L57.0106 227.945C56.7676 228.097 56.3122 228.097 56.0388 227.945L49.2662 224.027C49.1446 223.936 49.084 223.845 49.084 223.754V222.539C49.084 222.63 49.1446 222.752 49.2662 222.812L56.0388 226.761C56.3122 226.912 56.7372 226.912 57.0106 226.761L63.8136 222.812C63.9654 222.752 64.0262 222.63 64.0262 222.539V223.724C64.0262 223.845 63.9654 223.936 63.8136 224.027Z" fill="#21201F"/>
<path d="M61.1715 217.135C61.0501 217.075 60.9893 216.984 60.9893 216.862V215.678C60.9893 215.769 61.0501 215.86 61.1715 215.951L67.944 219.869C68.2174 220.021 68.6427 220.051 68.9159 219.869L75.7189 215.951C75.8405 215.89 75.9011 215.769 75.9011 215.678V216.893C75.9011 216.984 75.8405 217.075 75.7189 217.166L68.9159 221.084C68.6427 221.236 68.2174 221.236 67.944 221.084L61.1715 217.135Z" fill="#21201F"/>
<path d="M84.9802 203.407C84.8282 203.346 84.7676 203.225 84.7676 203.134V201.919C84.7676 202.04 84.8282 202.131 84.9802 202.223L91.7223 206.14C91.9958 206.292 92.4208 206.292 92.6942 206.14L99.4972 202.223C99.6188 202.162 99.6794 202.04 99.6794 201.949L99.7098 203.134C99.7098 203.255 99.6188 203.346 99.4972 203.437L92.6942 207.355C92.4208 207.507 91.9958 207.507 91.7223 207.355L84.9802 203.407Z" fill="#21201F"/>
<path d="M110.22 210.059L116.992 206.141C117.144 206.081 117.205 205.959 117.205 205.868V207.052C117.205 207.174 117.144 207.265 116.992 207.356L110.22 211.274C109.946 211.426 109.491 211.426 109.248 211.274L102.506 207.356C102.354 207.265 102.293 207.174 102.293 207.052V205.868C102.293 205.959 102.354 206.05 102.506 206.141L109.248 210.059C109.491 210.211 109.916 210.242 110.22 210.059Z" fill="#21201F"/>
<path d="M110.584 237.271L110.614 238.425C110.614 238.546 110.523 238.637 110.402 238.698L92.9081 248.811C92.6347 248.963 92.2096 248.963 91.9362 248.811L85.1941 244.894C85.0421 244.803 84.9814 244.711 84.9814 244.62V243.405C84.9814 243.496 85.0421 243.618 85.1941 243.679L91.9362 247.597C92.2096 247.779 92.6347 247.748 92.9081 247.597L110.402 237.514C110.493 237.422 110.584 237.362 110.584 237.271Z" fill="#21201F"/>
<path d="M108.729 189.681C108.608 189.621 108.547 189.53 108.547 189.408V188.224C108.547 188.315 108.608 188.406 108.729 188.497L115.502 192.415C115.775 192.567 116.2 192.567 116.474 192.415L123.277 188.497C123.428 188.406 123.489 188.315 123.489 188.193V189.408C123.489 189.499 123.428 189.621 123.277 189.681L116.474 193.63C116.2 193.781 115.775 193.781 115.502 193.63L108.729 189.681Z" fill="#21201F"/>
<path d="M73.0769 210.302C72.9251 210.211 72.8643 210.119 72.8643 209.998V208.813C72.8643 208.905 72.9251 209.026 73.0769 209.087L79.8192 213.005C80.0924 213.156 80.5481 213.156 80.7911 213.005L87.6245 209.087C87.7459 209.026 87.8067 208.905 87.8067 208.813V210.028C87.8067 210.119 87.7459 210.211 87.6245 210.302L80.8215 214.22C80.5481 214.371 80.0924 214.371 79.8192 214.22L73.0769 210.302Z" fill="#21201F"/>
<path d="M97.3142 224.364C97.1622 224.303 97.1016 224.182 97.1016 224.091V222.906C97.1016 222.997 97.1622 223.089 97.2838 223.18L104.056 227.098C104.33 227.249 104.755 227.249 105.028 227.098L111.831 223.149C111.953 223.089 112.013 222.997 112.013 222.876V224.091C112.013 224.182 111.953 224.273 111.831 224.364L105.028 228.282C104.755 228.434 104.33 228.464 104.056 228.282L97.3142 224.364Z" fill="#21201F"/>
<path d="M96.673 196.272L96.6426 195.088C96.6426 195.179 96.7338 195.27 96.8552 195.361L103.628 199.279C103.871 199.431 104.326 199.431 104.6 199.279L111.372 195.361C111.524 195.27 111.585 195.179 111.585 195.088V196.272C111.585 196.394 111.524 196.485 111.372 196.576L104.6 200.494C104.326 200.646 103.871 200.646 103.628 200.494L96.8552 196.546C96.7338 196.485 96.673 196.363 96.673 196.272Z" fill="#21201F"/>
<path d="M85.922 224.089L92.6945 220.171C92.8463 220.08 92.9071 219.988 92.9071 219.897V221.082C92.9071 221.203 92.8463 221.294 92.6945 221.386L85.922 225.303C85.6485 225.455 85.1931 225.455 84.9501 225.303L78.2077 221.386C78.0559 221.294 77.9951 221.203 77.9951 221.082V219.897C77.9951 219.988 78.0559 220.08 78.2077 220.171L84.9501 224.089C85.1931 224.24 85.6181 224.24 85.922 224.089Z" fill="#21201F"/>
<path d="M81.2476 228.007L69.1298 234.992C68.8565 235.144 68.4009 235.144 68.1579 234.992L61.4157 231.074C61.2639 230.983 61.2031 230.892 61.2031 230.801V229.586C61.2031 229.677 61.2639 229.799 61.4157 229.859L68.1579 233.777C68.4009 233.929 68.8565 233.929 69.1298 233.777L81.2476 226.792C81.3692 226.701 81.4298 226.61 81.4298 226.519V227.703C81.4298 227.824 81.3692 227.916 81.2476 228.007Z" fill="#21201F"/>
<path d="M97.0985 218.292L90.3562 214.374C90.2043 214.283 90.1436 214.192 90.1436 214.07V212.886C90.1436 212.977 90.2043 213.068 90.3562 213.159L97.0985 217.077C97.3415 217.229 97.7666 217.229 98.0704 217.077L104.843 213.159C104.995 213.098 105.056 212.977 105.056 212.886V214.07C105.056 214.192 104.995 214.283 104.843 214.374L98.0704 218.292C97.797 218.443 97.3415 218.443 97.0985 218.292Z" fill="#21201F"/>
<path d="M100.165 231.107L81.2136 242.041C80.9708 242.192 80.5456 242.192 80.2419 242.041L73.4996 238.092C73.3782 238.032 73.3174 237.941 73.3174 237.819V236.635C73.3174 236.726 73.3782 236.817 73.4996 236.908L80.2419 240.826C80.5456 240.978 80.9708 240.978 81.2136 240.826L100.165 229.892C100.317 229.801 100.378 229.71 100.378 229.619V230.803C100.378 230.895 100.317 231.016 100.165 231.107Z" fill="#21201F"/>
<path d="M115.96 221.418L109.217 217.5C109.066 217.409 109.005 217.318 109.005 217.227V216.012C109.005 216.103 109.066 216.224 109.187 216.285L115.96 220.203C116.233 220.385 116.628 220.385 116.932 220.203L123.704 216.285C123.856 216.224 123.917 216.103 123.917 216.012V217.227C123.917 217.318 123.856 217.409 123.704 217.5L116.932 221.418C116.628 221.57 116.233 221.57 115.96 221.418Z" fill="#21201F"/>
<path d="M132.544 175.951C132.392 175.89 132.331 175.769 132.331 175.678V174.463C132.331 174.584 132.392 174.676 132.544 174.767L139.286 178.684C139.559 178.836 140.015 178.836 140.258 178.684L147.061 174.767C147.213 174.676 147.273 174.584 147.273 174.493V175.678C147.273 175.799 147.213 175.89 147.091 175.951L140.258 179.899C140.015 180.051 139.559 180.051 139.286 179.899L132.544 175.951Z" fill="#21201F"/>
<path d="M151.615 200.827L144.873 196.909C144.751 196.818 144.66 196.727 144.66 196.636V195.421C144.66 195.512 144.751 195.634 144.873 195.694L151.615 199.612C151.888 199.794 152.314 199.794 152.587 199.612L159.39 195.694C159.511 195.634 159.603 195.512 159.603 195.421V196.605C159.603 196.727 159.542 196.818 159.39 196.909L152.587 200.827C152.314 200.979 151.919 200.979 151.615 200.827Z" fill="#21201F"/>
<path d="M127.836 214.552L121.093 210.634C120.941 210.543 120.881 210.452 120.881 210.36V209.146C120.881 209.267 120.941 209.358 121.093 209.419L127.836 213.367C128.109 213.519 128.534 213.519 128.808 213.367L135.61 209.419C135.701 209.358 135.793 209.267 135.793 209.176L135.823 210.36C135.823 210.452 135.732 210.543 135.61 210.634L128.808 214.552C128.534 214.703 128.109 214.703 127.836 214.552Z" fill="#21201F"/>
<path d="M134.486 196.058L141.289 192.11C141.441 192.05 141.502 191.928 141.502 191.837V193.021C141.502 193.143 141.441 193.234 141.289 193.325L134.486 197.243C134.243 197.395 133.788 197.395 133.514 197.243L126.772 193.325C126.651 193.264 126.56 193.143 126.56 193.052V191.837C126.56 191.958 126.62 192.05 126.772 192.141L133.514 196.058C133.788 196.21 134.213 196.21 134.486 196.058Z" fill="#21201F"/>
<path d="M122.338 203.074L129.141 199.126C129.293 199.065 129.353 198.944 129.353 198.853V200.037C129.353 200.158 129.293 200.249 129.141 200.341L122.338 204.258C122.095 204.41 121.639 204.41 121.366 204.258L114.624 200.341C114.502 200.249 114.411 200.158 114.411 200.067V198.853C114.411 198.974 114.472 199.065 114.624 199.156L121.366 203.074C121.639 203.226 122.064 203.226 122.338 203.074Z" fill="#21201F"/>
<path d="M139.711 207.691L132.968 203.773C132.847 203.682 132.786 203.591 132.786 203.5L132.756 202.285C132.756 202.407 132.847 202.498 132.968 202.589L139.711 206.507C139.984 206.659 140.439 206.659 140.683 206.507L147.485 202.558C147.637 202.498 147.698 202.376 147.698 202.285V203.469C147.698 203.591 147.637 203.682 147.516 203.773L140.683 207.691C140.439 207.843 140.014 207.843 139.711 207.691Z" fill="#21201F"/>
<path d="M144.448 169.091C144.296 169 144.235 168.908 144.235 168.817V167.603C144.235 167.694 144.296 167.815 144.418 167.876L151.19 171.824C151.464 171.976 151.889 171.976 152.162 171.824L158.965 167.906C159.087 167.815 159.147 167.724 159.147 167.603V168.817C159.147 168.908 159.087 169.03 158.965 169.091L152.162 173.009C151.889 173.191 151.464 173.16 151.19 173.009L144.448 169.091Z" fill="#21201F"/>
<path d="M120.638 182.816C120.517 182.755 120.456 182.634 120.456 182.543V181.328C120.456 181.45 120.517 181.541 120.638 181.632L127.411 185.55C127.684 185.701 128.109 185.701 128.383 185.55L135.186 181.632C135.307 181.541 135.368 181.45 135.368 181.359V182.543C135.368 182.634 135.307 182.755 135.186 182.816L128.383 186.734C128.109 186.916 127.684 186.886 127.411 186.734L120.638 182.816Z" fill="#21201F"/>
<path d="M146.635 189.041L153.438 185.093C153.529 185.032 153.62 184.971 153.62 184.88L153.65 186.034C153.65 186.125 153.589 186.216 153.438 186.307L146.635 190.225C146.392 190.377 145.936 190.377 145.663 190.225L138.92 186.307C138.799 186.247 138.708 186.125 138.708 186.034V184.819C138.708 184.941 138.769 185.032 138.92 185.123L145.663 189.041C145.936 189.193 146.361 189.193 146.635 189.041Z" fill="#21201F"/>
<path d="M156.14 161.952L156.109 160.737C156.109 160.859 156.2 160.95 156.322 161.011L163.095 164.959C163.338 165.111 163.793 165.111 164.066 164.959L170.839 161.041C170.991 160.95 171.052 160.859 171.052 160.737V161.952C171.052 162.043 170.991 162.165 170.839 162.226L164.066 166.143C163.793 166.295 163.338 166.295 163.095 166.143L156.322 162.226C156.2 162.134 156.14 162.043 156.14 161.952Z" fill="#21201F"/>
<path d="M157.811 183.213L151.069 179.296C150.947 179.235 150.856 179.114 150.856 179.022V177.838C150.856 177.929 150.917 178.02 151.069 178.111L157.811 182.029C158.085 182.181 158.51 182.181 158.783 182.029L165.586 178.111C165.707 178.02 165.768 177.929 165.768 177.808L165.799 179.022C165.799 179.114 165.707 179.235 165.586 179.296L158.783 183.213C158.54 183.365 158.085 183.365 157.811 183.213Z" fill="#21201F"/>
<path d="M183.99 195.026C184.141 194.934 184.202 194.843 184.202 194.722V195.937C184.202 196.028 184.141 196.149 183.99 196.21L117.235 234.78C116.962 234.932 116.537 234.932 116.264 234.78L109.491 230.863C109.369 230.772 109.309 230.68 109.309 230.559V229.374C109.309 229.466 109.369 229.587 109.491 229.648L116.233 233.566C116.537 233.748 116.962 233.717 117.235 233.566L183.99 195.026Z" fill="#21201F"/>
<path d="M163.519 193.961L156.777 190.043C156.625 189.952 156.564 189.861 156.564 189.77V188.555C156.564 188.646 156.625 188.767 156.747 188.828L163.519 192.746C163.792 192.928 164.218 192.898 164.491 192.746L171.294 188.828C171.415 188.737 171.476 188.646 171.476 188.555V189.77C171.476 189.861 171.415 189.952 171.294 190.012L164.491 193.961C164.218 194.113 163.792 194.113 163.519 193.961Z" fill="#21201F"/>
<path d="M170.868 175.042L182.955 168.057C183.077 167.996 183.168 167.874 183.168 167.783V168.998C183.168 169.089 183.107 169.18 182.955 169.271L170.868 176.257C170.564 176.408 170.139 176.408 169.896 176.257L163.154 172.339C163.002 172.248 162.941 172.157 162.941 172.035V170.851C162.941 170.942 163.002 171.063 163.124 171.124L169.896 175.042C170.139 175.194 170.564 175.224 170.868 175.042Z" fill="#21201F"/>
<path d="M177.582 185.186L195.045 175.103C195.197 175.011 195.258 174.92 195.258 174.829L195.288 176.014C195.288 176.135 195.197 176.226 195.075 176.317L177.582 186.4C177.339 186.552 176.883 186.552 176.61 186.4L169.868 182.483C169.746 182.391 169.655 182.3 169.655 182.179V180.994C169.655 181.085 169.746 181.177 169.868 181.268L176.61 185.186C176.883 185.368 177.339 185.337 177.582 185.186Z" fill="#21201F"/>
<path d="M206.952 181.602V182.816C206.952 182.907 206.891 182.998 206.739 183.09L189.276 193.173C189.003 193.325 188.578 193.325 188.304 193.173L181.562 189.255C181.41 189.164 181.35 189.073 181.35 188.982V187.767C181.35 187.888 181.41 187.979 181.562 188.07L188.304 191.988C188.578 192.14 189.003 192.14 189.276 191.988L206.739 181.875C206.891 181.814 206.952 181.693 206.952 181.602Z" fill="#21201F"/>
<path d="M85.1879 243.126C84.9247 243.278 84.9045 243.527 85.1847 243.69L91.9294 247.61C92.2097 247.773 92.6409 247.762 92.9042 247.61L110.393 237.512C110.657 237.36 110.677 237.111 110.397 236.948L103.652 233.028C103.372 232.865 102.94 232.876 102.677 233.028L85.1879 243.126Z" fill="#494846"/>
<path d="M158.483 149.652C160.996 148.202 165.084 148.202 167.58 149.652L219.706 179.945C222.202 181.395 222.189 183.763 219.676 185.214L97.5609 255.717C95.0484 257.168 90.9605 257.168 88.4643 255.717L36.3381 225.425C33.8419 223.974 33.8552 221.606 36.3677 220.156L158.483 149.652ZM90.5149 254.533C91.8915 255.333 94.1381 255.333 95.5236 254.534L217.639 184.03C219.025 183.23 219.032 181.929 217.655 181.129L165.529 150.836C164.153 150.036 161.906 150.036 160.521 150.836L38.405 221.34C37.0195 222.14 37.0121 223.441 38.3887 224.241L90.5149 254.533Z" fill="#A0A8AA"/>
<path d="M186.199 235.453L160.738 250.238C159.344 251.05 157.67 251.05 156.301 250.263L140.071 240.881C138.575 240.044 138.575 237.913 140.02 237.051L165.506 222.267C166.875 221.456 168.574 221.456 169.944 222.242L186.199 231.625C187.669 232.461 187.669 234.592 186.199 235.453Z" fill="#A0A8AA"/>
<path d="M41.0039 210.498C41.2719 210.34 41.6374 210.364 42.0515 210.596C42.9164 211.095 43.5742 212.313 43.5742 213.288L163.8 143.757C163.8 142.783 163.142 141.565 162.289 141.077C161.875 140.834 161.498 140.822 161.23 140.98L41.0039 210.498Z" fill="#21201F"/>
<path d="M42.0559 210.596C41.2082 210.106 40.5369 210.551 40.5342 211.525L43.5752 213.281C43.578 212.307 42.9115 211.09 42.0559 210.596Z" fill="#383736"/>
<path d="M164.037 33.9844L164.016 34.0122V33.9983L164.037 33.9844Z" fill="white"/>
<path d="M166.566 33.998V29.585L17.1309 115.817L17.1583 126.259L166.583 40.0322L166.566 33.998Z" fill="white"/>
<path d="M17.1602 126.261L17.3924 215.08L17.4171 219.591L21.4716 217.132L166.852 133.211L166.585 40.0342L17.1602 126.261Z" fill="#3F9AE0"/>
<path d="M140.217 82.1561C143.135 80.4718 145.5 81.8196 145.509 85.1718C145.519 88.5241 143.169 92.5939 140.252 94.2782L50.6406 146.015C47.7234 147.7 45.3582 146.352 45.3487 143C45.3392 139.647 47.689 135.577 50.6063 133.893L140.217 82.1561Z" fill="#0074D1"/>
<path d="M193.616 181.589L108.235 231.223C104.464 233.409 99.2771 233.109 93.5338 229.809C82.1753 223.251 72.9169 207.263 72.9598 194.19L73.0456 164.273C73.0885 154.457 66.1878 142.542 57.701 137.656L54.958 136.07L140.382 86.4355L143.125 88.0214C151.612 92.9078 158.512 104.823 158.47 114.596L158.384 144.556C158.341 157.629 167.556 173.617 178.958 180.175C184.701 183.475 189.887 183.775 193.616 181.589Z" fill="#F2F2F2"/>
<path d="M196.166 185.959L110.744 235.601C115.094 233.073 117.795 227.706 117.817 220.086L203.238 170.444C203.217 178.064 200.516 183.432 196.166 185.959Z" fill="#D6D4D2"/>
<path d="M117.822 219.046L203.244 169.404L203.241 170.442L117.819 220.083L117.822 219.046Z" fill="#D6D4D2"/>
<path d="M122.902 207.903L208.324 158.262C205.199 160.078 203.258 163.93 203.242 169.406L117.82 219.048C117.836 213.572 119.777 209.719 122.902 207.903Z" fill="#D6D4D2"/>
<path d="M184.945 282.591L270.367 232.949L270.355 237.062L184.934 286.703L184.945 282.591Z" fill="#C4C2C0"/>
<path d="M57.6906 137.647C66.2028 142.561 73.0802 154.473 73.0524 164.254L72.9676 194.19C72.9305 207.269 82.154 223.245 93.5357 229.816C104.917 236.387 114.201 231.096 114.238 218.018L114.241 216.981C114.279 203.68 123.757 198.279 135.332 204.962C146.939 211.663 156.324 227.954 156.286 241.255L156.244 256.186C156.228 261.595 160.053 268.219 164.76 270.937L184.944 282.59L184.932 286.703L164.748 275.05C158.074 271.196 152.643 261.789 152.665 254.12L152.707 239.189C152.738 228.148 144.929 214.659 135.32 209.111C125.712 203.564 117.852 208.006 117.82 219.047L117.817 220.084C117.774 235.423 106.873 241.635 93.5241 233.928C80.1755 226.222 69.3453 207.463 69.3888 192.124L69.4736 162.188C69.495 154.667 64.2243 145.538 57.6789 141.759L54.9385 140.177L54.9501 136.064L57.6906 137.647Z" fill="#B2B0AF"/>
<path d="M120.388 203.518L205.81 153.877C209.637 151.653 214.93 151.956 220.755 155.319C232.363 162.02 241.747 178.311 241.709 191.612L156.287 241.254C156.325 227.953 146.941 211.662 135.333 204.96C129.508 201.597 124.215 201.294 120.388 203.518Z" fill="#F2F2F2"/>
<path d="M205.809 153.88L120.388 203.522C121.943 202.618 123.751 202.156 125.728 202.122L211.151 152.48C209.173 152.514 207.365 152.976 205.809 153.88Z" fill="#D6D4D2"/>
<path d="M270.384 232.939L184.96 282.573L164.772 270.957C160.057 268.214 156.242 261.614 156.242 256.17L156.285 241.254C156.328 227.967 146.941 211.679 135.326 204.95C131.897 202.978 128.597 202.078 125.725 202.121L211.149 152.487C214.02 152.444 217.321 153.344 220.75 155.316C232.365 162.002 241.752 178.333 241.709 191.62L241.666 206.536C241.666 211.936 245.481 218.58 250.196 221.28L270.384 232.939Z" fill="#F2F2F2"/>
<path d="M260.567 232.209L183.716 276.871L180.158 274.856L257.01 230.151L260.567 232.209Z" fill="#D6D4D2"/>
<path d="M246.427 223.936L169.446 268.684L166.918 267.227C166.618 267.055 166.318 266.841 166.018 266.584L243.683 221.45C244.541 222.393 245.441 223.207 246.427 223.936Z" fill="#D6D4D2"/>
<path d="M238.324 212.193L160.615 257.37C160.572 256.941 160.529 256.555 160.529 256.169V253.298L237.509 208.55C237.638 209.75 237.938 210.993 238.324 212.193Z" fill="#D6D4D2"/>
<path d="M237.422 192.173V196.245L160.571 240.907C160.571 239.621 160.485 238.335 160.271 237.007L237.422 192.173Z" fill="#D6D4D2"/>
<path d="M235.454 180.946L157.573 226.208C157.188 225.094 156.716 223.979 156.159 222.908L234.168 177.603C234.639 178.717 235.068 179.831 235.454 180.946Z" fill="#D6D4D2"/>
<path d="M202.185 183.733L150.757 213.648C150.071 212.705 149.343 211.762 148.614 210.862L199.956 180.947C200.771 181.847 201.5 182.747 202.185 183.733Z" fill="#D6D4D2"/>
<path d="M190.998 173.79L140.47 203.19C139.484 202.462 138.499 201.819 137.47 201.219C137.384 201.176 137.255 201.133 137.17 201.047L186.583 172.29C187.998 172.547 189.498 173.019 190.998 173.79Z" fill="#D6D4D2"/>
<path d="M148.956 99.5077L70.9469 144.856C70.3039 143.827 69.6182 142.884 68.8896 141.941L146.77 96.6787C147.541 97.5789 148.27 98.522 148.956 99.5077Z" fill="#D6D4D2"/>
<path d="M154.139 125.312V129.384L77.2871 174.047L77.33 169.975L154.139 125.312Z" fill="#D6D4D2"/>
<path d="M164.557 172.759L86.6344 218.022C85.9058 217.122 85.1772 216.136 84.5342 215.15L162.457 169.888C163.143 170.874 163.829 171.859 164.557 172.759Z" fill="#D6D4D2"/>
<path d="M157.444 160.414L79.5637 205.676C79.092 204.561 78.7493 203.404 78.4492 202.247L156.244 157.07C156.587 158.185 156.972 159.299 157.444 160.414Z" fill="#D6D4D2"/>
<path d="M154.142 145.844L77.248 190.549L77.291 186.435L154.1 141.772V144.559C154.1 144.987 154.1 145.416 154.142 145.844Z" fill="#D6D4D2"/>
<path d="M154.099 112.966L76.6042 157.971C76.3471 156.814 76.047 155.614 75.6611 154.457L153.456 109.237C153.799 110.523 154.013 111.766 154.099 112.966Z" fill="#D6D4D2"/>
<path d="M228.676 168.387L208.348 180.207C204.276 174.121 199.175 170.22 192.746 168.763L213.074 156.943C219.503 158.401 224.647 162.301 228.676 168.387Z" fill="#E19CBD"/>
<path d="M44.5452 105.174C44.5882 106.888 43.3882 108.989 41.8878 109.846C40.3878 110.703 39.2304 109.974 39.1875 108.26C39.1875 106.545 40.3878 104.531 41.8878 103.631C43.3882 102.774 44.5452 103.459 44.5452 105.174Z" fill="#F25A5A"/>
<path d="M36.186 110.017C36.186 111.732 34.9858 113.832 33.4857 114.689C31.9854 115.546 30.8283 114.818 30.8283 113.103C30.7854 111.432 31.9854 109.374 33.4857 108.517C34.9858 107.617 36.1431 108.303 36.186 110.017Z" fill="#F25A5A"/>
<path d="M27.7865 114.861C27.7865 116.575 26.5862 118.675 25.0861 119.533C23.6287 120.39 22.4287 119.704 22.4287 117.99C22.4287 116.275 23.5861 114.218 25.0861 113.36C26.5862 112.503 27.7865 113.146 27.7865 114.861Z" fill="#F25A5A"/>
<path d="M217.425 240.762L205.511 251.023L204.028 253.807L201.496 258.585L206.861 257.394L213.788 255.866L223.066 247.876L217.425 240.762Z" fill="#EFC348"/>
<path d="M213.566 235.898L205.51 251.025L217.423 240.764L213.566 235.898Z" fill="#FFD651"/>
<path d="M223.063 247.876L213.786 255.866L227.075 252.936L223.063 247.876Z" fill="#DDB040"/>
<path d="M282.385 205.874L229.663 251.632C226.288 254.551 220.23 253.045 216.128 248.293C212.026 243.542 211.427 237.325 214.799 234.419L267.467 188.706C264.136 191.622 264.769 197.818 268.851 202.536C272.952 207.287 279.01 208.794 282.385 205.874Z" fill="#F25A5A"/>
<path d="M268.848 202.537C267.71 201.222 266.851 199.791 266.26 198.35L213.542 244.106C214.131 245.547 214.988 246.977 216.126 248.295C217.116 249.441 218.221 250.394 219.373 251.146L272.094 205.388C270.942 204.636 269.838 203.683 268.848 202.537Z" fill="#DD4A4A"/>
<path d="M267.465 188.706L214.797 234.419C212.36 236.52 212.008 240.349 213.543 244.105L266.261 198.348C264.733 194.618 265.063 190.809 267.465 188.706Z" fill="#F25A5A"/>
<path d="M272.093 205.386L219.372 251.144C222.995 253.509 227.099 253.846 229.66 251.631L282.382 205.873C279.821 208.089 275.717 207.751 272.093 205.386Z" fill="#CC4848"/>
<path d="M276.332 181.011L267.512 188.657C265.049 190.785 264.715 194.674 266.306 198.468L275.126 190.821C273.536 187.028 273.869 183.138 276.332 181.011Z" fill="#D6D4D2"/>
<path d="M277.664 194.894C276.558 193.612 275.715 192.223 275.127 190.821L266.307 198.468C266.895 199.87 267.737 201.259 268.844 202.54C269.843 203.697 270.959 204.657 272.123 205.411L280.944 197.765C279.779 197.01 278.663 196.05 277.664 194.894Z" fill="#C4C2C0"/>
<path d="M280.941 197.764L272.121 205.41C275.739 207.755 279.831 208.082 282.383 205.878L291.203 198.232C288.651 200.436 284.559 200.108 280.941 197.764Z" fill="#B2B0AF"/>
<path d="M289.857 184.365C293.959 189.115 294.563 195.335 291.205 198.235C287.831 201.149 281.765 199.646 277.664 194.896C273.562 190.147 272.958 183.927 276.332 181.013C279.69 178.113 285.756 179.616 289.857 184.365Z" fill="#E9E8E6"/>
<path d="M282.429 176.943L277.886 180.867C275.682 182.77 275.29 186.16 276.547 189.544L281.09 185.621C279.832 182.237 280.225 178.847 282.429 176.943Z" fill="#EFC348"/>
<path d="M286.918 192.744L282.375 196.667C285.725 198.774 289.458 199.033 291.814 196.999L296.357 193.075C294.001 195.11 290.268 194.851 286.918 192.744Z" fill="#CEA03A"/>
<path d="M283.664 189.926C282.496 188.575 281.637 187.098 281.088 185.62L276.545 189.543C277.094 191.021 277.954 192.498 279.121 193.849C280.112 194.997 281.221 195.938 282.375 196.664L286.917 192.741C285.763 192.015 284.654 191.073 283.664 189.926Z" fill="#DDB040"/>
<path d="M295.073 180.079C298.941 184.558 299.504 190.36 296.36 193.076C293.193 195.81 287.535 194.408 283.667 189.929C279.827 185.483 279.264 179.68 282.43 176.946C285.575 174.23 291.233 175.633 295.073 180.079Z" fill="#FFD651"/>
<path d="M206.861 257.4L201.496 258.591L204.028 253.813L206.861 257.4Z" fill="#434240"/>
<path d="M162.328 104.161L156.445 100.743L156.355 69.0225L162.238 72.4412L162.328 104.161Z" fill="#6D797A"/>
<path d="M162.238 72.4412L156.355 69.0225L261.393 8.37891L267.276 11.7976L162.238 72.4412Z" fill="#A0A8AA"/>
<path d="M162.238 72.4424L156.355 69.0237L240.455 20.4688L246.338 23.8875L162.238 72.4424Z" fill="#7E8A8C"/>
<path d="M162.238 72.4388L156.355 69.0201L219.517 32.5537L225.4 35.9724L162.238 72.4388Z" fill="#A0A8AA"/>
<path d="M162.238 72.4427L156.355 69.0239L197.992 44.9854L203.874 48.4041L162.238 72.4427Z" fill="#7E8A8C"/>
<path d="M162.238 72.4412L156.355 69.0225L177.641 56.7334L183.524 60.1521L162.238 72.4412Z" fill="#A0A8AA"/>
<path d="M267.277 11.7969L267.367 43.5172L162.329 104.161L162.239 72.4404L267.277 11.7969Z" fill="#8D9799"/>
<path d="M185.532 79.5892L183.816 78.5925L186.981 65.499L188.696 66.4958L185.532 79.5892Z" fill="#B2B0AF"/>
<path d="M188.695 66.4958L186.979 65.499L190.043 63.7305L191.758 64.7272L188.695 66.4958Z" fill="#B2B0AF"/>
<path d="M183.856 85.1793L182.141 84.1825L179.069 75.2002L180.785 76.197L183.856 85.1793Z" fill="#B2B0AF"/>
<path d="M176.141 84.9105L174.426 83.9138L177.657 70.8838L179.372 71.8806L176.141 84.9105Z" fill="#B2B0AF"/>
<path d="M179.373 71.876L177.658 70.8792L180.61 69.1748L182.325 70.1716L179.373 71.876Z" fill="#B2B0AF"/>
<path d="M169.696 77.4658L167.98 76.4691L171.288 74.5596L173.003 75.5563L169.696 77.4658Z" fill="#B2B0AF"/>
<path d="M174.269 90.7158L172.554 89.7191L167.98 76.4688L169.696 77.4655L174.269 90.7158Z" fill="#B2B0AF"/>
<path d="M191.758 64.7266L187.297 83.1927L183.857 85.1791L180.785 76.1968L177.686 88.7418L174.267 90.7153L169.694 77.465L173.002 75.5555L176.141 84.9075L179.372 71.8775L182.324 70.1731L185.53 79.5885L188.695 66.4951L191.758 64.7266Z" fill="white"/>
<path d="M202.391 74.4818L200.676 73.4851L198 70.6104L199.715 71.6071L202.391 74.4818Z" fill="#B2B0AF"/>
<path d="M199.373 68.8653L197.658 67.8685C198.613 67.3175 199.345 66.6649 199.832 65.8984L201.547 66.8952C201.06 67.6617 200.328 68.3142 199.373 68.8653Z" fill="#B2B0AF"/>
<path d="M199.972 61.8652L201.687 62.862C202.095 63.0992 202.293 63.6218 202.295 64.4205C202.297 65.2877 202.055 66.1174 201.546 66.8967L199.831 65.9C200.34 65.1206 200.582 64.291 200.58 63.4238C200.578 62.625 200.38 62.1024 199.972 61.8652Z" fill="#B2B0AF"/>
<path d="M196.756 70.3752L195.041 69.3785L197.66 67.8662L199.376 68.863L196.756 70.3752Z" fill="#B2B0AF"/>
<path d="M202.501 58.423L204.216 59.4198C203.803 59.1796 203.301 59.0747 202.703 59.1014L200.988 58.1047C201.586 58.0779 202.088 58.1828 202.501 58.423Z" fill="#B2B0AF"/>
<path d="M199.505 60.2541L197.79 59.2573C199.033 58.5396 200.077 58.1669 200.988 58.1006L202.704 59.0973C201.792 59.1636 200.748 59.5364 199.505 60.2541Z" fill="#B2B0AF"/>
<path d="M193.579 79.5665L191.863 78.5698L191.818 62.7051L193.534 63.7018L193.579 79.5665Z" fill="#B2B0AF"/>
<path d="M202.713 69.1883L205.812 72.5082L202.394 74.4817L199.718 71.607L199.54 71.7096L196.766 73.3115L196.778 77.7241L193.582 79.5694L193.537 63.7047L199.508 60.2575C200.751 59.5398 201.795 59.167 202.706 59.1008C203.618 59.0599 204.308 59.3258 204.799 59.911C205.289 60.4708 205.536 61.35 205.54 62.5488C205.543 63.7221 205.302 64.8833 204.794 66.0198C204.308 67.169 203.621 68.2038 202.713 69.1883ZM201.55 66.8961C202.059 66.1167 202.301 65.2871 202.299 64.4199C202.296 63.5272 202.05 62.9795 201.538 62.7895C201.049 62.587 200.316 62.7803 199.361 63.3314L196.742 64.8437L196.757 70.3784L199.377 68.8662C200.331 68.3151 201.063 67.6626 201.55 66.8961Z" fill="white"/>
<path d="M193.534 63.7019L191.818 62.7051L197.789 59.2578L199.504 60.2546L193.534 63.7019Z" fill="#B2B0AF"/>
<path d="M226.743 60.422L225.027 59.4252L224.982 43.5605L226.698 44.5573L226.743 60.422Z" fill="#B2B0AF"/>
<path d="M226.698 44.5571L224.982 43.5603L228.179 41.7148L229.894 42.7116L226.698 44.5571Z" fill="#B2B0AF"/>
<path d="M229.893 42.71L229.938 58.5746L226.741 60.42L226.696 44.5554L229.893 42.71Z" fill="white"/>
<path d="M217.418 65.8059L215.703 64.8091L215.666 51.9287L217.381 52.9255L217.418 65.8059Z" fill="#B2B0AF"/>
<path d="M212.966 55.4741L211.251 54.4774L211.242 51.4932L212.957 52.4899L212.966 55.4741Z" fill="#B2B0AF"/>
<path d="M212.957 52.4896L211.242 51.4928L223.273 44.5469L224.988 45.5436L212.957 52.4896Z" fill="#B2B0AF"/>
<path d="M224.987 45.542L224.995 48.5262L220.578 51.0765L220.614 63.9569L217.418 65.8024L217.382 52.9219L212.965 55.4721L212.956 52.4879L224.987 45.542Z" fill="white"/>
<path d="M208.076 71.1973L206.36 70.2006L206.315 54.3359L208.031 55.3327L208.076 71.1973Z" fill="#B2B0AF"/>
<path d="M208.031 55.3324L206.315 54.3356L209.512 52.4902L211.227 53.487L208.031 55.3324Z" fill="#B2B0AF"/>
<path d="M211.226 53.4912L211.271 69.3559L208.074 71.2012L208.029 55.3366L211.226 53.4912Z" fill="white"/>
<path d="M242.706 44.9691L240.991 43.9723L240.964 34.3311L242.679 35.3278L242.706 44.9691Z" fill="#B2B0AF"/>
<path d="M242.679 35.3302L240.964 34.3335L244.116 32.5137L245.831 33.5104L242.679 35.3302Z" fill="#B2B0AF"/>
<path d="M243.254 50.8888L241.539 49.8921L234.631 44.2236L236.346 45.2204L243.254 50.8888Z" fill="#B2B0AF"/>
<path d="M233.177 40.8128L231.462 39.816L234.103 38.291L235.819 39.2878L233.177 40.8128Z" fill="#B2B0AF"/>
<path d="M233.222 56.6807L231.507 55.684L231.462 39.8193L233.177 40.8161L233.222 56.6807Z" fill="#B2B0AF"/>
<path d="M245.833 33.5107L245.878 49.3754L243.259 50.8876L236.35 45.2192L236.378 54.8603L233.226 56.6801L233.181 40.8155L235.822 39.2905L242.708 44.9718L242.681 35.3305L245.833 33.5107Z" fill="white"/>
<path d="M258.473 38.5489L256.758 37.5521L256.745 32.9102L258.46 33.9069L258.473 38.5489Z" fill="#B2B0AF"/>
<path d="M258.46 33.9081L256.745 32.9113L259.675 31.2197L261.39 32.2165L258.46 33.9081Z" fill="#B2B0AF"/>
<path d="M257.795 29.1787L259.51 30.1755C259.535 30.1898 259.559 30.2045 259.584 30.2196L257.868 29.2228C257.844 29.2077 257.82 29.193 257.795 29.1787Z" fill="#B2B0AF"/>
<path d="M252.733 41.1009L251.018 40.1042C251.292 40.2633 251.607 40.3541 251.964 40.3728C252.631 40.4221 253.409 40.1775 254.274 39.6777C255.207 39.1395 256.027 38.4358 256.758 37.5537L258.474 38.5505C257.742 39.4325 256.922 40.1363 255.989 40.6745C255.124 41.1743 254.346 41.4188 253.679 41.3696C253.322 41.3508 253.007 41.2601 252.733 41.1009Z" fill="#B2B0AF"/>
<path d="M259.584 25.6614L261.299 26.6581C260.693 26.306 259.974 26.168 259.128 26.2675L257.413 25.2707C258.259 25.1713 258.978 25.3092 259.584 25.6614Z" fill="#B2B0AF"/>
<path d="M255.843 27.4477L254.128 26.451C255.326 25.759 256.437 25.3478 257.415 25.2686L259.13 26.2653C258.152 26.3445 257.042 26.7558 255.843 27.4477Z" fill="#B2B0AF"/>
<path d="M250.265 44.6331L248.549 43.6364C248.167 43.4141 247.834 43.1086 247.548 42.7209C246.879 41.8556 246.564 40.6322 246.56 39.0509C246.555 37.4695 246.862 35.8873 247.524 34.253C248.164 32.6316 249.072 31.1369 250.224 29.7564C251.376 28.4013 252.685 27.2881 254.128 26.4551L255.843 27.4518C254.4 28.2849 253.091 29.3981 251.939 30.7531C250.787 32.1337 249.88 33.6284 249.239 35.2497C248.577 36.884 248.27 38.4662 248.275 40.0476C248.279 41.6289 248.594 42.8524 249.263 43.7177C249.549 44.1053 249.882 44.4108 250.265 44.6331Z" fill="#B2B0AF"/>
<path d="M255.841 27.4502C257.039 26.7583 258.15 26.347 259.128 26.2678C260.128 26.1501 260.951 26.3647 261.619 26.8729L259.583 30.2199C258.581 29.5978 257.403 29.6904 256.005 30.4977C255.117 31.0103 254.341 31.6629 253.654 32.4938C252.967 33.2993 252.436 34.2188 252.061 35.202C251.685 36.185 251.488 37.193 251.491 38.1878C251.494 39.157 251.696 39.9343 252.076 40.4817C252.455 41.029 252.989 41.3336 253.679 41.3698C254.346 41.4191 255.123 41.1746 255.989 40.6747C256.921 40.1365 257.742 39.4328 258.473 38.5507L258.46 33.9087L261.39 32.2171L261.408 38.6701C260.656 39.7434 259.791 40.7533 258.793 41.6616C257.818 42.5826 256.819 43.3378 255.82 43.9145C254.4 44.7347 253.111 45.1209 251.955 45.0731C250.799 45.0508 249.908 44.5943 249.261 43.7161C248.592 42.8508 248.277 41.6273 248.273 40.046C248.268 38.4646 248.575 36.8824 249.237 35.2481C249.877 33.6268 250.785 32.132 251.937 30.7515C253.089 29.3965 254.398 28.2833 255.841 27.4502Z" fill="white"/>
<path d="M287.477 118.526C287.507 128.141 280.974 139.455 272.611 144.286C272.169 144.54 271.686 144.662 271.21 144.662C270.239 144.662 269.297 144.157 268.779 143.258C268.002 141.917 268.461 140.198 269.803 139.422C276.362 135.635 281.886 126.073 281.863 118.543C281.857 115.509 280.922 113.236 279.306 112.307C277.67 111.369 275.195 111.709 272.522 113.252C271.181 114.029 269.466 113.566 268.689 112.225C267.913 110.883 268.375 109.165 269.717 108.389C274.234 105.778 278.635 105.441 282.108 107.44C285.554 109.426 287.464 113.365 287.477 118.526Z" fill="#2C8C2C"/>
<path d="M274.41 103.987L274.183 145.603C274.173 149.051 271.905 152.494 267.374 155.127C258.267 160.42 243.438 160.427 234.257 155.127C229.645 152.464 227.341 148.964 227.351 145.469L227.578 103.854C227.568 107.348 229.872 110.848 234.484 113.512C243.665 118.812 258.494 118.804 267.601 113.511C272.132 110.878 274.4 107.435 274.41 103.987Z" fill="#6DCB60"/>
<path d="M267.601 113.509C259.604 118.156 247.195 118.727 238.073 115.209V156.91C247.173 160.333 259.443 159.733 267.374 155.124C271.905 152.491 274.173 149.048 274.183 145.6L274.41 103.984C274.4 107.433 272.132 110.876 267.601 113.509Z" fill="#3DB542"/>
<path d="M267.603 113.509C264.415 115.361 260.525 116.564 256.423 117.12V158.704C260.441 158.134 264.247 156.943 267.376 155.124C271.907 152.491 274.175 149.048 274.184 145.6L274.411 103.984C274.402 107.433 272.134 110.876 267.603 113.509Z" fill="#2C9A2C"/>
<path d="M274.448 104.008C274.47 96.516 264.004 90.4115 251.07 90.3727C238.136 90.3339 227.633 96.3755 227.611 103.867C227.589 111.359 238.055 117.463 250.989 117.502C263.922 117.541 274.425 111.499 274.448 104.008Z" fill="#81D672"/>
<path d="M269.878 106.637C269.056 104.684 267.347 102.83 264.704 101.304C257.084 96.9056 244.756 96.899 237.173 101.304C234.583 102.81 232.907 104.637 232.098 106.564C230.548 102.876 232.223 98.8254 237.173 95.9474C244.756 91.5429 257.084 91.5495 264.704 95.9474C269.73 98.8485 271.441 102.929 269.878 106.637Z" fill="#3DB542"/>
<path d="M269.879 106.636C269.08 108.566 267.384 110.383 264.797 111.89C257.224 116.281 244.896 116.298 237.257 111.89C234.623 110.37 232.915 108.516 232.099 106.557C232.726 105.083 233.856 103.656 235.525 102.393C236.024 102.013 236.569 101.65 237.164 101.303C244.754 96.8951 257.098 96.8951 264.718 101.303C266.278 102.205 267.513 103.219 268.429 104.306C269.063 105.053 269.549 105.836 269.879 106.636Z" fill="#EFC348"/>
<path d="M268.428 104.306C267.926 104.687 267.377 105.05 266.779 105.397C259.206 109.788 246.878 109.805 239.242 105.397C237.679 104.495 236.443 103.48 235.524 102.393C236.023 102.013 236.569 101.65 237.163 101.303C244.753 96.8951 257.098 96.8951 264.717 101.303C266.277 102.205 267.513 103.219 268.428 104.306Z" fill="#FFD651"/>
<path d="M260.365 76.38L260.355 76.9682C260.345 77.7579 260.229 78.5443 260.061 79.3208C259.958 79.7041 259.856 80.0874 259.727 80.464L259.519 81.0224L259.41 81.3033L259.311 81.5412C259.043 82.1624 258.769 82.777 258.488 83.3916C258.204 84.0062 257.913 84.6142 257.616 85.2188C257.374 85.7343 257.146 86.2266 256.975 86.7619C256.783 87.2872 256.657 87.8358 256.535 88.3909C256.492 88.6684 256.433 88.9526 256.41 89.2368C256.393 89.3788 256.367 89.5209 256.357 89.6663L256.33 90.0991C256.258 91.2655 256.38 92.465 256.638 93.6975C256.786 94.3022 256.948 94.93 257.183 95.5478C257.288 95.8584 257.424 96.1889 257.546 96.516C257.665 96.8464 257.787 97.1801 257.89 97.5238C257.589 97.3255 257.308 97.114 257.024 96.9026C256.747 96.6878 256.469 96.4862 256.201 96.2318C256.112 96.1558 256.023 96.0765 255.94 95.9972C255.491 95.5743 255.098 95.0919 254.721 94.583C253.872 93.3571 253.251 91.9165 252.967 90.39C252.672 88.8667 252.689 87.2543 253.036 85.7046C253.191 84.9281 253.465 84.1648 253.763 83.4445C254.03 82.8232 254.305 82.2054 254.589 81.5941C254.873 80.9828 255.161 80.3715 255.461 79.7668L255.57 79.5455L255.656 79.3571C255.712 79.2316 255.772 79.106 255.835 78.9805C255.947 78.726 256.036 78.465 256.145 78.2072C256.221 77.9396 256.327 77.6786 256.396 77.4043C256.456 77.1334 256.558 76.8624 256.601 76.5816L256.684 76.1619C256.707 76.0232 256.717 75.8811 256.74 75.739C256.793 75.4548 256.813 75.1674 256.829 74.8766C256.922 73.7102 256.829 72.5041 256.571 71.275C256.324 70.0657 255.894 68.853 255.316 67.5809C255.306 67.5544 255.296 67.5313 255.283 67.5049C257.814 68.8299 259.671 71.5757 260.19 74.6354C260.249 75.0187 260.312 75.4019 260.332 75.7952C260.348 75.9901 260.361 76.1851 260.365 76.38Z" fill="#E9E8E6"/>
<path d="M258.485 75.0704L258.478 75.6585C258.468 76.4482 258.349 77.2346 258.181 78.0111C258.081 78.3944 257.976 78.7777 257.85 79.1544L257.639 79.7128L257.53 79.9937L257.431 80.2316C257.166 80.8528 256.889 81.4674 256.608 82.0819C256.327 82.6965 256.036 83.3045 255.739 83.9092C255.494 84.4246 255.266 84.917 255.094 85.4523C254.906 85.9776 254.777 86.5261 254.655 87.0813C254.612 87.3588 254.553 87.643 254.529 87.9271C254.513 88.0692 254.49 88.2146 254.477 88.3567L254.453 88.7928C254.377 89.9559 254.503 91.1554 254.757 92.3878C254.906 92.9925 255.071 93.6203 255.306 94.2382C255.412 94.5488 255.544 94.8792 255.669 95.2063C255.762 95.4707 255.858 95.7317 255.94 95.9994C255.491 95.5764 255.098 95.094 254.721 94.5851C253.872 93.3593 253.251 91.9186 252.967 90.3921C252.672 88.8688 252.689 87.2564 253.036 85.7067C253.191 84.9302 253.465 84.1669 253.763 83.4466C254.03 82.8254 254.305 82.2075 254.589 81.5962C254.873 80.9849 255.161 80.3737 255.461 79.769L255.57 79.5476L255.656 79.3592C255.712 79.2337 255.772 79.1081 255.835 78.9826C255.947 78.7282 256.036 78.4671 256.145 78.2094C256.221 77.9418 256.327 77.6807 256.396 77.4065C256.456 77.1355 256.558 76.8646 256.601 76.5837L256.684 76.1641C256.707 76.0253 256.717 75.8832 256.74 75.7411C256.793 75.457 256.813 75.1695 256.829 74.8787C256.922 73.7124 256.829 72.5063 256.571 71.2771C256.324 70.0678 255.894 68.8551 255.316 67.583C256.849 69.0468 257.933 71.1053 258.309 73.3257C258.372 73.7091 258.432 74.0956 258.455 74.4855C258.468 74.6805 258.481 74.8754 258.485 75.0704Z" fill="#D6D4D2"/>
<path d="M251.287 74.6853L251.263 75.4122C251.237 76.3803 251.082 77.3484 250.867 78.3001C250.738 78.7693 250.606 79.2451 250.447 79.7077L250.183 80.3917L250.047 80.7353L249.922 81.036C249.578 81.8224 249.225 82.6055 248.868 83.3853C248.508 84.1651 248.141 84.9416 247.768 85.7147C247.45 86.3954 247.153 87.0596 246.938 87.7733C246.697 88.4738 246.542 89.204 246.403 89.9408C246.353 90.3143 246.284 90.6843 246.264 91.061C246.251 91.2493 246.225 91.441 246.215 91.6293L246.198 92.201C246.155 93.7341 246.377 95.2904 246.786 96.8566C247.014 97.6265 247.265 98.4162 247.606 99.1828C247.764 99.5694 247.953 99.9725 248.131 100.372C248.306 100.779 248.481 101.182 248.637 101.601C248.283 101.331 247.946 101.046 247.609 100.762C247.275 100.471 246.945 100.194 246.624 99.8668C246.36 99.6189 246.109 99.3513 245.874 99.0737C245.517 98.6541 245.187 98.2047 244.87 97.7422C243.869 96.1825 243.145 94.3851 242.834 92.4917C242.511 90.6017 242.557 88.6192 243 86.7159C243.198 85.761 243.545 84.8259 243.915 83.9371C244.258 83.1507 244.609 82.3676 244.969 81.5878C245.329 80.8113 245.696 80.0348 246.072 79.2616L246.211 78.9774L246.324 78.7263L246.552 78.2241C246.697 77.8837 246.816 77.5335 246.951 77.1865L247.11 76.6546C247.166 76.4761 247.232 76.301 247.265 76.1193C247.341 75.7558 247.46 75.3956 247.507 75.0256L247.602 74.4672C247.632 74.2822 247.639 74.0938 247.665 73.9054C247.682 73.7171 247.718 73.5288 247.725 73.3371L247.748 72.7688C247.814 71.2356 247.629 69.6694 247.222 68.1065C246.819 66.537 246.172 64.9906 245.322 63.4277C245.59 63.5929 245.854 63.7681 246.109 63.9564C248.732 65.896 250.589 69.0714 251.105 72.5276L251.201 73.2413C251.234 73.4792 251.237 73.7204 251.257 73.9616C251.27 74.2029 251.283 74.4441 251.287 74.6853Z" fill="#E9E8E6"/>
<path d="M249.225 72.7258L249.202 73.4528C249.175 74.4209 249.02 75.389 248.805 76.3407C248.676 76.8132 248.544 77.2857 248.385 77.7483L248.121 78.4322L247.989 78.7759L247.86 79.0766C247.516 79.863 247.163 80.6461 246.806 81.4259C246.446 82.2057 246.079 82.9822 245.706 83.7553C245.389 84.436 245.091 85.1002 244.876 85.8139C244.635 86.5177 244.48 87.2446 244.341 87.9815C244.292 88.3548 244.222 88.7249 244.202 89.1049C244.189 89.2932 244.163 89.4816 244.153 89.6699L244.136 90.2415C244.093 91.7747 244.315 93.331 244.724 94.8972C244.952 95.6671 245.203 96.4568 245.544 97.2234C245.702 97.6099 245.891 98.0131 246.069 98.4162C246.244 98.8193 246.419 99.2225 246.575 99.6421C246.334 99.457 246.102 99.2687 245.874 99.0737C245.517 98.6541 245.187 98.2047 244.87 97.7422C243.869 96.1825 243.145 94.3851 242.834 92.4917C242.511 90.6017 242.557 88.6192 243 86.7159C243.198 85.761 243.545 84.8259 243.915 83.9371C244.258 83.1507 244.609 82.3676 244.969 81.5878C245.329 80.8113 245.696 80.0348 246.072 79.2616L246.211 78.9774L246.324 78.7263L246.552 78.2241C246.697 77.8837 246.816 77.5335 246.951 77.1865L247.11 76.6546C247.166 76.4761 247.232 76.301 247.265 76.1193C247.341 75.7558 247.46 75.3956 247.507 75.0256L247.602 74.4672C247.632 74.2822 247.639 74.0938 247.665 73.9054C247.682 73.7171 247.718 73.5288 247.725 73.3371L247.748 72.7688C247.814 71.2356 247.629 69.6694 247.222 68.1065C246.819 66.537 246.172 64.9906 245.322 63.4277C245.59 63.5929 245.854 63.7681 246.109 63.9564C247.629 65.787 248.676 68.1065 249.043 70.5682L249.139 71.2819C249.172 71.5198 249.175 71.761 249.195 72.0022C249.208 72.2434 249.225 72.4846 249.225 72.7258Z" fill="#D6D4D2"/>
</svg>
