<svg width="302" height="300" viewBox="0 0 302 300" fill="none" xmlns="http://www.w3.org/2000/svg">
<path d="M27.3896 224.169L27.4141 234.292C27.4172 235.355 28.1168 236.418 29.513 237.231L123.858 292.058C126.666 293.69 131.236 293.69 134.062 292.058L285.278 204.752C286.699 203.933 287.407 202.855 287.404 201.779L287.38 191.663C287.38 192.738 286.671 193.811 285.254 194.63L134.038 281.936C131.212 283.567 126.641 283.567 123.834 281.936L29.4885 227.105C28.0923 226.296 27.3928 225.233 27.3896 224.169Z" fill="#C4C2C0"/>
<path d="M29.518 221.195C26.6916 222.827 26.6767 225.474 29.4867 227.107L123.832 281.934C126.64 283.566 131.209 283.566 134.035 281.934L285.25 194.63C288.077 192.998 288.09 190.353 285.282 188.721L190.937 133.893C188.127 132.26 183.56 132.259 180.733 133.891L29.518 221.195Z" fill="#E9E8E6"/>
<path d="M13.9439 179.512L23.9021 185.349L23.7668 137.488L13.8086 131.651L13.9439 179.512Z" fill="#494846"/>
<path d="M18.8293 94.7182C16.0035 96.3494 13.7212 100.303 13.7305 103.553L13.81 131.651L23.7682 137.487L23.6887 109.39C23.6794 106.142 25.9617 102.186 28.7878 100.554L65.7294 79.2263L55.7707 73.3896L18.8293 94.7182Z" fill="#383736"/>
<path d="M14.0391 212.673C14.0451 214.286 14.6132 215.423 15.5329 215.958L25.4881 221.794C24.5717 221.262 24.0003 220.126 23.9973 218.513L23.9035 185.348L13.9453 179.512L14.0391 212.673Z" fill="#494846"/>
<path d="M55.7705 73.3906L65.7293 79.2273L109.257 54.097L99.2977 48.2598L55.7705 73.3906Z" fill="#494846"/>
<path d="M173.687 7.05848C172.756 6.51763 171.469 6.59388 170.046 7.41293L142.825 23.1288L152.786 28.9666L180.004 13.2524C181.425 12.4306 182.714 12.354 183.646 12.8949L173.687 7.05848Z" fill="#494846"/>
<path d="M99.2969 48.2597L109.256 54.097L152.784 28.9667L142.824 23.1289L99.2969 48.2597Z" fill="#383736"/>
<path d="M180.003 13.2521C182.829 11.6203 185.128 12.9284 185.138 16.1785L185.447 125.3C185.456 128.547 183.172 132.502 180.345 134.134L29.13 221.438C26.3036 223.07 24.0061 221.761 23.9969 218.513L23.6875 109.392C23.6783 106.142 25.9609 102.188 28.7873 100.556L180.003 13.2521Z" fill="#21201F"/>
<path d="M250.683 168.614L240.263 174.628L181.78 140.643L192.2 134.627L250.683 168.614Z" fill="#D6D4D2"/>
<path d="M99.6409 255.805L89.2208 261.819L30.7383 227.834L41.1583 221.818L99.6409 255.805Z" fill="#D6D4D2"/>
<path d="M161.371 164.085C161.11 164.236 161.11 164.481 161.369 164.632L167.58 168.241C167.839 168.392 168.263 168.393 168.524 168.242L174.775 164.633C175.038 164.481 175.038 164.236 174.778 164.085L168.568 160.476C168.308 160.325 167.885 160.324 167.622 160.476L161.371 164.085Z" fill="#494846"/>
<path d="M103.108 218.696C102.845 218.848 102.845 219.093 103.104 219.244L109.315 222.853C109.574 223.004 109.998 223.005 110.261 222.853L116.512 219.244C116.773 219.093 116.773 218.848 116.513 218.697L110.303 215.088C110.043 214.937 109.62 214.937 109.358 215.087L103.108 218.696Z" fill="#494846"/>
<path d="M122.198 207.674C121.937 207.825 121.937 208.07 122.196 208.221L128.407 211.83C128.666 211.981 129.09 211.982 129.351 211.831L135.604 208.221C135.865 208.07 135.865 207.825 135.605 207.674L129.395 204.065C129.135 203.914 128.712 203.913 128.45 204.064L122.198 207.674Z" fill="#494846"/>
<path d="M83.5179 240.492C83.2552 240.643 83.2551 240.889 83.5135 241.039L89.7251 244.649C89.986 244.8 90.4071 244.799 90.6697 244.648L106.466 235.528C106.729 235.376 106.732 235.132 106.471 234.98L100.259 231.371C100.001 231.22 99.5772 231.22 99.3146 231.371L83.5179 240.492Z" fill="#494846"/>
<path d="M150.342 201.91C150.081 202.061 150.08 202.307 150.339 202.458L156.55 206.067C156.809 206.217 157.234 206.217 157.496 206.067L163.746 202.458C164.008 202.307 164.009 202.061 163.75 201.91L157.539 198.301C157.28 198.15 156.855 198.15 156.593 198.301L150.342 201.91Z" fill="#494846"/>
<path d="M140.797 207.421C140.534 207.573 140.534 207.818 140.794 207.969L147.004 211.578C147.264 211.729 147.688 211.73 147.95 211.578L154.201 207.969C154.462 207.818 154.463 207.573 154.203 207.422L147.993 203.813C147.733 203.662 147.309 203.661 147.048 203.812L140.797 207.421Z" fill="#494846"/>
<path d="M175.462 150.152C175.199 150.303 175.198 150.548 175.458 150.7L176.86 151.514C177.121 151.666 177.543 151.666 177.806 151.514L184.057 147.905C184.318 147.754 184.32 147.51 184.059 147.358L182.657 146.544C182.396 146.392 181.974 146.392 181.712 146.543L175.462 150.152Z" fill="#494846"/>
<path d="M165.914 155.663C165.652 155.814 165.651 156.059 165.912 156.21L167.313 157.025C167.574 157.177 167.997 157.177 168.258 157.026L174.51 153.416C174.772 153.265 174.773 153.02 174.512 152.869L173.11 152.054C172.849 151.903 172.427 151.903 172.166 152.054L165.914 155.663Z" fill="#494846"/>
<path d="M170.92 158.574C170.659 158.725 170.656 158.971 170.916 159.121L177.126 162.73C177.387 162.882 177.809 162.881 178.071 162.73L193.869 153.609C194.131 153.457 194.133 153.214 193.872 153.062L187.662 149.453C187.402 149.302 186.981 149.302 186.718 149.453L170.92 158.574Z" fill="#494846"/>
<path d="M146.822 166.685C146.559 166.837 146.558 167.081 146.819 167.233L148.22 168.047C148.481 168.199 148.904 168.199 149.166 168.047L155.417 164.438C155.679 164.288 155.68 164.043 155.419 163.891L154.017 163.077C153.757 162.925 153.334 162.925 153.073 163.076L146.822 166.685Z" fill="#494846"/>
<path d="M179.968 163.834C179.706 163.985 179.706 164.23 179.966 164.381L186.176 167.99C186.436 168.141 186.86 168.142 187.121 167.991L193.373 164.381C193.634 164.23 193.635 163.985 193.375 163.834L187.165 160.225C186.905 160.074 186.481 160.073 186.22 160.224L179.968 163.834Z" fill="#494846"/>
<path d="M189.517 158.324C189.257 158.474 189.254 158.719 189.514 158.87L198.094 163.856L189.021 169.094C188.76 169.245 188.758 169.491 189.018 169.642L195.228 173.251C195.489 173.403 195.912 173.401 196.173 173.251L211.971 164.13C212.234 163.978 212.235 163.735 211.974 163.583L196.712 154.714C196.453 154.563 196.032 154.562 195.769 154.714L189.517 158.324Z" fill="#494846"/>
<path d="M170.424 169.345C170.162 169.496 170.162 169.742 170.422 169.893L176.632 173.502C176.892 173.653 177.316 173.653 177.577 173.502L183.828 169.893C184.091 169.742 184.091 169.496 183.831 169.346L177.621 165.736C177.361 165.586 176.937 165.585 176.675 165.736L170.424 169.345Z" fill="#494846"/>
<path d="M151.828 169.595C151.566 169.746 151.565 169.992 151.825 170.143L158.035 173.752C158.295 173.903 158.719 173.903 158.981 173.752L165.232 170.143C165.494 169.992 165.494 169.747 165.234 169.596L159.024 165.987C158.764 165.836 158.341 165.835 158.079 165.986L151.828 169.595Z" fill="#494846"/>
<path d="M216.671 174.101C216.408 174.252 216.408 174.498 216.668 174.649L222.878 178.258C223.138 178.409 223.562 178.409 223.824 178.258L230.075 174.649C230.336 174.498 230.337 174.252 230.077 174.101L223.867 170.492C223.607 170.342 223.183 170.341 222.922 170.492L216.671 174.101Z" fill="#494846"/>
<path d="M179.477 174.605C179.215 174.756 179.215 175.002 179.475 175.152L185.685 178.761C185.945 178.912 186.368 178.913 186.63 178.762L192.881 175.153C193.143 175.002 193.143 174.756 192.884 174.605L186.673 170.996C186.414 170.845 185.99 170.845 185.727 170.996L179.477 174.605Z" fill="#494846"/>
<path d="M160.877 174.856C160.614 175.007 160.614 175.253 160.874 175.403L167.084 179.013C167.344 179.163 167.768 179.164 168.03 179.013L174.281 175.404C174.542 175.253 174.543 175.007 174.283 174.856L168.073 171.247C167.813 171.096 167.389 171.096 167.128 171.247L160.877 174.856Z" fill="#494846"/>
<path d="M207.123 179.612C206.862 179.763 206.862 180.008 207.121 180.159L213.332 183.768C213.591 183.919 214.015 183.92 214.276 183.769L220.528 180.159C220.79 180.009 220.79 179.763 220.53 179.612L214.32 176.003C214.06 175.852 213.637 175.852 213.375 176.002L207.123 179.612Z" fill="#494846"/>
<path d="M169.93 180.116C169.667 180.268 169.667 180.513 169.927 180.664L176.137 184.273C176.397 184.424 176.82 184.425 177.083 184.273L183.334 180.664C183.595 180.513 183.595 180.268 183.336 180.117L177.125 176.508C176.866 176.357 176.442 176.356 176.181 176.507L169.93 180.116Z" fill="#494846"/>
<path d="M151.332 180.367C151.071 180.518 151.071 180.763 151.33 180.914L157.541 184.523C157.8 184.674 158.224 184.675 158.485 184.524L164.737 180.914C164.999 180.763 164.999 180.518 164.739 180.367L158.529 176.758C158.269 176.607 157.846 176.606 157.584 176.757L151.332 180.367Z" fill="#494846"/>
<path d="M197.579 185.123C197.318 185.274 197.318 185.519 197.577 185.67L203.788 189.279C204.047 189.43 204.471 189.431 204.732 189.28L210.983 185.671C211.246 185.519 211.246 185.274 210.986 185.123L204.776 181.514C204.516 181.363 204.093 181.362 203.83 181.514L197.579 185.123Z" fill="#494846"/>
<path d="M178.98 185.376C178.717 185.528 178.717 185.773 178.977 185.924L185.187 189.533C185.446 189.684 185.87 189.685 186.133 189.533L192.384 185.924C192.645 185.773 192.645 185.528 192.386 185.377L186.175 181.768C185.916 181.617 185.492 181.616 185.231 181.767L178.98 185.376Z" fill="#494846"/>
<path d="M160.382 185.628C160.12 185.779 160.12 186.024 160.38 186.175L166.59 189.784C166.85 189.935 167.274 189.936 167.535 189.785L173.787 186.175C174.049 186.024 174.049 185.779 173.789 185.628L167.579 182.019C167.319 181.868 166.895 181.867 166.634 182.018L160.382 185.628Z" fill="#494846"/>
<path d="M123.188 186.129C122.927 186.28 122.925 186.526 123.185 186.677L129.395 190.286C129.655 190.437 130.08 190.437 130.341 190.286L136.592 186.677C136.854 186.526 136.855 186.28 136.595 186.129L130.385 182.52C130.125 182.369 129.7 182.37 129.439 182.52L123.188 186.129Z" fill="#494846"/>
<path d="M169.435 190.889C169.173 191.039 169.173 191.285 169.433 191.436L175.643 195.045C175.903 195.196 176.326 195.196 176.588 195.045L182.84 191.436C183.101 191.285 183.101 191.039 182.842 190.889L176.631 187.28C176.372 187.129 175.948 187.128 175.687 187.279L169.435 190.889Z" fill="#494846"/>
<path d="M150.837 191.138C150.576 191.289 150.575 191.535 150.835 191.686L157.045 195.295C157.305 195.446 157.729 195.446 157.99 195.295L164.241 191.686C164.504 191.535 164.504 191.289 164.244 191.138L158.034 187.529C157.774 187.379 157.35 187.378 157.088 187.529L150.837 191.138Z" fill="#494846"/>
<path d="M132.241 191.389C131.98 191.54 131.978 191.786 132.238 191.937L138.448 195.546C138.708 195.697 139.133 195.697 139.394 195.546L145.645 191.937C145.906 191.786 145.908 191.54 145.648 191.389L139.438 187.78C139.178 187.629 138.753 187.629 138.492 187.78L132.241 191.389Z" fill="#494846"/>
<path d="M113.641 191.643C113.378 191.794 113.378 192.04 113.638 192.191L119.848 195.8C120.108 195.951 120.531 195.951 120.794 195.8L127.045 192.191C127.306 192.04 127.306 191.794 127.047 191.643L120.836 188.034C120.577 187.884 120.153 187.883 119.892 188.034L113.641 191.643Z" fill="#494846"/>
<path d="M159.887 196.399C159.625 196.55 159.625 196.795 159.885 196.946L166.095 200.555C166.355 200.706 166.778 200.707 167.04 200.556L173.291 196.947C173.553 196.796 173.554 196.55 173.294 196.399L167.084 192.79C166.824 192.639 166.4 192.639 166.138 192.79L159.887 196.399Z" fill="#494846"/>
<path d="M141.291 196.65C141.029 196.801 141.028 197.047 141.288 197.198L147.498 200.807C147.758 200.958 148.182 200.958 148.444 200.807L154.695 197.198C154.956 197.047 154.958 196.801 154.698 196.65L148.488 193.041C148.228 192.89 147.803 192.89 147.542 193.041L141.291 196.65Z" fill="#494846"/>
<path d="M104.096 197.154C103.834 197.305 103.834 197.55 104.094 197.701L110.304 201.31C110.564 201.461 110.987 201.462 111.249 201.311L117.501 197.701C117.762 197.55 117.762 197.305 117.503 197.154L111.293 193.545C111.033 193.394 110.609 193.394 110.348 193.544L104.096 197.154Z" fill="#494846"/>
<path d="M131.743 202.16C131.481 202.312 131.481 202.557 131.74 202.708L137.951 206.317C138.21 206.468 138.634 206.469 138.896 206.317L145.147 202.708C145.409 202.557 145.409 202.312 145.149 202.161L138.939 198.552C138.679 198.401 138.256 198.4 137.994 198.551L131.743 202.16Z" fill="#494846"/>
<path d="M70.4507 210.777C70.1893 210.928 70.1879 211.173 70.4489 211.325L71.8505 212.139C72.1114 212.291 72.5338 212.291 72.7951 212.14L79.0473 208.53C79.3087 208.379 79.3101 208.135 79.0492 207.983L77.6475 207.169C77.3866 207.017 76.9642 207.017 76.7029 207.168L70.4507 210.777Z" fill="#494846"/>
<path d="M85.005 208.176C84.7424 208.328 84.7423 208.573 85.0019 208.724L91.2122 212.333C91.4719 212.484 91.8955 212.484 92.1581 212.333L98.4091 208.724C98.6704 208.573 98.6705 208.328 98.4109 208.177L92.2006 204.568C91.9409 204.417 91.5173 204.416 91.2559 204.567L85.005 208.176Z" fill="#494846"/>
<path d="M131.251 212.932C130.99 213.083 130.99 213.329 131.249 213.48L137.459 217.089C137.719 217.24 138.143 217.24 138.404 217.089L144.656 213.48C144.918 213.329 144.918 213.083 144.658 212.933L138.448 209.323C138.188 209.173 137.765 209.172 137.503 209.323L131.251 212.932Z" fill="#494846"/>
<path d="M112.651 213.186C112.39 213.337 112.388 213.583 112.648 213.734L118.858 217.343C119.118 217.494 119.543 217.494 119.804 217.343L126.055 213.734C126.316 213.583 126.318 213.337 126.058 213.186L119.848 209.577C119.588 209.426 119.163 209.426 118.902 209.577L112.651 213.186Z" fill="#494846"/>
<path d="M60.9057 216.289C60.6444 216.44 60.643 216.685 60.9039 216.836L62.3056 217.651C62.5665 217.802 62.9889 217.802 63.2502 217.652L69.5011 214.043C69.7638 213.891 69.7651 213.646 69.5042 213.495L68.1026 212.68C67.8417 212.528 67.4193 212.528 67.1567 212.68L60.9057 216.289Z" fill="#494846"/>
<path d="M94.0548 213.437C93.7922 213.588 93.7921 213.834 94.0517 213.985L100.262 217.594C100.522 217.744 100.945 217.745 101.208 217.594L107.459 213.985C107.72 213.834 107.72 213.588 107.461 213.437L101.25 209.828C100.991 209.677 100.567 209.677 100.306 209.828L94.0548 213.437Z" fill="#494846"/>
<path d="M75.456 213.687C75.1947 213.838 75.1946 214.084 75.4542 214.235L81.6645 217.844C81.9242 217.994 82.3478 217.995 82.6092 217.844L88.8614 214.235C89.1227 214.084 89.1228 213.838 88.8632 213.687L82.6529 210.078C82.3932 209.927 81.9696 209.927 81.7083 210.078L75.456 213.687Z" fill="#494846"/>
<path d="M121.704 218.443C121.442 218.594 121.441 218.84 121.701 218.991L127.911 222.6C128.171 222.751 128.596 222.751 128.857 222.6L135.108 218.991C135.369 218.84 135.371 218.594 135.111 218.443L128.901 214.834C128.641 214.683 128.216 214.683 127.955 214.834L121.704 218.443Z" fill="#494846"/>
<path d="M51.36 221.802C51.0974 221.954 51.096 222.198 51.3569 222.35L52.7585 223.165C53.0195 223.316 53.4418 223.316 53.7044 223.165L59.9554 219.556C60.2167 219.405 60.2181 219.16 59.9572 219.008L58.5556 218.194C58.2946 218.042 57.8723 218.042 57.6109 218.193L51.36 221.802Z" fill="#494846"/>
<path d="M84.5088 218.948C84.2474 219.099 84.2473 219.344 84.507 219.495L90.7173 223.104C90.9769 223.255 91.4006 223.256 91.6619 223.105L97.9141 219.495C98.1755 219.344 98.1756 219.099 97.9159 218.948L91.7056 215.339C91.446 215.188 91.0223 215.187 90.761 215.338L84.5088 218.948Z" fill="#494846"/>
<path d="M65.9121 219.199C65.6508 219.35 65.6506 219.595 65.9103 219.746L72.1206 223.355C72.3803 223.506 72.8039 223.507 73.0652 223.356L79.3162 219.747C79.5788 219.595 79.5789 219.35 79.3193 219.199L73.1089 215.59C72.8493 215.439 72.4257 215.438 72.163 215.59L65.9121 219.199Z" fill="#494846"/>
<path d="M112.156 223.957C111.894 224.109 111.894 224.354 112.153 224.505L118.364 228.114C118.623 228.265 119.047 228.266 119.31 228.114L125.56 224.505C125.822 224.354 125.822 224.109 125.562 223.958L119.352 220.349C119.092 220.198 118.669 220.197 118.407 220.348L112.156 223.957Z" fill="#494846"/>
<path d="M56.3654 224.71C56.1027 224.862 56.1026 225.107 56.3623 225.258L62.5726 228.867C62.8322 229.018 63.2559 229.019 63.5185 228.867L69.7694 225.258C70.0308 225.107 70.0309 224.862 69.7712 224.711L63.5609 221.102C63.3013 220.951 62.8777 220.95 62.6163 221.101L56.3654 224.71Z" fill="#494846"/>
<path d="M121.208 229.217C120.946 229.369 120.947 229.613 121.207 229.764L127.417 233.373C127.678 233.525 128.099 233.526 128.362 233.374L201.436 191.185C201.697 191.034 201.698 190.789 201.437 190.638L195.227 187.029C194.967 186.878 194.544 186.877 194.282 187.028L121.208 229.217Z" fill="#494846"/>
<path d="M102.611 229.469C102.35 229.62 102.35 229.865 102.61 230.016L108.82 233.625C109.079 233.776 109.503 233.776 109.764 233.626L116.017 230.016C116.278 229.865 116.278 229.62 116.018 229.469L109.808 225.86C109.549 225.709 109.125 225.708 108.864 225.859L102.611 229.469Z" fill="#494846"/>
<path d="M65.4187 229.97C65.1561 230.122 65.1547 230.367 65.4144 230.518L71.6247 234.127C71.8856 234.278 72.3067 234.277 72.5694 234.126L88.3661 225.006C88.6287 224.854 88.6313 224.61 88.3704 224.458L82.1601 220.849C81.9004 220.699 81.4781 220.699 81.2154 220.85L65.4187 229.97Z" fill="#494846"/>
<path d="M111.661 234.729C111.4 234.88 111.4 235.126 111.659 235.277L117.87 238.886C118.129 239.036 118.553 239.037 118.814 238.886L125.066 235.277C125.328 235.126 125.328 234.88 125.068 234.729L118.858 231.12C118.598 230.969 118.175 230.969 117.913 231.12L111.661 234.729Z" fill="#494846"/>
<path d="M74.4679 235.231C74.2053 235.383 74.2052 235.628 74.4648 235.779L80.6751 239.388C80.936 239.54 81.3571 239.539 81.6198 239.387L106.962 224.756C107.225 224.604 107.227 224.36 106.967 224.209L100.756 220.6C100.497 220.449 100.073 220.448 99.8104 220.6L74.4679 235.231Z" fill="#494846"/>
<path d="M102.116 240.24C101.855 240.391 101.855 240.636 102.114 240.787L108.325 244.396C108.584 244.547 109.008 244.548 109.269 244.397L115.52 240.788C115.783 240.636 115.783 240.391 115.523 240.24L109.313 236.631C109.053 236.48 108.63 236.479 108.367 236.631L102.116 240.24Z" fill="#494846"/>
<path d="M92.5705 245.751C92.3078 245.903 92.3077 246.148 92.5674 246.299L98.7777 249.908C99.0373 250.059 99.461 250.06 99.7236 249.908L105.975 246.299C106.236 246.148 106.236 245.903 105.976 245.752L99.766 242.143C99.5064 241.992 99.0827 241.991 98.8214 242.142L92.5705 245.751Z" fill="#494846"/>
<path d="M188.527 179.864C188.266 180.014 188.264 180.261 188.523 180.411L194.734 184.02C194.995 184.172 195.418 184.171 195.679 184.02L221.023 169.388C221.285 169.236 221.287 168.993 221.026 168.841L214.814 165.231C214.556 165.081 214.134 165.08 213.871 165.231L188.527 179.864Z" fill="#494846"/>
<path d="M141.784 185.879C141.523 186.03 141.523 186.275 141.782 186.426L147.993 190.035C148.252 190.186 148.676 190.187 148.937 190.036L155.188 186.427C155.451 186.275 155.451 186.03 155.191 185.879L148.981 182.27C148.721 182.119 148.298 182.118 148.035 182.27L141.784 185.879Z" fill="#494846"/>
<path d="M122.693 196.9C122.431 197.051 122.431 197.297 122.69 197.447L128.901 201.056C129.16 201.207 129.584 201.208 129.847 201.056L136.098 197.447C136.359 197.297 136.359 197.051 136.099 196.9L129.889 193.291C129.629 193.14 129.206 193.14 128.944 193.291L122.693 196.9Z" fill="#494846"/>
<path d="M113.146 202.412C112.884 202.563 112.884 202.808 113.144 202.959L119.354 206.568C119.614 206.719 120.037 206.72 120.299 206.569L126.551 202.959C126.812 202.808 126.812 202.563 126.553 202.412L120.342 198.803C120.083 198.652 119.659 198.651 119.398 198.802L113.146 202.412Z" fill="#494846"/>
<path d="M94.5485 202.665C94.2871 202.816 94.2857 203.063 94.5454 203.213L100.756 206.822C101.015 206.973 101.44 206.973 101.702 206.822L107.953 203.213C108.214 203.063 108.215 202.816 107.956 202.666L101.745 199.057C101.486 198.906 101.061 198.906 100.799 199.057L94.5485 202.665Z" fill="#494846"/>
<path d="M103.601 207.925C103.34 208.076 103.338 208.322 103.598 208.473L109.808 212.082C110.068 212.233 110.493 212.233 110.754 212.082L117.005 208.473C117.267 208.322 117.268 208.076 117.008 207.925L110.798 204.316C110.538 204.165 110.114 204.165 109.852 204.316L103.601 207.925Z" fill="#494846"/>
<path d="M79.9987 205.266C79.736 205.418 79.7346 205.662 79.9956 205.814L81.3972 206.628C81.6581 206.78 82.0805 206.78 82.3431 206.628L88.5941 203.019C88.8554 202.869 88.8568 202.624 88.5959 202.472L87.1942 201.658C86.9333 201.506 86.511 201.506 86.2496 201.657L79.9987 205.266Z" fill="#494846"/>
<path d="M89.5431 199.756C89.2818 199.907 89.2791 200.152 89.54 200.304L90.9417 201.118C91.2026 201.27 91.6262 201.269 91.8876 201.118L98.1385 197.509C98.3999 197.358 98.4025 197.113 98.1416 196.961L96.7399 196.147C96.479 195.995 96.0554 195.996 95.794 196.147L89.5431 199.756Z" fill="#494846"/>
<path d="M99.0893 194.244C98.828 194.395 98.8266 194.64 99.0875 194.791L100.489 195.606C100.75 195.758 101.172 195.758 101.434 195.607L107.686 191.997C107.947 191.846 107.949 191.601 107.688 191.45L106.286 190.635C106.025 190.484 105.603 190.484 105.342 190.635L99.0893 194.244Z" fill="#494846"/>
<path d="M108.638 188.733C108.376 188.884 108.374 189.129 108.635 189.281L110.037 190.095C110.298 190.247 110.72 190.247 110.983 190.095L117.234 186.486C117.495 186.335 117.496 186.091 117.236 185.939L115.834 185.125C115.573 184.973 115.151 184.973 114.889 185.124L108.638 188.733Z" fill="#494846"/>
<path d="M118.182 183.222C117.92 183.373 117.918 183.619 118.179 183.77L119.58 184.585C119.841 184.737 120.265 184.736 120.526 184.585L126.777 180.976C127.039 180.825 127.041 180.58 126.78 180.428L125.379 179.613C125.118 179.462 124.694 179.463 124.433 179.613L118.182 183.222Z" fill="#494846"/>
<path d="M142.28 175.107C142.019 175.258 142.019 175.504 142.278 175.654L148.489 179.263C148.748 179.414 149.172 179.415 149.433 179.264L155.686 175.655C155.947 175.504 155.947 175.258 155.687 175.107L149.477 171.498C149.217 171.347 148.794 171.347 148.532 171.498L142.28 175.107Z" fill="#494846"/>
<path d="M132.735 180.618C132.474 180.769 132.474 181.014 132.734 181.165L138.944 184.774C139.203 184.925 139.627 184.926 139.888 184.775L146.139 181.166C146.402 181.014 146.402 180.769 146.142 180.618L139.932 177.009C139.673 176.858 139.249 176.857 138.986 177.009L132.735 180.618Z" fill="#494846"/>
<path d="M127.729 177.711C127.468 177.862 127.466 178.107 127.727 178.258L129.129 179.073C129.39 179.224 129.812 179.224 130.073 179.073L136.324 175.464C136.587 175.313 136.588 175.068 136.327 174.917L134.926 174.102C134.665 173.95 134.243 173.95 133.98 174.102L127.729 177.711Z" fill="#494846"/>
<path d="M137.273 172.197C137.012 172.348 137.01 172.593 137.271 172.745L138.673 173.559C138.934 173.711 139.356 173.711 139.617 173.56L145.87 169.95C146.131 169.799 146.132 169.555 145.871 169.403L144.47 168.588C144.209 168.437 143.786 168.437 143.525 168.588L137.273 172.197Z" fill="#494846"/>
<path d="M156.369 161.175C156.107 161.326 156.106 161.57 156.367 161.722L157.768 162.537C158.029 162.688 158.452 162.688 158.713 162.537L164.964 158.928C165.227 158.777 165.228 158.532 164.967 158.38L163.565 157.566C163.305 157.414 162.882 157.414 162.62 157.566L156.369 161.175Z" fill="#494846"/>
<path d="M217.83 226.474C217.83 227.817 217.024 229.026 215.636 229.832L177.576 251.817C176.457 252.444 175.024 252.802 173.502 252.802C171.979 252.802 170.546 252.444 169.472 251.817L143.278 236.593C141.89 235.787 141.084 234.578 141.084 233.235C141.084 231.892 141.89 230.638 143.323 229.832L181.382 207.847C183.711 206.548 187.159 206.548 189.487 207.847L215.636 223.071C217.024 223.877 217.83 225.131 217.83 226.474Z" fill="#D6D4D2"/>
<path d="M27.6464 213.297C27.6595 215.422 29.9541 216.738 31.7796 215.67L175.525 132.681C175.538 132.668 175.538 132.668 175.538 132.668L178.511 130.96C180.193 129.982 181.784 127.245 181.771 125.315L181.502 27.8574L27.3682 116.843L27.6464 213.297Z" fill="white"/>
<path d="M177.363 19.0006L32.9782 102.38L30.6312 103.736C28.9234 104.701 27.3457 107.452 27.3457 109.381L27.3673 116.842L181.501 27.8566L181.483 21.3867C181.483 19.2745 179.188 17.9575 177.363 19.0006Z" fill="#F25A5A"/>
<path d="M40.4482 163.613L73.9277 144.286L74.0363 182.745L40.559 202.072L40.4482 163.613Z" fill="#81D672"/>
<path d="M89.3379 135.414L122.817 116.087L122.926 154.546L89.4486 173.873L89.3379 135.414Z" fill="#B5E5F4"/>
<path d="M138.228 107.217L171.707 87.8896L171.816 126.348L138.338 145.676L138.228 107.217Z" fill="#DD4A4A"/>
<path d="M36.9814 122.155L178.688 40.3408L178.782 72.6937L37.073 154.508L36.9814 122.155Z" fill="#E9E8E6"/>
<path d="M220.389 118.812L213.311 114.698L213.242 90.4766L220.32 94.5899L220.389 118.812Z" fill="#00649B"/>
<path d="M247.053 7.01222L254.131 11.1256C253.322 10.6552 252.2 10.7237 250.958 11.4409L243.88 7.32757C245.122 6.6104 246.244 6.54189 247.053 7.01222Z" fill="#3F9AE0"/>
<path d="M165.863 124.509L158.785 120.396C157.989 119.933 157.494 118.952 157.49 117.557L164.568 121.67C164.572 123.065 165.067 124.046 165.863 124.509Z" fill="#006CB5"/>
<path d="M164.568 121.669L157.49 117.556L157.334 62.4258L164.412 66.5391L164.568 121.669Z" fill="#3F9AE0"/>
<path d="M168.855 58.8449L161.777 54.7315L243.882 7.32812L250.961 11.4415L168.855 58.8449Z" fill="#006CB5"/>
<path d="M164.412 66.5384L157.334 62.4251C157.326 59.5885 159.323 56.1474 161.776 54.7314L168.854 58.8448C166.401 60.2608 164.404 63.7018 164.412 66.5384Z" fill="#005E87"/>
<path d="M250.957 11.4428C253.426 10.0176 255.42 11.1542 255.428 13.9907L255.584 69.1205C255.592 71.9386 253.611 75.3702 251.142 76.7955L241.428 82.4039L220.386 118.814L220.317 94.5926L169.037 124.199C166.585 125.615 164.574 124.488 164.566 121.67L164.41 66.5399C164.402 63.7033 166.399 60.2622 168.852 58.8462L250.957 11.4428Z" fill="#0074D1"/>
<path d="M190.658 51.3712C202.715 44.4103 212.541 50.0101 212.58 63.8927C212.62 77.7749 202.857 94.6843 190.801 101.645C178.719 108.62 168.893 103.021 168.854 89.1384C168.814 75.2558 178.577 58.3464 190.658 51.3712Z" fill="white"/>
<path d="M190.731 59.0277C192.553 57.9755 194.056 58.8032 194.062 60.9262C194.068 63.049 192.575 65.6352 190.752 66.6875C188.905 67.7541 187.377 66.9121 187.371 64.7892C187.365 62.6662 188.883 60.0944 190.731 59.0277Z" fill="#DDB040"/>
<path d="M190.656 62.1951C193.329 60.6518 195.742 60.5049 197.504 61.5089C199.256 62.5072 200.347 64.6734 200.355 67.7225L200.385 78.114L200.97 77.7761C201.838 77.2748 202.553 77.6707 202.556 78.6684C202.558 79.6772 201.849 80.8956 200.98 81.3969L194.961 84.872C194.969 87.5623 193.082 90.8409 190.741 92.1927C188.4 93.5444 186.491 92.4568 186.484 89.7666L180.464 93.2417C179.596 93.743 178.882 93.347 178.879 92.3382C178.876 91.3405 179.586 90.1222 180.454 89.621L181.04 89.283L181.01 78.8915C180.993 72.7708 185.31 65.2816 190.656 62.1951Z" fill="#FFD651"/>
<path d="M251.463 22.1816L251.475 26.4058L217.669 45.9235L217.657 41.6993L251.463 22.1816Z" fill="white"/>
<path d="M251.463 34.0547L251.475 38.2789L217.669 57.7966L217.657 53.5724L251.463 34.0547Z" fill="white"/>
<path d="M251.463 45.9258L251.475 50.15L217.669 69.6676L217.657 65.4435L251.463 45.9258Z" fill="white"/>
<path d="M251.463 57.7949L251.475 62.0191L217.669 81.5368L217.657 77.3126L251.463 57.7949Z" fill="white"/>
<path d="M34.236 103.914C35.9237 102.94 37.3152 103.706 37.3207 105.672C37.3263 107.638 35.9438 110.032 34.2561 111.007C32.5454 111.994 31.1306 111.215 31.125 109.249C31.1194 107.283 32.5253 104.902 34.236 103.914Z" fill="white"/>
<path d="M44.3848 98.0544C46.0955 97.0667 47.4871 97.8331 47.4927 99.799C47.4983 101.765 46.1157 104.16 44.4049 105.147C42.6941 106.135 41.3025 105.342 41.2969 103.376C41.2913 101.41 42.674 99.0422 44.3848 98.0544Z" fill="white"/>
<path d="M54.5576 92.1814C56.2683 91.1937 57.6599 91.9601 57.6655 93.9259C57.671 95.8917 56.2884 98.2865 54.5777 99.2742C52.8669 100.262 51.4753 99.4688 51.4697 97.503C51.4642 95.5372 52.8468 93.1691 54.5576 92.1814Z" fill="white"/>
</svg>
