<svg width="303" height="301" viewBox="0 0 303 301" fill="none" xmlns="http://www.w3.org/2000/svg">
<path d="M3.52794 190.464L13.3822 196.049L14.3465 147.132L3.38379 140.918L3.52794 190.464Z" fill="#C4C2C0"/>
<path d="M9.16797 104.592C5.91382 106.472 3.31055 111.004 3.31055 114.741L3.38668 140.918L14.3494 147.131L14.8629 121.085C14.8629 117.349 17.4662 112.817 20.7204 110.937L47.1656 95.6697L35.7903 89.2227L9.16797 104.592Z" fill="#D6D4D2"/>
<path d="M3.62314 222.397L12.7632 227.577L13.3846 196.052L3.53027 190.467L3.62314 222.397Z" fill="#E9E8E6"/>
<path d="M35.793 89.2234L47.1682 95.6705L91.8518 69.8748L80.4766 63.4277L35.793 89.2234Z" fill="#C4C2C0"/>
<path d="M80.4707 63.4299L91.846 69.877L132.004 46.6932L120.629 40.2461L80.4707 63.4299Z" fill="#D6D4D2"/>
<path d="M160.376 19.3089C159.316 18.6826 157.821 18.7789 156.182 19.7186L120.63 40.2434L132.005 46.6905L167.734 26.0631C169.373 25.0994 168.455 23.8625 169.516 24.4893L160.376 19.3089Z" fill="#E9E8E6"/>
<path d="M171.527 135.908L12.7556 227.579L12.4365 119.923C12.4365 116.181 15.0475 111.655 18.2966 109.77L165.319 24.8865C168.568 23.0012 171.208 24.5098 171.237 28.2518L171.527 135.908Z" fill="#494846"/>
<path d="M12.7666 227.57L12.8147 237.791L105.884 291.817C109.114 293.697 114.345 293.697 117.599 291.817L264.616 206.944C266.255 206.003 267.074 204.75 267.074 203.521L267.026 193.389C267.026 194.618 266.206 195.847 264.567 196.787L12.7666 227.57Z" fill="#B2B0AF"/>
<path d="M267.024 193.389C267.024 194.618 266.204 195.847 264.565 196.787L48.0713 223.253V258.258L105.882 291.817C109.112 293.697 114.343 293.697 117.597 291.817L264.613 206.943C266.252 206.003 267.072 204.75 267.072 203.52L267.024 193.389Z" fill="#C4C2C0"/>
<path d="M267.026 193.389C267.026 194.618 266.206 195.847 264.567 196.787L87.8174 218.394V281.33L105.884 291.817C109.114 293.697 114.345 293.697 117.599 291.817L264.615 206.943C266.254 206.003 267.074 204.75 267.074 203.52L267.026 193.389Z" fill="#D6D4D2"/>
<path d="M267.02 193.389C267.02 194.618 266.2 195.847 264.561 196.787L147.656 211.079V274.461L264.61 206.943C266.249 206.003 267.068 204.75 267.068 203.52L267.02 193.389Z" fill="#C4C2C0"/>
<path d="M267.023 193.389C267.023 194.618 266.203 195.847 264.564 196.787L231.716 200.803V225.935L264.612 206.943C266.251 206.003 267.071 204.75 267.071 203.52L267.023 193.389Z" fill="#B2B0AF"/>
<path d="M12.7754 227.565L105.847 281.652C109.073 283.527 114.319 283.527 117.567 281.652L264.574 196.777C267.837 194.894 267.854 191.855 264.627 189.98L171.556 135.893L12.7754 227.565Z" fill="#E9E8E6"/>
<path d="M156.314 160.456C156.05 160.608 156.049 160.868 156.31 161.02L163.074 164.951C163.335 165.103 163.785 165.103 164.049 164.951L170.837 161.031C171.119 160.868 171.102 160.619 170.841 160.467L164.077 156.536C163.816 156.384 163.385 156.373 163.102 156.536L156.314 160.456Z" fill="#494846"/>
<path d="M144.426 167.32C144.144 167.483 144.161 167.732 144.423 167.884L151.186 171.815C151.448 171.967 151.879 171.978 152.161 171.815L158.95 167.895C159.213 167.743 159.215 167.483 158.953 167.331L152.19 163.4C151.928 163.248 151.478 163.248 151.215 163.4L144.426 167.32Z" fill="#494846"/>
<path d="M132.525 174.189C132.261 174.342 132.26 174.602 132.521 174.754L139.285 178.685C139.546 178.837 139.996 178.837 140.26 178.685L147.067 174.754C147.33 174.602 147.313 174.352 147.051 174.2L140.288 170.27C140.027 170.118 139.595 170.107 139.332 170.259L132.525 174.189Z" fill="#494846"/>
<path d="M163.139 170.565C162.857 170.728 162.856 170.967 163.136 171.13L169.881 175.05C170.142 175.202 170.573 175.212 170.855 175.05L182.947 168.068C183.23 167.905 183.212 167.656 182.951 167.504L176.206 163.584C175.926 163.421 175.513 163.421 175.231 163.584L163.139 170.565Z" fill="#494846"/>
<path d="M151.062 177.53C150.799 177.682 150.778 177.932 151.059 178.095L157.803 182.014C158.065 182.166 158.515 182.166 158.778 182.014L165.567 178.095C165.849 177.932 165.832 177.682 165.57 177.53L158.826 173.61C158.545 173.448 158.133 173.448 157.851 173.61L151.062 177.53Z" fill="#494846"/>
<path d="M138.911 184.549C138.647 184.701 138.627 184.951 138.907 185.113L145.652 189.033C145.914 189.185 146.363 189.185 146.627 189.033L153.434 185.103C153.698 184.951 153.68 184.701 153.419 184.549L146.674 180.629C146.394 180.467 145.981 180.467 145.718 180.619L138.911 184.549Z" fill="#494846"/>
<path d="M126.766 191.562C126.503 191.714 126.483 191.964 126.763 192.127L133.508 196.046C133.769 196.198 134.219 196.198 134.482 196.046L141.29 192.116C141.553 191.964 141.555 191.703 141.293 191.551L134.548 187.632C134.268 187.469 133.837 187.48 133.574 187.632L126.766 191.562Z" fill="#494846"/>
<path d="M114.617 198.572C114.353 198.724 114.333 198.974 114.613 199.136L121.358 203.056C121.62 203.208 122.07 203.208 122.333 203.056L129.141 199.126C129.404 198.974 129.405 198.713 129.144 198.561L122.399 194.642C122.119 194.479 121.688 194.49 121.424 194.641L114.617 198.572Z" fill="#494846"/>
<path d="M102.488 205.579C102.206 205.742 102.204 205.98 102.485 206.143L109.229 210.063C109.491 210.215 109.922 210.226 110.204 210.063L116.993 206.143C117.256 205.991 117.258 205.731 116.996 205.579L110.251 201.659C109.971 201.496 109.54 201.507 109.277 201.659L102.488 205.579Z" fill="#494846"/>
<path d="M90.3365 212.594C90.0544 212.757 90.0531 212.996 90.3333 213.159L97.078 217.078C97.3396 217.23 97.7706 217.241 98.0527 217.078L104.841 213.159C105.105 213.007 105.106 212.746 104.845 212.594L98.1 208.675C97.8197 208.512 97.3886 208.523 97.1252 208.675L90.3365 212.594Z" fill="#494846"/>
<path d="M78.193 219.608C77.9108 219.771 77.9095 220.01 78.1898 220.173L84.9345 224.092C85.196 224.244 85.6271 224.255 85.9092 224.092L92.698 220.173C92.9802 220.01 92.9628 219.76 92.7013 219.608L85.9566 215.689C85.6763 215.526 85.2639 215.526 84.9818 215.689L78.193 219.608Z" fill="#494846"/>
<path d="M120.637 181.049C120.355 181.212 120.372 181.462 120.634 181.614L127.397 185.544C127.659 185.696 128.09 185.707 128.372 185.544L135.161 181.625C135.443 181.462 135.426 181.212 135.164 181.06L128.401 177.13C128.139 176.978 127.708 176.967 127.426 177.13L120.637 181.049Z" fill="#494846"/>
<path d="M108.736 187.926C108.472 188.078 108.471 188.339 108.732 188.491L115.496 192.421C115.757 192.573 116.207 192.573 116.47 192.421L123.278 188.491C123.541 188.339 123.543 188.078 123.281 187.926L116.518 183.996C116.256 183.844 115.806 183.844 115.543 183.996L108.736 187.926Z" fill="#494846"/>
<path d="M96.8479 194.79C96.5845 194.942 96.5831 195.202 96.8447 195.354L103.608 199.285C103.87 199.437 104.319 199.437 104.583 199.285L111.372 195.365C111.654 195.202 111.636 194.953 111.375 194.801L104.611 190.87C104.35 190.718 103.919 190.707 103.637 190.87L96.8479 194.79Z" fill="#494846"/>
<path d="M84.9681 201.649C84.6861 201.812 84.7035 202.061 84.965 202.213L91.7284 206.144C91.99 206.296 92.421 206.307 92.703 206.144L99.4919 202.224C99.7551 202.072 99.7566 201.812 99.4951 201.66L92.7317 197.729C92.4701 197.577 92.0202 197.577 91.757 197.729L84.9681 201.649Z" fill="#494846"/>
<path d="M73.0588 208.523C72.7954 208.675 72.794 208.936 73.0556 209.088L79.819 213.019C80.0805 213.171 80.5304 213.171 80.7937 213.018L87.6013 209.088C87.8646 208.936 87.8472 208.686 87.5857 208.534L80.8223 204.604C80.5607 204.452 80.1296 204.441 79.8664 204.593L73.0588 208.523Z" fill="#494846"/>
<path d="M61.1791 215.385C60.897 215.548 60.9144 215.798 61.1759 215.95L67.9393 219.88C68.2009 220.032 68.632 220.043 68.9141 219.88L75.7028 215.961C75.9849 215.798 75.9676 215.548 75.706 215.396L68.9426 211.466C68.6811 211.314 68.25 211.303 67.9679 211.466L61.1791 215.385Z" fill="#494846"/>
<path d="M49.2726 222.255C49.0094 222.407 49.0079 222.668 49.2694 222.82L56.0328 226.75C56.2944 226.902 56.7443 226.902 57.0075 226.75L63.8152 222.82C64.0784 222.668 64.0799 222.407 63.8183 222.255L57.055 218.325C56.7934 218.173 56.3435 218.173 56.0802 218.325L49.2726 222.255Z" fill="#494846"/>
<path d="M61.3979 229.302C61.1347 229.454 61.1144 229.704 61.3947 229.866L68.1394 233.786C68.4009 233.938 68.8509 233.938 69.1141 233.786L81.225 226.794C81.5069 226.631 81.4896 226.381 81.228 226.229L74.4833 222.31C74.2031 222.147 73.7907 222.147 73.5087 222.31L61.3979 229.302Z" fill="#494846"/>
<path d="M169.863 180.702C169.599 180.854 169.579 181.104 169.86 181.266L176.604 185.186C176.885 185.349 177.316 185.338 177.579 185.186L195.049 175.1C195.331 174.937 195.333 174.698 195.053 174.535L188.308 170.615C188.028 170.452 187.615 170.452 187.333 170.615L169.863 180.702Z" fill="#494846"/>
<path d="M156.76 188.27C156.497 188.422 156.477 188.671 156.757 188.834L163.502 192.754C163.782 192.917 164.213 192.906 164.476 192.754L171.284 188.823C171.547 188.671 171.549 188.433 171.268 188.27L164.524 184.35C164.243 184.187 163.831 184.187 163.568 184.339L156.76 188.27Z" fill="#494846"/>
<path d="M144.873 195.131C144.591 195.293 144.589 195.532 144.869 195.695L151.614 199.615C151.894 199.778 152.307 199.778 152.589 199.615L159.378 195.695C159.66 195.532 159.661 195.293 159.381 195.131L152.636 191.211C152.356 191.048 151.943 191.048 151.661 191.211L144.873 195.131Z" fill="#494846"/>
<path d="M132.971 202.007C132.708 202.16 132.688 202.409 132.968 202.572L139.713 206.492C139.993 206.655 140.424 206.644 140.687 206.492L147.495 202.561C147.758 202.409 147.778 202.16 147.498 201.997L140.754 198.077C140.473 197.914 140.042 197.925 139.779 198.077L132.971 202.007Z" fill="#494846"/>
<path d="M121.083 208.871C120.82 209.023 120.8 209.272 121.08 209.435L127.825 213.355C128.105 213.518 128.536 213.507 128.8 213.355L135.588 209.435C135.871 209.273 135.872 209.034 135.592 208.871L128.847 204.951C128.567 204.788 128.154 204.788 127.872 204.951L121.083 208.871Z" fill="#494846"/>
<path d="M109.197 215.731C108.915 215.894 108.913 216.133 109.194 216.296L115.938 220.215C116.219 220.378 116.631 220.378 116.913 220.215L123.702 216.296C123.965 216.144 123.985 215.894 123.705 215.731L116.96 211.811C116.68 211.649 116.249 211.659 115.986 211.811L109.197 215.731Z" fill="#494846"/>
<path d="M97.2944 222.606C97.0311 222.758 97.011 223.007 97.2912 223.17L104.036 227.09C104.316 227.253 104.747 227.242 105.011 227.09L111.818 223.159C112.081 223.007 112.083 222.769 111.803 222.606L105.058 218.686C104.778 218.523 104.365 218.523 104.102 218.675L97.2944 222.606Z" fill="#494846"/>
<path d="M73.5053 236.341C73.2421 236.493 73.2219 236.742 73.5021 236.905L80.2468 240.825C80.5271 240.988 80.9583 240.977 81.2215 240.825L100.159 229.891C100.441 229.729 100.442 229.49 100.162 229.327L93.4172 225.407C93.137 225.244 92.7246 225.244 92.4425 225.407L73.5053 236.341Z" fill="#494846"/>
<path d="M181.538 187.492C181.274 187.644 181.254 187.894 181.534 188.056L188.279 191.976C188.559 192.139 188.99 192.128 189.254 191.976L206.724 181.89C207.006 181.727 207.008 181.488 206.727 181.325L199.983 177.405C199.702 177.242 199.29 177.242 199.008 177.405L181.538 187.492Z" fill="#494846"/>
<path d="M183.99 195.017L117.224 233.568C116.953 233.716 116.533 233.741 116.237 233.568L109.504 229.646C109.208 229.498 109.233 229.227 109.504 229.079L176.27 190.529C176.542 190.381 176.961 190.356 177.257 190.529L183.99 194.45C184.286 194.623 184.262 194.869 183.99 195.017Z" fill="#494846"/>
<path d="M63.8087 224.027L57.0058 227.945C56.7627 228.097 56.3073 228.097 56.0339 227.945L49.2613 224.027C49.1397 223.936 49.0791 223.845 49.0791 223.754V222.539C49.0791 222.63 49.1397 222.752 49.2613 222.812L56.0339 226.761C56.3073 226.912 56.7323 226.912 57.0058 226.761L63.8087 222.812C63.9605 222.752 64.0213 222.63 64.0213 222.539V223.724C64.0213 223.845 63.9605 223.936 63.8087 224.027Z" fill="#21201F"/>
<path d="M61.1627 217.133C61.0413 217.073 60.9805 216.982 60.9805 216.86V215.676C60.9805 215.767 61.0413 215.858 61.1627 215.949L67.9352 219.867C68.2087 220.019 68.6339 220.049 68.9071 219.867L75.7101 215.949C75.8317 215.888 75.8923 215.767 75.8923 215.676V216.891C75.8923 216.982 75.8317 217.073 75.7101 217.164L68.9071 221.082C68.6339 221.234 68.2087 221.234 67.9352 221.082L61.1627 217.133Z" fill="#21201F"/>
<path d="M84.9773 203.408C84.8253 203.347 84.7646 203.226 84.7646 203.135V201.92C84.7646 202.041 84.8253 202.132 84.9773 202.224L91.7194 206.141C91.9928 206.293 92.4179 206.293 92.6913 206.141L99.4943 202.224C99.6159 202.163 99.6765 202.041 99.6765 201.95L99.7069 203.135C99.7069 203.256 99.6159 203.347 99.4943 203.438L92.6913 207.356C92.4179 207.508 91.9928 207.508 91.7194 207.356L84.9773 203.408Z" fill="#21201F"/>
<path d="M110.215 210.059L116.987 206.141C117.139 206.081 117.2 205.959 117.2 205.868V207.052C117.2 207.174 117.139 207.265 116.987 207.356L110.215 211.274C109.942 211.426 109.486 211.426 109.243 211.274L102.501 207.356C102.349 207.265 102.288 207.174 102.288 207.052V205.868C102.288 205.959 102.349 206.05 102.501 206.141L109.243 210.059C109.486 210.211 109.911 210.242 110.215 210.059Z" fill="#21201F"/>
<path d="M110.577 237.268L110.607 238.422C110.607 238.543 110.516 238.634 110.395 238.695L92.9013 248.808C92.6278 248.96 92.2028 248.96 91.9294 248.808L85.1872 244.891C85.0352 244.8 84.9746 244.708 84.9746 244.617V243.402C84.9746 243.493 85.0352 243.615 85.1872 243.676L91.9294 247.594C92.2028 247.776 92.6278 247.745 92.9013 247.594L110.395 237.511C110.486 237.419 110.577 237.359 110.577 237.268Z" fill="#21201F"/>
<path d="M108.726 189.683C108.605 189.623 108.544 189.532 108.544 189.41V188.226C108.544 188.317 108.605 188.408 108.726 188.499L115.499 192.417C115.772 192.569 116.197 192.569 116.471 192.417L123.274 188.499C123.426 188.408 123.486 188.317 123.486 188.195V189.41C123.486 189.501 123.426 189.623 123.274 189.683L116.471 193.632C116.197 193.783 115.772 193.783 115.499 193.632L108.726 189.683Z" fill="#21201F"/>
<path d="M73.072 210.302C72.9202 210.211 72.8594 210.119 72.8594 209.998V208.813C72.8594 208.905 72.9202 209.026 73.072 209.087L79.8143 213.005C80.0876 213.156 80.5432 213.156 80.7862 213.005L87.6196 209.087C87.741 209.026 87.8018 208.905 87.8018 208.813V210.028C87.8018 210.119 87.741 210.211 87.6196 210.302L80.8166 214.22C80.5432 214.371 80.0876 214.371 79.8143 214.22L73.072 210.302Z" fill="#21201F"/>
<path d="M97.3093 224.364C97.1573 224.303 97.0967 224.182 97.0967 224.091V222.906C97.0967 222.997 97.1573 223.089 97.2789 223.18L104.051 227.098C104.325 227.249 104.75 227.249 105.023 227.098L111.826 223.149C111.948 223.089 112.008 222.997 112.008 222.876V224.091C112.008 224.182 111.948 224.273 111.826 224.364L105.023 228.282C104.75 228.434 104.325 228.464 104.051 228.282L97.3093 224.364Z" fill="#21201F"/>
<path d="M96.673 196.272L96.6426 195.088C96.6426 195.179 96.7338 195.27 96.8552 195.361L103.628 199.279C103.871 199.431 104.326 199.431 104.6 199.279L111.372 195.361C111.524 195.27 111.585 195.179 111.585 195.088V196.272C111.585 196.394 111.524 196.485 111.372 196.576L104.6 200.494C104.326 200.646 103.871 200.646 103.628 200.494L96.8552 196.546C96.7338 196.485 96.673 196.363 96.673 196.272Z" fill="#21201F"/>
<path d="M85.922 224.093L92.6945 220.176C92.8463 220.085 92.9071 219.993 92.9071 219.902V221.087C92.9071 221.208 92.8463 221.299 92.6945 221.39L85.922 225.308C85.6485 225.46 85.1931 225.46 84.9501 225.308L78.2077 221.39C78.0559 221.299 77.9951 221.208 77.9951 221.087V219.902C77.9951 219.993 78.0559 220.085 78.2077 220.176L84.9501 224.093C85.1931 224.245 85.6181 224.245 85.922 224.093Z" fill="#21201F"/>
<path d="M81.2378 228.012L69.12 234.997C68.8468 235.149 68.3911 235.149 68.1481 234.997L61.406 231.079C61.2542 230.988 61.1934 230.897 61.1934 230.806V229.591C61.1934 229.682 61.2542 229.804 61.406 229.864L68.1481 233.782C68.3911 233.934 68.8468 233.934 69.12 233.782L81.2378 226.797C81.3594 226.706 81.42 226.614 81.42 226.523V227.708C81.42 227.829 81.3594 227.921 81.2378 228.012Z" fill="#21201F"/>
<path d="M97.0936 218.292L90.3513 214.374C90.1995 214.283 90.1387 214.192 90.1387 214.07V212.886C90.1387 212.977 90.1995 213.068 90.3513 213.159L97.0936 217.077C97.3366 217.229 97.7617 217.229 98.0655 217.077L104.838 213.159C104.99 213.098 105.051 212.977 105.051 212.886V214.07C105.051 214.192 104.99 214.283 104.838 214.374L98.0655 218.292C97.7921 218.443 97.3366 218.443 97.0936 218.292Z" fill="#21201F"/>
<path d="M100.162 231.102L81.2107 242.036C80.9679 242.187 80.5426 242.187 80.239 242.036L73.4967 238.088C73.3753 238.027 73.3145 237.936 73.3145 237.814V236.63C73.3145 236.721 73.3753 236.812 73.4967 236.903L80.239 240.821C80.5426 240.973 80.9679 240.973 81.2107 240.821L100.162 229.887C100.314 229.796 100.375 229.705 100.375 229.614V230.799C100.375 230.89 100.314 231.011 100.162 231.102Z" fill="#21201F"/>
<path d="M115.955 221.418L109.213 217.5C109.061 217.409 109 217.318 109 217.227V216.012C109 216.103 109.061 216.224 109.182 216.285L115.955 220.203C116.228 220.385 116.623 220.385 116.927 220.203L123.699 216.285C123.851 216.224 123.912 216.103 123.912 216.012V217.227C123.912 217.318 123.851 217.409 123.699 217.5L116.927 221.418C116.623 221.57 116.228 221.57 115.955 221.418Z" fill="#21201F"/>
<path d="M132.539 175.951C132.387 175.89 132.326 175.769 132.326 175.678V174.463C132.326 174.584 132.387 174.676 132.539 174.767L139.281 178.684C139.554 178.836 140.01 178.836 140.253 178.684L147.056 174.767C147.208 174.676 147.268 174.584 147.268 174.493V175.678C147.268 175.799 147.208 175.89 147.086 175.951L140.253 179.899C140.01 180.051 139.554 180.051 139.281 179.899L132.539 175.951Z" fill="#21201F"/>
<path d="M151.607 200.824L144.865 196.906C144.744 196.815 144.652 196.724 144.652 196.633V195.418C144.652 195.509 144.744 195.631 144.865 195.691L151.607 199.609C151.881 199.791 152.306 199.791 152.579 199.609L159.382 195.691C159.504 195.631 159.595 195.509 159.595 195.418V196.602C159.595 196.724 159.534 196.815 159.382 196.906L152.579 200.824C152.306 200.976 151.911 200.976 151.607 200.824Z" fill="#21201F"/>
<path d="M127.834 214.556L121.091 210.639C120.94 210.548 120.879 210.456 120.879 210.365V209.15C120.879 209.272 120.94 209.363 121.091 209.424L127.834 213.372C128.107 213.524 128.532 213.524 128.806 213.372L135.609 209.424C135.7 209.363 135.791 209.272 135.791 209.181L135.821 210.365C135.821 210.456 135.73 210.548 135.609 210.639L128.806 214.556C128.532 214.708 128.107 214.708 127.834 214.556Z" fill="#21201F"/>
<path d="M134.481 196.058L141.284 192.11C141.436 192.05 141.497 191.928 141.497 191.837V193.021C141.497 193.143 141.436 193.234 141.284 193.325L134.481 197.243C134.238 197.395 133.783 197.395 133.509 197.243L126.767 193.325C126.646 193.264 126.555 193.143 126.555 193.052V191.837C126.555 191.958 126.615 192.05 126.767 192.141L133.509 196.058C133.783 196.21 134.208 196.21 134.481 196.058Z" fill="#21201F"/>
<path d="M122.331 203.074L129.134 199.126C129.286 199.065 129.347 198.944 129.347 198.853V200.037C129.347 200.158 129.286 200.249 129.134 200.341L122.331 204.258C122.088 204.41 121.632 204.41 121.359 204.258L114.617 200.341C114.495 200.249 114.404 200.158 114.404 200.067V198.853C114.404 198.974 114.465 199.065 114.617 199.156L121.359 203.074C121.632 203.226 122.058 203.226 122.331 203.074Z" fill="#21201F"/>
<path d="M139.706 207.693L132.964 203.775C132.842 203.684 132.781 203.593 132.781 203.502L132.751 202.287C132.751 202.409 132.842 202.5 132.964 202.591L139.706 206.508C139.979 206.66 140.435 206.66 140.678 206.508L147.481 202.56C147.633 202.5 147.693 202.378 147.693 202.287V203.471C147.693 203.593 147.633 203.684 147.511 203.775L140.678 207.693C140.435 207.845 140.01 207.845 139.706 207.693Z" fill="#21201F"/>
<path d="M144.442 169.089C144.29 168.998 144.229 168.906 144.229 168.815V167.601C144.229 167.692 144.29 167.813 144.412 167.874L151.184 171.822C151.458 171.974 151.883 171.974 152.156 171.822L158.959 167.904C159.081 167.813 159.141 167.722 159.141 167.601V168.815C159.141 168.906 159.081 169.028 158.959 169.089L152.156 173.007C151.883 173.189 151.458 173.158 151.184 173.007L144.442 169.089Z" fill="#21201F"/>
<path d="M120.629 182.814C120.507 182.753 120.446 182.632 120.446 182.541V181.326C120.446 181.448 120.507 181.539 120.629 181.63L127.401 185.548C127.674 185.7 128.1 185.7 128.373 185.548L135.176 181.63C135.297 181.539 135.358 181.448 135.358 181.357V182.541C135.358 182.632 135.297 182.753 135.176 182.814L128.373 186.732C128.1 186.914 127.674 186.884 127.401 186.732L120.629 182.814Z" fill="#21201F"/>
<path d="M146.632 189.041L153.435 185.093C153.526 185.032 153.617 184.971 153.617 184.88L153.647 186.034C153.647 186.125 153.586 186.216 153.435 186.307L146.632 190.225C146.389 190.377 145.933 190.377 145.66 190.225L138.918 186.307C138.796 186.247 138.705 186.125 138.705 186.034V184.819C138.705 184.941 138.766 185.032 138.918 185.123L145.66 189.041C145.933 189.193 146.358 189.193 146.632 189.041Z" fill="#21201F"/>
<path d="M156.138 161.952L156.107 160.737C156.107 160.859 156.198 160.95 156.32 161.011L163.093 164.959C163.336 165.111 163.791 165.111 164.064 164.959L170.837 161.041C170.989 160.95 171.05 160.859 171.05 160.737V161.952C171.05 162.043 170.989 162.165 170.837 162.226L164.064 166.143C163.791 166.295 163.336 166.295 163.093 166.143L156.32 162.226C156.198 162.134 156.138 162.043 156.138 161.952Z" fill="#21201F"/>
<path d="M157.804 183.209L151.062 179.291C150.941 179.23 150.85 179.109 150.85 179.017V177.833C150.85 177.924 150.91 178.015 151.062 178.106L157.804 182.024C158.078 182.176 158.503 182.176 158.776 182.024L165.579 178.106C165.701 178.015 165.761 177.924 165.761 177.803L165.792 179.017C165.792 179.109 165.701 179.23 165.579 179.291L158.776 183.209C158.533 183.36 158.078 183.36 157.804 183.209Z" fill="#21201F"/>
<path d="M183.987 195.026C184.139 194.934 184.199 194.843 184.199 194.722V195.937C184.199 196.028 184.139 196.149 183.987 196.21L117.233 234.78C116.959 234.932 116.534 234.932 116.261 234.78L109.488 230.863C109.366 230.772 109.306 230.68 109.306 230.559V229.374C109.306 229.466 109.366 229.587 109.488 229.648L116.23 233.566C116.534 233.748 116.959 233.717 117.233 233.566L183.987 195.026Z" fill="#21201F"/>
<path d="M163.517 193.961L156.775 190.043C156.623 189.952 156.562 189.861 156.562 189.77V188.555C156.562 188.646 156.623 188.767 156.745 188.828L163.517 192.746C163.791 192.928 164.216 192.898 164.489 192.746L171.292 188.828C171.414 188.737 171.474 188.646 171.474 188.555V189.77C171.474 189.861 171.414 189.952 171.292 190.012L164.489 193.961C164.216 194.113 163.791 194.113 163.517 193.961Z" fill="#21201F"/>
<path d="M170.868 175.042L182.955 168.057C183.077 167.996 183.168 167.874 183.168 167.783V168.998C183.168 169.089 183.107 169.18 182.955 169.271L170.868 176.257C170.564 176.408 170.139 176.408 169.896 176.257L163.154 172.339C163.002 172.248 162.941 172.157 162.941 172.035V170.851C162.941 170.942 163.002 171.063 163.124 171.124L169.896 175.042C170.139 175.194 170.564 175.224 170.868 175.042Z" fill="#21201F"/>
<path d="M177.577 185.186L195.04 175.103C195.192 175.011 195.253 174.92 195.253 174.829L195.283 176.014C195.283 176.135 195.192 176.226 195.07 176.317L177.577 186.4C177.334 186.552 176.878 186.552 176.605 186.4L169.863 182.483C169.741 182.391 169.65 182.3 169.65 182.179V180.994C169.65 181.085 169.741 181.177 169.863 181.268L176.605 185.186C176.878 185.368 177.334 185.337 177.577 185.186Z" fill="#21201F"/>
<path d="M206.942 181.604V182.818C206.942 182.909 206.881 183 206.73 183.092L189.266 193.175C188.993 193.326 188.568 193.326 188.295 193.175L181.552 189.257C181.401 189.166 181.34 189.075 181.34 188.984V187.769C181.34 187.89 181.401 187.981 181.552 188.072L188.295 191.99C188.568 192.142 188.993 192.142 189.266 191.99L206.73 181.877C206.881 181.816 206.942 181.695 206.942 181.604Z" fill="#21201F"/>
<path d="M85.1801 243.126C84.9169 243.278 84.8967 243.527 85.1769 243.69L91.9216 247.61C92.2019 247.773 92.6331 247.762 92.8963 247.61L110.386 237.512C110.649 237.36 110.669 237.111 110.389 236.948L103.644 233.028C103.364 232.865 102.933 232.876 102.669 233.028L85.1801 243.126Z" fill="#494846"/>
<path d="M158.475 149.652C160.988 148.202 165.076 148.202 167.572 149.652L219.698 179.945C222.195 181.395 222.181 183.763 219.669 185.214L97.5531 255.717C95.0406 257.168 90.9527 257.168 88.4565 255.717L36.3303 225.425C33.8341 223.974 33.8474 221.606 36.3599 220.156L158.475 149.652ZM90.507 254.533C91.8837 255.333 94.1303 255.333 95.5158 254.534L217.631 184.03C219.017 183.23 219.024 181.929 217.648 181.129L165.522 150.836C164.145 150.036 161.898 150.036 160.513 150.836L38.3972 221.34C37.0117 222.14 37.0043 223.441 38.3809 224.241L90.507 254.533Z" fill="#A0A8AA"/>
<path d="M186.197 235.451L160.736 250.235C159.342 251.047 157.668 251.047 156.299 250.26L140.069 240.878C138.573 240.041 138.573 237.911 140.018 237.048L165.504 222.264C166.873 221.453 168.572 221.453 169.942 222.239L186.197 231.622C187.667 232.458 187.667 234.589 186.197 235.451Z" fill="#A0A8AA"/>
<path d="M41.002 210.498C41.2699 210.34 41.6354 210.364 42.0496 210.596C42.9145 211.095 43.5723 212.313 43.5723 213.288L163.798 143.757C163.798 142.783 163.14 141.565 162.287 141.077C161.873 140.834 161.496 140.822 161.228 140.98L41.002 210.498Z" fill="#21201F"/>
<path d="M42.054 210.596C41.2062 210.106 40.535 210.551 40.5322 211.525L43.5733 213.281C43.576 212.307 42.9095 211.09 42.054 210.596Z" fill="#383736"/>
<path d="M164.034 33.9863L164.013 34.0141V34.0002L164.034 33.9863Z" fill="white"/>
<path d="M166.568 33.996V29.583L17.1338 115.815L17.1612 126.257L166.586 40.0303L166.568 33.996Z" fill="white"/>
<path d="M17.1641 126.253L17.3963 215.072L17.421 219.583L21.4755 217.124L166.856 133.203L166.588 40.0264L17.1641 126.253Z" fill="#3F9AE0"/>
<path d="M140.223 82.1561C143.141 80.4718 145.506 81.8196 145.515 85.1718C145.525 88.5241 143.175 92.5939 140.258 94.2782L50.6465 146.015C47.7292 147.7 45.364 146.352 45.3545 143C45.345 139.647 47.6949 135.577 50.6121 133.893L140.223 82.1561Z" fill="#0074D1"/>
<path d="M193.615 181.588L108.234 231.222C104.463 233.408 99.2762 233.108 93.5328 229.808C82.1743 223.25 72.916 207.263 72.9589 194.189L73.0447 164.272C73.0876 154.457 66.1869 142.541 57.7 137.655L54.957 136.069L140.381 86.4346L143.124 88.0204C151.611 92.9068 158.511 104.822 158.469 114.595L158.383 144.555C158.34 157.628 167.555 173.616 178.957 180.174C184.7 183.474 189.886 183.774 193.615 181.588Z" fill="#F2F2F2"/>
<path d="M196.167 185.957L110.745 235.599C115.095 233.072 117.796 227.704 117.818 220.084L203.239 170.442C203.218 178.062 200.517 183.43 196.167 185.957Z" fill="#D6D4D2"/>
<path d="M117.824 219.045L203.246 169.403L203.243 170.441L117.821 220.082L117.824 219.045Z" fill="#D6D4D2"/>
<path d="M122.902 207.904L208.324 158.263C205.199 160.079 203.258 163.931 203.242 169.407L117.82 219.049C117.836 213.573 119.777 209.72 122.902 207.904Z" fill="#D6D4D2"/>
<path d="M184.944 282.59L270.366 232.948L270.354 237.061L184.933 286.702L184.944 282.59Z" fill="#C4C2C0"/>
<path d="M57.6945 137.645C66.2067 142.559 73.0841 154.471 73.0563 164.252L72.9715 194.188C72.9344 207.267 82.158 223.243 93.5396 229.814C104.921 236.385 114.205 231.095 114.242 218.016L114.245 216.979C114.283 203.678 123.761 198.277 135.336 204.96C146.943 211.661 156.328 227.952 156.29 241.253L156.248 256.184C156.232 261.593 160.057 268.217 164.764 270.935L184.948 282.588L184.936 286.701L164.752 275.048C158.078 271.194 152.647 261.787 152.668 254.118L152.711 239.187C152.742 228.146 144.933 214.657 135.324 209.109C125.716 203.562 117.856 208.004 117.824 219.045L117.821 220.082C117.778 235.421 106.877 241.633 93.528 233.926C80.1794 226.22 69.3492 207.461 69.3927 192.122L69.4775 162.186C69.4989 154.665 64.2282 145.536 57.6829 141.757L54.9424 140.175L54.954 136.062L57.6945 137.645Z" fill="#B2B0AF"/>
<path d="M120.392 203.521L205.813 153.88C209.64 151.656 214.934 151.958 220.759 155.321C232.366 162.023 241.751 178.314 241.713 191.615L156.291 241.257C156.329 227.956 146.945 211.665 135.337 204.963C129.512 201.6 124.219 201.297 120.392 203.521Z" fill="#F2F2F2"/>
<path d="M205.812 153.877L120.391 203.519C121.946 202.615 123.754 202.153 125.731 202.119L211.154 152.478C209.176 152.511 207.368 152.973 205.812 153.877Z" fill="#D6D4D2"/>
<path d="M270.383 232.938L184.959 282.572L164.771 270.956C160.056 268.213 156.241 261.613 156.241 256.169L156.284 241.253C156.327 227.966 146.94 211.678 135.325 204.949C131.896 202.977 128.596 202.077 125.724 202.12L211.148 152.486C214.019 152.443 217.32 153.343 220.749 155.315C232.364 162.001 241.751 178.332 241.708 191.619L241.666 206.535C241.666 211.935 245.48 218.579 250.195 221.279L270.383 232.938Z" fill="#F2F2F2"/>
<path d="M260.573 232.206L183.722 276.868L180.164 274.853L257.016 230.148L260.573 232.206Z" fill="#D6D4D2"/>
<path d="M246.423 223.933L169.443 268.681L166.914 267.224C166.614 267.052 166.314 266.838 166.014 266.581L243.68 221.447C244.537 222.39 245.437 223.204 246.423 223.933Z" fill="#D6D4D2"/>
<path d="M238.323 212.186L160.614 257.363C160.571 256.934 160.528 256.548 160.528 256.163V253.291L237.509 208.543C237.637 209.743 237.937 210.986 238.323 212.186Z" fill="#D6D4D2"/>
<path d="M237.426 192.172V196.244L160.574 240.906C160.574 239.62 160.489 238.334 160.274 237.006L237.426 192.172Z" fill="#D6D4D2"/>
<path d="M235.45 180.941L157.57 226.203C157.184 225.089 156.712 223.974 156.155 222.903L234.164 177.598C234.636 178.712 235.064 179.827 235.45 180.941Z" fill="#D6D4D2"/>
<path d="M202.182 183.731L150.754 213.646C150.068 212.703 149.34 211.76 148.611 210.86L199.954 180.945C200.768 181.846 201.497 182.745 202.182 183.731Z" fill="#D6D4D2"/>
<path d="M190.999 173.787L140.471 203.187C139.485 202.459 138.5 201.816 137.471 201.216C137.385 201.173 137.256 201.13 137.171 201.044L186.584 172.287C187.999 172.544 189.499 173.016 190.999 173.787Z" fill="#D6D4D2"/>
<path d="M148.955 99.5087L70.946 144.857C70.3029 143.828 69.6173 142.885 68.8887 141.942L146.769 96.6797C147.54 97.5799 148.269 98.523 148.955 99.5087Z" fill="#D6D4D2"/>
<path d="M154.142 125.312V129.383L77.29 174.046L77.3329 169.974L154.142 125.312Z" fill="#D6D4D2"/>
<path d="M164.556 172.756L86.6334 218.019C85.9048 217.119 85.1762 216.133 84.5332 215.147L162.456 169.885C163.142 170.871 163.828 171.857 164.556 172.756Z" fill="#D6D4D2"/>
<path d="M157.442 160.419L79.5617 205.681C79.09 204.566 78.7473 203.409 78.4473 202.252L156.242 157.075C156.585 158.19 156.97 159.304 157.442 160.419Z" fill="#D6D4D2"/>
<path d="M154.14 145.84L77.2461 190.545L77.289 186.43L154.098 141.768V144.554C154.098 144.982 154.098 145.411 154.14 145.84Z" fill="#D6D4D2"/>
<path d="M154.101 112.969L76.6072 157.974C76.35 156.817 76.0499 155.617 75.6641 154.46L153.459 109.24C153.802 110.526 154.016 111.769 154.101 112.969Z" fill="#D6D4D2"/>
<path d="M228.678 168.387L208.35 180.207C204.278 174.121 199.177 170.22 192.748 168.763L213.076 156.943C219.505 158.401 224.649 162.301 228.678 168.387Z" fill="#E19CBD"/>
<path d="M44.5462 105.176C44.5891 106.89 43.3891 108.991 41.8888 109.848C40.3887 110.705 39.2314 109.976 39.1885 108.262C39.1885 106.547 40.3887 104.533 41.8888 103.633C43.3891 102.775 44.5462 103.461 44.5462 105.176Z" fill="#F25A5A"/>
<path d="M36.1889 110.016C36.1889 111.731 34.9887 113.831 33.4886 114.688C31.9883 115.545 30.8312 114.817 30.8312 113.102C30.7883 111.431 31.9883 109.373 33.4886 108.516C34.9887 107.616 36.146 108.302 36.1889 110.016Z" fill="#F25A5A"/>
<path d="M27.7874 114.863C27.7874 116.577 26.5872 118.677 25.0871 119.534C23.6297 120.392 22.4297 119.706 22.4297 117.991C22.4297 116.277 23.587 114.22 25.0871 113.362C26.5872 112.505 27.7874 113.148 27.7874 114.863Z" fill="#F25A5A"/>
<path d="M217.422 240.762L205.508 251.023L204.026 253.807L201.493 258.585L206.859 257.394L213.786 255.866L223.063 247.876L217.422 240.762Z" fill="#EFC348"/>
<path d="M213.564 235.898L205.508 251.025L217.422 240.764L213.564 235.898Z" fill="#FFD651"/>
<path d="M223.06 247.881L213.783 255.871L227.072 252.941L223.06 247.881Z" fill="#DDB040"/>
<path d="M282.382 205.878L229.659 251.636C226.284 254.555 220.226 253.049 216.124 248.297C212.023 243.546 211.423 237.329 214.795 234.423L267.463 188.71C264.132 191.626 264.765 197.822 268.847 202.539C272.948 207.291 279.006 208.798 282.382 205.878Z" fill="#F25A5A"/>
<path d="M268.847 202.536C267.709 201.221 266.85 199.79 266.259 198.349L213.541 244.105C214.13 245.546 214.987 246.976 216.125 248.294C217.115 249.44 218.22 250.393 219.372 251.145L272.093 205.387C270.941 204.635 269.837 203.682 268.847 202.536Z" fill="#DD4A4A"/>
<path d="M267.464 188.71L214.796 234.423C212.359 236.523 212.007 240.353 213.542 244.109L266.26 198.352C264.732 194.622 265.062 190.813 267.464 188.71Z" fill="#F25A5A"/>
<path d="M272.092 205.387L219.371 251.145C222.994 253.51 227.098 253.847 229.659 251.632L282.381 205.874C279.82 208.09 275.716 207.752 272.092 205.387Z" fill="#CC4848"/>
<path d="M276.328 181.019L267.508 188.665C265.045 190.792 264.712 194.682 266.302 198.476L275.123 190.829C273.532 187.036 273.865 183.146 276.328 181.019Z" fill="#D6D4D2"/>
<path d="M277.662 194.899C276.556 193.617 275.713 192.228 275.125 190.826L266.305 198.473C266.893 199.875 267.736 201.264 268.842 202.545C269.841 203.702 270.957 204.662 272.122 205.416L280.942 197.77C279.777 197.015 278.661 196.055 277.662 194.899Z" fill="#C4C2C0"/>
<path d="M280.939 197.776L272.119 205.423C275.737 207.768 279.829 208.095 282.381 205.891L291.201 198.244C288.649 200.449 284.557 200.121 280.939 197.776Z" fill="#B2B0AF"/>
<path d="M289.853 184.369C293.954 189.119 294.558 195.339 291.2 198.239C287.826 201.153 281.76 199.649 277.659 194.9C273.557 190.15 272.953 183.93 276.327 181.017C279.685 178.117 285.751 179.62 289.853 184.369Z" fill="#E9E8E6"/>
<path d="M282.424 176.946L277.881 180.869C275.677 182.773 275.285 186.163 276.542 189.547L281.085 185.624C279.828 182.24 280.22 178.85 282.424 176.946Z" fill="#EFC348"/>
<path d="M286.917 192.745L282.374 196.668C285.724 198.775 289.458 199.034 291.813 197L296.356 193.076C294 195.11 290.267 194.852 286.917 192.745Z" fill="#CEA03A"/>
<path d="M283.663 189.932C282.495 188.58 281.636 187.104 281.087 185.626L276.544 189.549C277.093 191.027 277.953 192.504 279.12 193.855C280.111 195.002 281.22 195.944 282.374 196.67L286.916 192.747C285.763 192.021 284.653 191.079 283.663 189.932Z" fill="#DDB040"/>
<path d="M295.069 180.079C298.937 184.558 299.5 190.36 296.356 193.076C293.189 195.81 287.531 194.408 283.663 189.929C279.823 185.483 279.26 179.68 282.426 176.946C285.571 174.23 291.229 175.633 295.069 180.079Z" fill="#FFD651"/>
<path d="M206.859 257.4L201.493 258.591L204.026 253.813L206.859 257.4Z" fill="#434240"/>
<path d="M162.328 104.161L156.445 100.743L156.355 69.0225L162.238 72.4412L162.328 104.161Z" fill="#6D797A"/>
<path d="M162.238 72.4412L156.355 69.0225L261.393 8.37891L267.276 11.7976L162.238 72.4412Z" fill="#A0A8AA"/>
<path d="M162.238 72.4375L156.355 69.0188L240.455 20.4639L246.338 23.8826L162.238 72.4375Z" fill="#7E8A8C"/>
<path d="M162.238 72.4417L156.355 69.023L219.517 32.5566L225.4 35.9754L162.238 72.4417Z" fill="#A0A8AA"/>
<path d="M162.238 72.4407L156.355 69.022L197.992 44.9834L203.874 48.4021L162.238 72.4407Z" fill="#7E8A8C"/>
<path d="M162.238 72.4412L156.355 69.0225L177.641 56.7334L183.524 60.1521L162.238 72.4412Z" fill="#A0A8AA"/>
<path d="M267.276 11.7979L267.366 43.5182L162.328 104.162L162.238 72.4414L267.276 11.7979Z" fill="#8D9799"/>
<path d="M185.536 79.5902L183.821 78.5934L186.986 65.5L188.701 66.4968L185.536 79.5902Z" fill="#B2B0AF"/>
<path d="M188.702 66.5006L186.986 65.5039L190.05 63.7354L191.765 64.7321L188.702 66.5006Z" fill="#B2B0AF"/>
<path d="M183.862 85.1842L182.147 84.1874L179.075 75.2051L180.79 76.2018L183.862 85.1842Z" fill="#B2B0AF"/>
<path d="M176.147 84.9105L174.432 83.9138L177.663 70.8838L179.378 71.8806L176.147 84.9105Z" fill="#B2B0AF"/>
<path d="M179.377 71.8857L177.662 70.889L180.614 69.1846L182.329 70.1813L179.377 71.8857Z" fill="#B2B0AF"/>
<path d="M169.702 77.4746L167.986 76.4779L171.294 74.5684L173.009 75.5651L169.702 77.4746Z" fill="#B2B0AF"/>
<path d="M174.275 90.7207L172.559 89.7239L167.986 76.4736L169.702 77.4704L174.275 90.7207Z" fill="#B2B0AF"/>
<path d="M191.764 64.7314L187.303 83.1976L183.862 85.184L180.791 76.2016L177.692 88.7467L174.273 90.7202L169.7 77.4699L173.008 75.5604L176.147 84.9123L179.378 71.8824L182.33 70.178L185.536 79.5934L188.701 66.5L191.764 64.7314Z" fill="white"/>
<path d="M202.399 74.4769L200.684 73.4802L198.008 70.6055L199.723 71.6022L202.399 74.4769Z" fill="#B2B0AF"/>
<path d="M199.38 68.8643L197.665 67.8676C198.62 67.3165 199.351 66.664 199.838 65.8975L201.554 66.8942C201.067 67.6607 200.335 68.3133 199.38 68.8643Z" fill="#B2B0AF"/>
<path d="M199.98 61.8604L201.695 62.8571C202.103 63.0943 202.301 63.6169 202.303 64.4157C202.305 65.2829 202.063 66.1125 201.554 66.8918L199.839 65.8951C200.348 65.1158 200.59 64.2861 200.588 63.4189C200.585 62.6201 200.388 62.0976 199.98 61.8604Z" fill="#B2B0AF"/>
<path d="M196.764 70.3752L195.049 69.3785L197.668 67.8662L199.383 68.863L196.764 70.3752Z" fill="#B2B0AF"/>
<path d="M202.509 58.4182L204.224 59.4149C203.811 59.1747 203.309 59.0698 202.711 59.0965L200.996 58.0998C201.593 58.073 202.096 58.1779 202.509 58.4182Z" fill="#B2B0AF"/>
<path d="M199.512 60.256L197.797 59.2593C199.04 58.5416 200.084 58.1688 200.995 58.1025L202.71 59.0993C201.799 59.1656 200.755 59.5383 199.512 60.256Z" fill="#B2B0AF"/>
<path d="M193.586 79.5714L191.871 78.5746L191.826 62.71L193.541 63.7067L193.586 79.5714Z" fill="#B2B0AF"/>
<path d="M202.716 69.1834L205.815 72.5033L202.397 74.4769L199.721 71.6022L199.543 71.7047L196.769 73.3066L196.781 77.7192L193.585 79.5646L193.54 63.6999L199.511 60.2526C200.754 59.5349 201.798 59.1622 202.709 59.0959C203.621 59.055 204.311 59.3209 204.802 59.9061C205.292 60.4659 205.539 61.3451 205.543 62.5439C205.546 63.7172 205.305 64.8785 204.797 66.0149C204.311 67.1641 203.624 68.1989 202.716 69.1834ZM201.553 66.8912C202.062 66.1119 202.304 65.2822 202.302 64.415C202.299 63.5223 202.053 62.9746 201.541 62.7847C201.052 62.5821 200.318 62.7755 199.364 63.3265L196.745 64.8388L196.76 70.3735L199.38 68.8613C200.334 68.3102 201.066 67.6577 201.553 66.8912Z" fill="white"/>
<path d="M193.541 63.7028L191.826 62.7061L197.797 59.2588L199.512 60.2556L193.541 63.7028Z" fill="#B2B0AF"/>
<path d="M226.75 60.418L225.035 59.4213L224.99 43.5566L226.705 44.5534L226.75 60.418Z" fill="#B2B0AF"/>
<path d="M226.705 44.5531L224.99 43.5564L228.187 41.7109L229.902 42.7077L226.705 44.5531Z" fill="#B2B0AF"/>
<path d="M229.901 42.7148L229.945 58.5795L226.749 60.4249L226.704 44.5603L229.901 42.7148Z" fill="white"/>
<path d="M217.426 65.804L215.71 64.8072L215.674 51.9268L217.389 52.9235L217.426 65.804Z" fill="#B2B0AF"/>
<path d="M212.974 55.4771L211.258 54.4803L211.25 51.4961L212.965 52.4929L212.974 55.4771Z" fill="#B2B0AF"/>
<path d="M212.965 52.4886L211.25 51.4918L223.281 44.5459L224.996 45.5427L212.965 52.4886Z" fill="#B2B0AF"/>
<path d="M224.995 45.542L225.003 48.5262L220.586 51.0765L220.622 63.9569L217.426 65.8024L217.389 52.9219L212.972 55.4721L212.964 52.4879L224.995 45.542Z" fill="white"/>
<path d="M208.081 71.1993L206.365 70.2025L206.32 54.3379L208.036 55.3347L208.081 71.1993Z" fill="#B2B0AF"/>
<path d="M208.036 55.3343L206.32 54.3375L209.517 52.4922L211.232 53.489L208.036 55.3343Z" fill="#B2B0AF"/>
<path d="M211.231 53.4893L211.276 69.3539L208.08 71.1993L208.035 55.3346L211.231 53.4893Z" fill="white"/>
<path d="M242.715 44.974L241 43.9772L240.973 34.3359L242.688 35.3327L242.715 44.974Z" fill="#B2B0AF"/>
<path d="M242.688 35.3283L240.973 34.3315L244.125 32.5117L245.84 33.5085L242.688 35.3283Z" fill="#B2B0AF"/>
<path d="M243.26 50.8888L241.545 49.8921L234.637 44.2236L236.352 45.2204L243.26 50.8888Z" fill="#B2B0AF"/>
<path d="M233.188 40.8128L231.473 39.816L234.114 38.291L235.829 39.2878L233.188 40.8128Z" fill="#B2B0AF"/>
<path d="M233.233 56.6837L231.518 55.6869L231.473 39.8223L233.188 40.819L233.233 56.6837Z" fill="#B2B0AF"/>
<path d="M245.839 33.5078L245.884 49.3725L243.264 50.8847L236.356 45.2163L236.383 54.8574L233.232 56.6772L233.187 40.8126L235.828 39.2876L242.714 44.9689L242.687 35.3276L245.839 33.5078Z" fill="white"/>
<path d="M258.476 38.5538L256.761 37.557L256.748 32.915L258.463 33.9118L258.476 38.5538Z" fill="#B2B0AF"/>
<path d="M258.463 33.911L256.748 32.9143L259.678 31.2227L261.393 32.2194L258.463 33.911Z" fill="#B2B0AF"/>
<path d="M257.803 29.1797L259.518 30.1765C259.543 30.1907 259.567 30.2054 259.591 30.2206L257.876 29.2238C257.852 29.2087 257.827 29.194 257.803 29.1797Z" fill="#B2B0AF"/>
<path d="M252.737 41.098L251.021 40.1012C251.295 40.2604 251.611 40.3511 251.968 40.3699C252.635 40.4191 253.412 40.1746 254.278 39.6748C255.21 39.1366 256.031 38.4328 256.762 37.5508L258.477 38.5475C257.746 39.4296 256.926 40.1333 255.993 40.6716C255.128 41.1714 254.35 41.4159 253.683 41.3667C253.326 41.3479 253.011 41.2571 252.737 41.098Z" fill="#B2B0AF"/>
<path d="M259.586 25.6614L261.301 26.6581C260.695 26.306 259.976 26.168 259.13 26.2675L257.415 25.2707C258.261 25.1713 258.98 25.3092 259.586 25.6614Z" fill="#B2B0AF"/>
<path d="M255.849 27.4477L254.134 26.451C255.332 25.759 256.443 25.3478 257.421 25.2686L259.136 26.2653C258.158 26.3445 257.048 26.7558 255.849 27.4477Z" fill="#B2B0AF"/>
<path d="M250.266 44.6331L248.55 43.6364C248.168 43.4141 247.835 43.1086 247.549 42.7209C246.88 41.8556 246.565 40.6322 246.561 39.0509C246.556 37.4695 246.863 35.8873 247.525 34.253C248.165 32.6316 249.073 31.1369 250.225 29.7564C251.377 28.4013 252.686 27.2881 254.129 26.4551L255.844 27.4518C254.401 28.2849 253.092 29.3981 251.94 30.7531C250.788 32.1337 249.881 33.6284 249.24 35.2497C248.578 36.884 248.271 38.4662 248.276 40.0476C248.28 41.6289 248.595 42.8524 249.264 43.7177C249.55 44.1053 249.883 44.4108 250.266 44.6331Z" fill="#B2B0AF"/>
<path d="M255.849 27.4493C257.048 26.7573 258.158 26.346 259.136 26.2668C260.137 26.1492 260.96 26.3637 261.628 26.8719L259.592 30.219C258.59 29.5968 257.412 29.6894 256.014 30.4968C255.126 31.0094 254.349 31.6619 253.663 32.4928C252.976 33.2983 252.445 34.2179 252.069 35.201C251.694 36.184 251.497 37.1921 251.5 38.1868C251.503 39.156 251.705 39.9334 252.084 40.4807C252.464 41.028 252.998 41.3326 253.688 41.3689C254.355 41.4181 255.132 41.1736 255.998 40.6738C256.93 40.1355 257.751 39.4318 258.482 38.5498L258.469 33.9078L261.399 32.2162L261.417 38.6691C260.664 39.7424 259.8 40.7523 258.802 41.6607C257.826 42.5816 256.828 43.3368 255.829 43.9135C254.409 44.7337 253.12 45.1199 251.964 45.0721C250.808 45.0499 249.917 44.5933 249.27 43.7151C248.6 42.8498 248.286 41.6264 248.281 40.045C248.277 38.4636 248.584 36.8814 249.246 35.2471C249.886 33.6258 250.793 32.1311 251.946 30.7505C253.098 29.3955 254.406 28.2823 255.849 27.4493Z" fill="white"/>
<path d="M287.477 118.526C287.507 128.141 280.974 139.455 272.611 144.286C272.169 144.54 271.686 144.662 271.21 144.662C270.239 144.662 269.297 144.157 268.779 143.258C268.002 141.917 268.461 140.198 269.803 139.422C276.362 135.635 281.886 126.073 281.863 118.543C281.857 115.509 280.922 113.236 279.306 112.307C277.67 111.369 275.195 111.709 272.522 113.252C271.181 114.029 269.466 113.566 268.689 112.225C267.913 110.883 268.375 109.165 269.717 108.389C274.234 105.778 278.635 105.441 282.108 107.44C285.554 109.426 287.464 113.365 287.477 118.526Z" fill="#2C8C2C"/>
<path d="M274.406 103.986L274.179 145.602C274.169 149.05 271.901 152.493 267.37 155.126C258.263 160.419 243.434 160.426 234.253 155.126C229.641 152.463 227.337 148.963 227.347 145.468L227.574 103.853C227.564 107.347 229.868 110.847 234.48 113.511C243.661 118.811 258.49 118.803 267.597 113.51C272.128 110.877 274.396 107.434 274.406 103.986Z" fill="#6DCB60"/>
<path d="M267.598 113.51C259.601 118.157 247.192 118.728 238.07 115.21V156.911C247.17 160.334 259.44 159.734 267.371 155.125C271.902 152.492 274.17 149.049 274.18 145.601L274.407 103.985C274.397 107.434 272.129 110.877 267.598 113.51Z" fill="#3DB542"/>
<path d="M267.597 113.51C264.409 115.362 260.519 116.565 256.417 117.121V158.705C260.436 158.135 264.241 156.944 267.37 155.125C271.901 152.492 274.169 149.049 274.179 145.601L274.406 103.985C274.396 107.434 272.128 110.877 267.597 113.51Z" fill="#2C9A2C"/>
<path d="M274.447 104.008C274.469 96.516 264.003 90.4115 251.069 90.3727C238.136 90.3339 227.633 96.3755 227.61 103.867C227.588 111.359 238.054 117.463 250.988 117.502C263.921 117.541 274.424 111.499 274.447 104.008Z" fill="#81D672"/>
<path d="M269.874 106.636C269.051 104.683 267.342 102.829 264.699 101.303C257.08 96.9047 244.751 96.898 237.168 101.303C234.578 102.809 232.903 104.637 232.093 106.563C230.543 102.875 232.219 98.8244 237.168 95.9464C244.751 91.5419 257.08 91.5485 264.699 95.9464C269.725 98.8475 271.436 102.928 269.874 106.636Z" fill="#3DB542"/>
<path d="M269.873 106.639C269.074 108.569 267.379 110.386 264.791 111.893C257.218 116.284 244.89 116.3 237.251 111.893C234.617 110.373 232.909 108.519 232.093 106.56C232.721 105.086 233.851 103.658 235.519 102.396C236.018 102.016 236.563 101.653 237.158 101.306C244.748 96.898 257.093 96.898 264.712 101.306C266.272 102.208 267.507 103.222 268.423 104.309C269.057 105.056 269.543 105.839 269.873 106.639Z" fill="#EFC348"/>
<path d="M268.424 104.309C267.922 104.689 267.373 105.053 266.775 105.4C259.202 109.791 246.874 109.808 239.238 105.4C237.675 104.498 236.439 103.483 235.521 102.396C236.019 102.016 236.565 101.653 237.159 101.306C244.749 96.898 257.094 96.898 264.713 101.306C266.273 102.208 267.509 103.222 268.424 104.309Z" fill="#FFD651"/>
<path d="M260.362 76.3829L260.352 76.9711C260.342 77.7608 260.226 78.5472 260.058 79.3237C259.955 79.707 259.853 80.0903 259.724 80.467L259.516 81.0254L259.407 81.3063L259.308 81.5442C259.04 82.1653 258.766 82.7799 258.485 83.3945C258.201 84.0091 257.91 84.6171 257.613 85.2217C257.371 85.7372 257.143 86.2295 256.972 86.7649C256.78 87.2902 256.654 87.8387 256.532 88.3938C256.489 88.6714 256.43 88.9555 256.407 89.2397C256.39 89.3818 256.364 89.5238 256.354 89.6692L256.327 90.1021C256.255 91.2685 256.377 92.4679 256.635 93.7004C256.783 94.3051 256.945 94.9329 257.18 95.5508C257.286 95.8614 257.421 96.1918 257.543 96.5189C257.662 96.8493 257.784 97.1831 257.887 97.5267C257.586 97.3285 257.305 97.1169 257.021 96.9055C256.744 96.6907 256.466 96.4892 256.198 96.2347C256.109 96.1588 256.02 96.0795 255.937 96.0002C255.488 95.5772 255.095 95.0948 254.718 94.5859C253.869 93.3601 253.248 91.9194 252.964 90.3929C252.67 88.8696 252.686 87.2572 253.033 85.7075C253.188 84.931 253.463 84.1677 253.76 83.4474C254.028 82.8262 254.302 82.2083 254.586 81.597C254.87 80.9857 255.158 80.3744 255.458 79.7698L255.567 79.5484L255.653 79.36C255.709 79.2345 255.769 79.1089 255.832 78.9834C255.944 78.729 256.033 78.4679 256.142 78.2102C256.218 77.9425 256.324 77.6815 256.393 77.4073C256.453 77.1363 256.555 76.8654 256.598 76.5845L256.681 76.1649C256.704 76.0261 256.714 75.884 256.737 75.7419C256.79 75.4578 256.81 75.1703 256.826 74.8795C256.919 73.7132 256.826 72.5071 256.569 71.2779C256.321 70.0686 255.891 68.8559 255.313 67.5838C255.303 67.5573 255.293 67.5342 255.28 67.5078C257.811 68.8328 259.668 71.5786 260.187 74.6383C260.246 75.0216 260.309 75.4049 260.329 75.7981C260.345 75.993 260.358 76.188 260.362 76.3829Z" fill="#E9E8E6"/>
<path d="M258.482 75.0674L258.475 75.6556C258.465 76.4453 258.346 77.2317 258.178 78.0082C258.079 78.3915 257.973 78.7748 257.847 79.1515L257.636 79.7099L257.527 79.9907L257.428 80.2287C257.163 80.8498 256.886 81.4644 256.605 82.079C256.324 82.6936 256.033 83.3016 255.736 83.9062C255.491 84.4217 255.263 84.914 255.092 85.4493C254.903 85.9747 254.774 86.5232 254.652 87.0783C254.609 87.3559 254.55 87.64 254.527 87.9242C254.51 88.0663 254.487 88.2117 254.474 88.3538L254.45 88.7899C254.375 89.953 254.5 91.1524 254.754 92.3849C254.903 92.9896 255.068 93.6174 255.303 94.2353C255.409 94.5459 255.541 94.8763 255.666 95.2034C255.759 95.4677 255.855 95.7288 255.937 95.9964C255.488 95.5735 255.095 95.0911 254.718 94.5822C253.869 93.3564 253.248 91.9157 252.964 90.3892C252.67 88.8659 252.686 87.2535 253.033 85.7038C253.188 84.9273 253.463 84.164 253.76 83.4437C254.028 82.8224 254.302 82.2046 254.586 81.5933C254.87 80.982 255.158 80.3707 255.458 79.766L255.567 79.5447L255.653 79.3563C255.709 79.2308 255.769 79.1052 255.832 78.9797C255.944 78.7252 256.033 78.4642 256.142 78.2064C256.218 77.9388 256.324 77.6778 256.393 77.4035C256.453 77.1326 256.555 76.8616 256.598 76.5808L256.681 76.1611C256.704 76.0224 256.714 75.8803 256.737 75.7382C256.79 75.454 256.81 75.1666 256.826 74.8758C256.919 73.7094 256.826 72.5033 256.569 71.2742C256.321 70.0649 255.891 68.8522 255.313 67.5801C256.846 69.0438 257.93 71.1024 258.307 73.3228C258.369 73.7061 258.429 74.0927 258.452 74.4826C258.465 74.6776 258.478 74.8725 258.482 75.0674Z" fill="#D6D4D2"/>
<path d="M251.283 74.6853L251.26 75.4122C251.233 76.3803 251.078 77.3484 250.863 78.3001C250.734 78.7693 250.602 79.2451 250.443 79.7077L250.179 80.3917L250.044 80.7353L249.918 81.036C249.574 81.8224 249.221 82.6055 248.864 83.3853C248.504 84.1651 248.137 84.9416 247.764 85.7147C247.446 86.3954 247.149 87.0596 246.934 87.7733C246.693 88.4738 246.538 89.204 246.399 89.9408C246.349 90.3143 246.28 90.6843 246.26 91.061C246.247 91.2493 246.221 91.441 246.211 91.6293L246.194 92.201C246.151 93.7341 246.373 95.2904 246.782 96.8566C247.01 97.6265 247.261 98.4162 247.602 99.1828C247.76 99.5694 247.949 99.9725 248.127 100.372C248.302 100.779 248.477 101.182 248.633 101.601C248.279 101.331 247.942 101.046 247.605 100.762C247.271 100.471 246.941 100.194 246.62 99.8668C246.356 99.6189 246.105 99.3513 245.87 99.0737C245.513 98.6541 245.183 98.2047 244.866 97.7422C243.865 96.1825 243.141 94.3851 242.83 92.4917C242.507 90.6017 242.553 88.6192 242.996 86.7159C243.194 85.761 243.541 84.8259 243.911 83.9371C244.255 83.1507 244.605 82.3676 244.965 81.5878C245.325 80.8113 245.692 80.0348 246.069 79.2616L246.207 78.9774L246.32 78.7263L246.548 78.2241C246.693 77.8837 246.812 77.5335 246.948 77.1865L247.106 76.6546C247.162 76.4761 247.228 76.301 247.261 76.1193C247.337 75.7558 247.456 75.3956 247.503 75.0256L247.598 74.4672C247.628 74.2822 247.635 74.0938 247.661 73.9054C247.678 73.7171 247.714 73.5288 247.721 73.3371L247.744 72.7688C247.81 71.2356 247.625 69.6694 247.218 68.1065C246.815 66.537 246.168 64.9906 245.319 63.4277C245.586 63.5929 245.851 63.7681 246.105 63.9564C248.728 65.896 250.585 69.0714 251.101 72.5276L251.197 73.2413C251.23 73.4792 251.233 73.7204 251.253 73.9616C251.266 74.2029 251.279 74.4441 251.283 74.6853Z" fill="#E9E8E6"/>
<path d="M249.221 72.7258L249.198 73.4528C249.171 74.4209 249.016 75.389 248.801 76.3407C248.672 76.8132 248.54 77.2857 248.382 77.7483L248.117 78.4322L247.985 78.7759L247.856 79.0766C247.513 79.863 247.159 80.6461 246.802 81.4259C246.442 82.2057 246.075 82.9822 245.702 83.7553C245.385 84.436 245.087 85.1002 244.872 85.8139C244.631 86.5177 244.476 87.2446 244.337 87.9815C244.288 88.3548 244.218 88.7249 244.198 89.1049C244.185 89.2932 244.159 89.4816 244.149 89.6699L244.132 90.2415C244.089 91.7747 244.311 93.331 244.72 94.8972C244.948 95.6671 245.2 96.4568 245.54 97.2234C245.699 97.6099 245.887 98.0131 246.065 98.4162C246.24 98.8193 246.416 99.2225 246.571 99.6421C246.33 99.457 246.098 99.2687 245.87 99.0737C245.513 98.6541 245.183 98.2047 244.866 97.7422C243.865 96.1825 243.141 94.3851 242.83 92.4917C242.507 90.6017 242.553 88.6192 242.996 86.7159C243.194 85.761 243.541 84.8259 243.911 83.9371C244.255 83.1507 244.605 82.3676 244.965 81.5878C245.325 80.8113 245.692 80.0348 246.069 79.2616L246.207 78.9774L246.32 78.7263L246.548 78.2241C246.693 77.8837 246.812 77.5335 246.948 77.1865L247.106 76.6546C247.162 76.4761 247.228 76.301 247.261 76.1193C247.337 75.7558 247.456 75.3956 247.503 75.0256L247.598 74.4672C247.628 74.2822 247.635 74.0938 247.661 73.9054C247.678 73.7171 247.714 73.5288 247.721 73.3371L247.744 72.7688C247.81 71.2356 247.625 69.6694 247.218 68.1065C246.815 66.537 246.168 64.9906 245.319 63.4277C245.586 63.5929 245.851 63.7681 246.105 63.9564C247.625 65.787 248.672 68.1065 249.039 70.5682L249.135 71.2819C249.168 71.5198 249.171 71.761 249.191 72.0022C249.204 72.2434 249.221 72.4846 249.221 72.7258Z" fill="#D6D4D2"/>
</svg>
