<svg width="44" height="45" viewBox="0 0 44 45" fill="none" xmlns="http://www.w3.org/2000/svg">
<g clip-path="url(#clip0_1173_4018)">
<path d="M43.7763 19.3345C43.7028 18.8217 43.3294 18.4027 42.8284 18.271L40.6375 17.6944C40.1866 15.9337 39.4904 14.2556 38.5606 12.6882L39.7037 10.728C39.9645 10.2806 39.9324 9.72062 39.6221 9.30606C38.997 8.47091 38.302 7.66938 37.5563 6.92344C36.8124 6.17922 36.0106 5.48416 35.1736 4.85733C34.7591 4.54692 34.199 4.5147 33.7514 4.77586L31.7915 5.91917C30.2241 4.98916 28.546 4.29298 26.7854 3.84206L26.2089 1.65126C26.077 1.15033 25.6583 0.776932 25.1455 0.703283C23.0773 0.406197 20.9226 0.406197 18.8544 0.703283C18.3416 0.776846 17.9229 1.15024 17.791 1.65126L17.2145 3.84206C15.4539 4.29289 13.776 4.98907 12.2084 5.91917L10.2485 4.77586C9.80109 4.51487 9.24086 4.5471 8.8263 4.85733C7.98935 5.48407 7.18764 6.17913 6.44351 6.92344C5.69791 7.66929 5.00294 8.47083 4.37783 9.30597C4.06751 9.72053 4.03537 10.2805 4.29619 10.7279L5.43933 12.6881C4.5094 14.2557 3.81322 15.9337 3.36239 17.6943L1.1715 18.2709C0.670484 18.4026 0.297086 18.8217 0.223609 19.3344C0.0752813 20.369 0 21.4273 0 22.4799C0 23.5326 0.0752812 24.5908 0.223695 25.6253C0.297172 26.1381 0.67057 26.5571 1.17159 26.6889L3.36248 27.2654C3.81339 29.0261 4.50957 30.7042 5.43941 32.2716L4.29627 34.2319C4.03545 34.6793 4.06759 35.2392 4.37791 35.6538C5.00302 36.4889 5.698 37.2905 6.44368 38.0364C7.18764 38.7806 7.98935 39.4757 8.82638 40.1025C9.24095 40.4128 9.801 40.4452 10.2486 40.184L12.2085 39.0407C13.7759 39.9707 15.454 40.6669 17.2146 41.1177L17.7911 43.3085C17.923 43.8094 18.3417 44.1828 18.8545 44.2565C19.8886 44.4052 20.9469 44.4804 22 44.4804C23.0531 44.4804 24.1114 44.4052 25.1456 44.2567C25.6584 44.183 26.0771 43.8097 26.209 43.3087L26.7855 41.1179C28.5461 40.6671 30.224 39.9709 31.7916 39.0409L33.7515 40.1842C34.1991 40.4453 34.7592 40.4131 35.1737 40.1027C36.0107 39.476 36.8124 38.7809 37.5565 38.0366C38.3021 37.2907 38.9971 36.4892 39.6222 35.6541C39.9325 35.2395 39.9646 34.6795 39.7038 34.2321L38.5607 32.2719C39.4906 30.7043 40.1868 29.0264 40.6376 27.2657L42.8285 26.6891C43.3295 26.5574 43.7029 26.1384 43.7764 25.6256C43.9248 24.5911 44.0001 23.5328 44.0001 22.4802C44.0001 21.4275 43.9247 20.369 43.7763 19.3345ZM22 36.1961C14.4372 36.1961 8.28438 30.0433 8.28438 22.4804C8.28438 14.9176 14.4372 8.76482 22 8.76482C29.5628 8.76482 35.7156 14.9176 35.7156 22.4804C35.7156 30.0433 29.5628 36.1961 22 36.1961Z" fill="url(#paint0_linear_1173_4018)"/>
<path d="M22.0008 11.3418C15.8595 11.3418 10.8633 16.338 10.8633 22.4793C10.8633 28.6206 15.8595 33.6168 22.0008 33.6168C28.142 33.6168 33.1383 28.6206 33.1383 22.4793C33.1383 16.338 28.142 11.3418 22.0008 11.3418ZM28.4352 20.6293L21.5316 27.533C21.2898 27.7748 20.962 27.9106 20.6201 27.9106C20.2783 27.9106 19.9503 27.7749 19.7087 27.533L16.2567 24.0812C15.7533 23.5778 15.7533 22.7616 16.2567 22.2582C16.7601 21.7548 17.5763 21.7548 18.0797 22.2582L20.6201 24.7986L26.6123 18.8063C27.1156 18.303 27.9318 18.303 28.4353 18.8063C28.9386 19.3097 28.9386 20.1259 28.4352 20.6293Z" fill="url(#paint1_linear_1173_4018)"/>
</g>
<defs>
<linearGradient id="paint0_linear_1173_4018" x1="44.0001" y1="22.4805" x2="0" y2="22.4805" gradientUnits="userSpaceOnUse">
<stop stop-color="#00A2EF"/>
<stop offset="1" stop-color="#0060F7"/>
</linearGradient>
<linearGradient id="paint1_linear_1173_4018" x1="33.1383" y1="22.4793" x2="10.8633" y2="22.4793" gradientUnits="userSpaceOnUse">
<stop stop-color="#00A2EF"/>
<stop offset="1" stop-color="#0060F7"/>
</linearGradient>
<clipPath id="clip0_1173_4018">
<rect width="44" height="44" fill="white" transform="translate(0 0.480469)"/>
</clipPath>
</defs>
</svg>
