<svg width="56" height="56" viewBox="0 0 56 56" fill="none" xmlns="http://www.w3.org/2000/svg">
<path d="M47.7957 39.4765C46.1472 39.4765 44.6156 38.6578 43.7008 37.2848L41.5537 34.0647C39.6272 38.2868 35.6474 41.5047 30.9542 42.4611C30.9174 42.4676 30.8821 42.4755 30.8469 42.4852C28.9917 42.8505 27.0548 42.8537 25.1099 42.482C19.9416 41.4455 15.6796 37.7848 13.967 32.9144H14.7665C16.0719 32.9144 16.8577 31.4551 16.1314 30.3639L9.56932 20.5208C8.96054 19.6076 7.4481 19.6076 6.83943 20.5208L0.27737 30.364C-0.446473 31.4462 0.329761 32.9145 1.64226 32.9145H3.77628C6.01956 43.9154 15.9429 52.6008 28.0985 52.6008C34.7495 52.6008 41.3173 49.8506 46.024 44.8575C47.6771 43.0883 49.0617 41.0646 50.15 38.8733C49.4382 39.2612 48.6332 39.4765 47.7957 39.4765Z" fill="#0060F7"/>
<path d="M54.3574 23.0711H52.225C49.6842 10.5653 37.5993 1.93177 24.6866 3.60597C16.0981 4.86903 9.36403 10.1332 5.87891 17.1722C8.01325 16.1255 10.9212 16.6326 12.299 18.7007L14.4546 21.934C16.3448 17.7975 20.2072 14.6264 24.7799 13.6019C32.4493 11.9921 39.5956 16.2407 42.0278 23.0711H41.2331C39.9205 23.0711 39.1443 24.5394 39.8682 25.6216L46.4302 35.4647C47.079 36.4378 48.5114 36.4378 49.1601 35.4647L55.7222 25.6216C56.4488 24.5305 55.6628 23.0711 54.3574 23.0711Z" fill="#0060F7"/>
<path d="M31.4817 27.7964C30.5542 26.8656 29.3173 26.353 28.0004 26.353C27.5614 26.353 27.1497 26.1831 26.839 25.8707C26.21 25.245 26.189 24.2007 26.8421 23.5509C27.4574 22.9325 28.5436 22.9325 29.1588 23.5509C29.7981 24.195 30.8362 24.1917 31.4787 23.5541C32.1211 22.9148 32.1211 21.875 31.4818 21.2342C30.9609 20.7115 30.3208 20.3732 29.641 20.1444V18.1502C29.641 17.2436 28.9073 16.5098 28.0005 16.5098C27.0938 16.5098 26.36 17.2436 26.36 18.1503V20.1441C25.6809 20.3728 25.0417 20.7101 24.5224 21.231C22.5923 23.1545 22.597 26.2749 24.5192 28.1905C25.4467 29.1213 26.6837 29.6339 28.0005 29.6339C28.4396 29.6339 28.8513 29.8038 29.162 30.1161C29.791 30.7419 29.812 31.7862 29.1588 32.436C28.5436 33.0544 27.4574 33.0544 26.8421 32.436C26.2013 31.7935 25.1631 31.7935 24.5223 32.4328C23.8798 33.0721 23.8798 34.1118 24.5191 34.7526C25.0452 35.2806 25.6768 35.6562 26.3599 35.8979V37.8366C26.3599 38.7433 27.0937 39.4771 28.0004 39.4771C28.9071 39.4771 29.6409 38.7433 29.6409 37.8366V35.8983C30.3237 35.6571 30.9544 35.2817 31.4785 34.7559C33.4087 32.8325 33.404 29.712 31.4817 27.7964Z" fill="#0060F7"/>
</svg>
