<svg width="56" height="56" viewBox="0 0 56 56" fill="none" xmlns="http://www.w3.org/2000/svg">
<g clip-path="url(#clip0_1161_4259)">
<path d="M26.3603 6.5625C20.0426 6.92523 14.1205 9.37805 9.39648 13.589L16.402 20.5941C17.9435 20.0468 19.6021 19.7477 21.329 19.7477C23.0948 19.7477 24.7893 20.0601 26.3603 20.6313V6.5625Z" fill="#0060F7"/>
<path d="M32.7283 25.1396L45.9802 13.049C41.3634 9.16827 35.6832 6.90942 29.6406 6.5625V22.3168C30.7985 23.108 31.8384 24.0595 32.7283 25.1396Z" fill="#0060F7"/>
<path d="M0 34.5136V36.1542H6.5625V34.5136C6.5625 29.3315 9.24603 24.7651 13.2959 22.1295L7.07562 15.9092C2.50195 21.04 0 27.5841 0 34.5136Z" fill="#0060F7"/>
<path d="M47.2988 36.1545H55.9993V34.5139C55.9993 32.1282 55.7015 29.7886 55.1264 27.5361L47.2988 36.1545Z" fill="#0060F7"/>
<path d="M27.999 36.21C26.246 36.21 24.5977 36.8927 23.3582 38.1321C20.7999 40.6909 20.7999 44.854 23.3582 47.4128C24.5977 48.6522 26.246 49.335 27.999 49.335C29.7515 49.335 31.3998 48.6522 32.6393 47.4128C35.1981 44.854 35.1981 40.6909 32.6393 38.1321C31.3998 36.8927 29.7515 36.21 27.999 36.21Z" fill="#0060F7"/>
<path d="M49.0204 14.7168L29.0039 32.979C31.2534 33.2054 33.3396 34.1911 34.9597 35.8112C36.6191 37.4706 37.5595 39.5804 37.7842 41.7508L55.9999 21.6942V14.7168H49.0204Z" fill="#0060F7"/>
</g>
<defs>
<clipPath id="clip0_1161_4259">
<rect width="56" height="56" fill="white"/>
</clipPath>
</defs>
</svg>
