<svg width="56" height="56" viewBox="0 0 56 56" fill="none" xmlns="http://www.w3.org/2000/svg">
<path fill-rule="evenodd" clip-rule="evenodd" d="M28.6968 5.61144C24.3403 5.46636 19.9388 6.65494 16.1388 9.19147C11.8708 12.0434 8.88811 16.2548 7.51426 20.9628C7.13487 20.9165 6.68056 20.9369 6.1411 21.0895C4.12699 21.6609 2.61216 23.3113 1.93103 24.7649C1.0476 26.6591 0.67502 29.1643 1.06803 31.7506C1.45832 34.3286 2.54745 36.4538 3.90971 37.7731C5.27606 39.0932 6.81883 39.5223 8.35137 39.2001C10.6332 38.7131 11.7645 38.3487 11.4451 36.2229L9.89822 25.918C10.2102 20.3409 13.0975 15.0908 17.9267 11.8622C24.3907 7.5445 32.8653 7.82103 39.0309 12.5542C43.32 15.8427 45.8102 20.77 46.0976 25.9425L45.016 33.151C42.6034 39.7532 36.6224 44.3263 29.7014 44.9754H25.0929C23.9037 44.9754 22.946 45.9331 22.946 47.121V48.253C22.946 49.4416 23.9037 50.3993 25.0929 50.3993H30.9036C32.0922 50.3993 33.0458 49.4416 33.0458 48.253V47.6611C38.2646 46.3874 42.82 43.1799 45.7864 38.707L47.6479 39.2008C49.1627 39.5938 50.7239 39.0932 52.0896 37.7738C53.4518 36.4538 54.5403 34.3293 54.9312 31.7512C55.3256 29.165 54.9421 26.6639 54.0689 24.7655C53.1923 22.8672 51.8866 21.6616 50.3792 21.2291C49.7478 21.0472 49.0626 20.9805 48.4748 20.9628C47.2324 16.7057 44.6748 12.8342 40.9885 10.0075C37.3642 7.22641 33.0533 5.75448 28.6968 5.61144Z" fill="#0060F7"/>
<path fill-rule="evenodd" clip-rule="evenodd" d="M35.4971 24.1495C37.0331 24.1495 38.2782 25.3946 38.2816 26.9347C38.2782 28.4706 37.0331 29.7191 35.4971 29.7191C33.9571 29.7191 32.7086 28.4706 32.7086 26.9347C32.7086 25.3953 33.9578 24.1495 35.4971 24.1495ZM27.9979 24.1495C29.5372 24.1495 30.7823 25.3946 30.7823 26.9347C30.7823 28.4706 29.5372 29.7191 27.9979 29.7191C26.4571 29.7191 25.212 28.4706 25.212 26.9347C25.212 25.3953 26.4571 24.1495 27.9979 24.1495ZM20.5013 24.1495C22.0373 24.1495 23.2858 25.3946 23.2858 26.9347C23.2858 28.4706 22.0373 29.7191 20.5013 29.7191C18.962 29.7191 17.7162 28.4706 17.7162 26.9347C17.7162 25.3953 18.962 24.1495 20.5013 24.1495ZM27.9979 12.1875C19.8311 12.1875 13.25 18.552 13.25 26.9347C13.25 30.9608 14.7723 34.5191 17.2523 37.1299L16.3723 41.075C16.0821 42.3732 16.9826 43.2464 18.1494 42.5966L22.0019 40.4476C23.8327 41.2425 25.8577 41.6819 27.9979 41.6819C36.1674 41.6819 42.7444 35.3215 42.7444 26.9347C42.7444 18.552 36.1674 12.1875 27.9979 12.1875Z" fill="#0060F7"/>
</svg>
