<svg width="44" height="45" viewBox="0 0 44 45" fill="none" xmlns="http://www.w3.org/2000/svg">
<path d="M41.0434 3.77103C41.009 3.61635 40.8887 3.49603 40.7426 3.45307C35.7066 2.22416 24.0793 6.60697 17.7801 12.9062C16.6543 14.0234 15.6316 15.2351 14.7207 16.5242C12.7785 16.3523 10.8363 16.4984 9.17774 17.2203C4.50274 19.2742 3.14493 24.6453 2.75821 26.9484C2.68087 27.3953 2.98165 27.8249 3.43712 27.9023C3.51446 27.9109 3.5918 27.9195 3.66915 27.9109L11.1715 27.0859C11.1801 27.6531 11.2145 28.2203 11.2746 28.7788C11.309 29.1656 11.4895 29.5351 11.7645 29.8101L14.6691 32.7062C14.9441 32.9812 15.3137 33.1617 15.7004 33.196C16.259 33.2562 16.8176 33.2906 17.3848 33.2992L16.5598 40.7929C16.5082 41.2484 16.8434 41.6609 17.2988 41.7039C17.3762 41.7124 17.4535 41.7124 17.5223 41.6953C19.8254 41.3257 25.2051 39.9679 27.2504 35.2929C27.9723 33.6343 28.1184 31.7007 27.9551 29.7671C29.2527 28.8562 30.4645 27.8249 31.5816 26.7078C37.8981 20.4257 42.2551 9.05619 41.0434 3.77103ZM31.1004 19.2054C29.4934 20.8124 26.8809 20.821 25.2738 19.2054C23.6582 17.5984 23.6582 14.9859 25.2738 13.3703C26.8809 11.7546 29.4934 11.7546 31.109 13.3703C32.716 14.9859 32.716 17.5984 31.1004 19.2054Z" fill="url(#paint0_linear_1173_4008)"/>
<path d="M14.4719 34.8037C13.9992 35.2764 13.243 35.4569 12.332 35.6201C10.2867 35.9639 8.48203 34.2022 8.85156 32.1397C8.98906 31.3576 9.41016 30.2576 9.66797 29.9998C9.81406 29.8537 9.82266 29.6131 9.67656 29.467C9.59062 29.3811 9.47891 29.3381 9.35859 29.3553C8.21563 29.4928 7.15 30.017 6.34219 30.8248C4.31406 32.853 4.125 40.3553 4.125 40.3553C4.125 40.3553 11.6359 40.1662 13.6555 38.1381C14.4719 37.3217 14.9875 36.2647 15.125 35.1131C15.1594 34.7608 14.7211 34.5459 14.4719 34.8037Z" fill="url(#paint1_linear_1173_4008)"/>
<defs>
<linearGradient id="paint0_linear_1173_4008" x1="41.246" y1="22.4778" x2="2.74609" y2="22.4778" gradientUnits="userSpaceOnUse">
<stop stop-color="#00A2EF"/>
<stop offset="1" stop-color="#0060F7"/>
</linearGradient>
<linearGradient id="paint1_linear_1173_4008" x1="15.1269" y1="34.8534" x2="4.125" y2="34.8534" gradientUnits="userSpaceOnUse">
<stop stop-color="#00A2EF"/>
<stop offset="1" stop-color="#0060F7"/>
</linearGradient>
</defs>
</svg>
