<svg width="44" height="45" viewBox="0 0 44 45" fill="none" xmlns="http://www.w3.org/2000/svg">
<g clip-path="url(#clip0_1173_3998)">
<path d="M21.9988 14.0977C17.376 14.0977 13.6152 17.8584 13.6152 22.4809C13.6152 27.1037 17.376 30.8645 21.9988 30.8645C26.6213 30.8645 30.3821 27.1037 30.3821 22.4809C30.3821 17.8584 26.6213 14.0977 21.9988 14.0977ZM26.9761 20.9021L20.9703 26.908C20.7182 27.1601 20.3875 27.2863 20.0572 27.2863C19.7269 27.2863 19.3965 27.1605 19.1444 26.908L16.8493 24.6129C16.3451 24.109 16.3451 23.2916 16.8493 22.7874C17.3532 22.2832 18.1706 22.2832 18.6748 22.7874L20.0572 24.1698L25.1506 19.0766C25.6545 18.5724 26.4719 18.5724 26.9761 19.0766C27.4803 19.5805 27.4803 20.3979 26.9761 20.9021Z" fill="url(#paint0_linear_1173_3998)"/>
<path d="M40.6903 12.4188L40.6889 12.3845C40.6698 11.9619 40.657 11.5148 40.6493 11.0173C40.6134 8.59122 38.6849 6.58445 36.2585 6.44883C31.1996 6.16651 27.2861 4.51692 23.9422 1.25768L23.9137 1.23049C22.823 0.230462 21.1778 0.230462 20.0868 1.23049L20.0583 1.25768C16.7145 4.51692 12.801 6.16651 7.74207 6.44916C5.31602 6.58445 3.38713 8.59122 3.35121 11.0176C3.34383 11.5117 3.33073 11.9589 3.3116 12.3845L3.30959 12.4641C3.21123 17.6227 3.08904 24.0428 5.2368 29.8701C6.41776 33.0746 8.20633 35.8602 10.5525 38.1499C13.2246 40.7576 16.7245 42.8278 20.9549 44.3028C21.0926 44.3509 21.2356 44.3898 21.3813 44.419C21.5867 44.46 21.7935 44.4804 22.0003 44.4804C22.2071 44.4804 22.4142 44.46 22.6193 44.419C22.765 44.3898 22.909 44.3505 23.0473 44.3022C27.2727 42.8245 30.7689 40.7532 33.4387 38.1459C35.7838 35.8555 37.5724 33.0692 38.7543 29.864C40.9102 24.0193 40.7883 17.5871 40.6903 12.4188ZM21.9996 33.4466C15.9531 33.4466 11.0342 28.5277 11.0342 22.4812C11.0342 16.4347 15.9531 11.5158 21.9996 11.5158C28.0458 11.5158 32.965 16.4347 32.965 22.4812C32.965 28.5277 28.0458 33.4466 21.9996 33.4466Z" fill="url(#paint1_linear_1173_3998)"/>
</g>
<defs>
<linearGradient id="paint0_linear_1173_3998" x1="30.3821" y1="22.4811" x2="13.6152" y2="22.4811" gradientUnits="userSpaceOnUse">
<stop stop-color="#00A2EF"/>
<stop offset="1" stop-color="#0060F7"/>
</linearGradient>
<linearGradient id="paint1_linear_1173_3998" x1="40.7339" y1="22.4804" x2="3.26562" y2="22.4804" gradientUnits="userSpaceOnUse">
<stop stop-color="#00A2EF"/>
<stop offset="1" stop-color="#0060F7"/>
</linearGradient>
<clipPath id="clip0_1173_3998">
<rect width="44" height="44" fill="white" transform="translate(0 0.480469)"/>
</clipPath>
</defs>
</svg>
