<svg width="44" height="45" viewBox="0 0 44 45" fill="none" xmlns="http://www.w3.org/2000/svg">
<path fill-rule="evenodd" clip-rule="evenodd" d="M22.5476 4.89016C19.1246 4.77617 15.6663 5.71005 12.6806 7.70304C9.32718 9.94381 6.98365 13.2528 5.9042 16.9519C5.60611 16.9155 5.24915 16.9316 4.82529 17.0515C3.24278 17.5005 2.05255 18.7972 1.51737 19.9393C0.823253 21.4276 0.530512 23.396 0.839308 25.428C1.14596 27.4537 2.00171 29.1234 3.07206 30.16C4.14562 31.1972 5.35779 31.5344 6.56193 31.2812C8.35477 30.8986 9.24369 30.6123 8.9927 28.942L7.77731 20.8453C8.02242 16.4633 10.291 12.3382 14.0854 9.80146C19.1642 6.40898 25.8229 6.62626 30.6673 10.3452C34.0373 12.929 35.9939 16.8005 36.2197 20.8646L35.3699 26.5283C33.4743 31.7158 28.7749 35.309 23.337 35.819H19.716C18.7816 35.819 18.0291 36.5714 18.0291 37.5048V38.3942C18.0291 39.3281 18.7816 40.0806 19.716 40.0806H24.2816C25.2155 40.0806 25.9647 39.3281 25.9647 38.3942V37.9292C30.0652 36.9284 33.6445 34.4083 35.9751 30.8938L37.4378 31.2818C38.628 31.5906 39.8546 31.1972 40.9277 30.1606C41.998 29.1234 42.8532 27.4542 43.1604 25.4286C43.4703 23.3965 43.169 21.4313 42.4829 19.9398C41.7941 18.4483 40.7682 17.501 39.5838 17.1612C39.0877 17.0183 38.5493 16.9658 38.0875 16.9519C37.1113 13.6071 35.1017 10.5652 32.2054 8.34418C29.3577 6.15906 25.9706 5.00254 22.5476 4.89016Z" fill="url(#paint0_linear_1157_3774)"/>
<path fill-rule="evenodd" clip-rule="evenodd" d="M27.89 19.4554C29.0969 19.4554 30.0752 20.4337 30.0778 21.6437C30.0752 22.8505 29.0969 23.8315 27.89 23.8315C26.68 23.8315 25.699 22.8505 25.699 21.6437C25.699 20.4342 26.6805 19.4554 27.89 19.4554ZM21.9978 19.4554C23.2073 19.4554 24.1856 20.4337 24.1856 21.6437C24.1856 22.8505 23.2073 23.8315 21.9978 23.8315C20.7872 23.8315 19.8089 22.8505 19.8089 21.6437C19.8089 20.4342 20.7872 19.4554 21.9978 19.4554ZM16.1076 19.4554C17.3144 19.4554 18.2954 20.4337 18.2954 21.6437C18.2954 22.8505 17.3144 23.8315 16.1076 23.8315C14.8981 23.8315 13.9193 22.8505 13.9193 21.6437C13.9193 20.4342 14.8981 19.4554 16.1076 19.4554ZM21.9978 10.0566C15.581 10.0566 10.4102 15.0573 10.4102 21.6437C10.4102 24.8071 11.6063 27.6029 13.5548 29.6542L12.8634 32.7539C12.6354 33.774 13.3429 34.4601 14.2597 33.9495L17.2866 32.261C18.7252 32.8856 20.3162 33.2308 21.9978 33.2308C28.4166 33.2308 33.5843 28.2333 33.5843 21.6437C33.5843 15.0573 28.4166 10.0566 21.9978 10.0566Z" fill="url(#paint1_linear_1157_3774)"/>
<defs>
<linearGradient id="paint0_linear_1157_3774" x1="43.2822" y1="22.4807" x2="0.716797" y2="22.4807" gradientUnits="userSpaceOnUse">
<stop stop-color="#00A2EF"/>
<stop offset="1" stop-color="#0060F7"/>
</linearGradient>
<linearGradient id="paint1_linear_1157_3774" x1="33.5843" y1="22.0895" x2="10.4102" y2="22.0895" gradientUnits="userSpaceOnUse">
<stop stop-color="#00A2EF"/>
<stop offset="1" stop-color="#0060F7"/>
</linearGradient>
</defs>
</svg>
