<svg width="56" height="56" viewBox="0 0 56 56" fill="none" xmlns="http://www.w3.org/2000/svg">
<g clip-path="url(#clip0_1161_4267)">
<path d="M55.7153 23.9961C55.6218 23.3434 55.1465 22.8101 54.5089 22.6425L51.7205 21.9087C51.1466 19.6678 50.2605 17.532 49.0771 15.5371L50.532 13.0423C50.864 12.4729 50.8231 11.7602 50.4281 11.2326C49.6325 10.1697 48.748 9.14952 47.799 8.20014C46.8521 7.25296 45.8317 6.36833 44.7664 5.57055C44.2388 5.17549 43.526 5.13447 42.9564 5.46686L40.462 6.92199C38.4671 5.73833 36.3313 4.85228 34.0905 4.27839L33.3568 1.4901C33.189 0.852551 32.656 0.377316 32.0033 0.283582C29.3711 -0.0945273 26.6288 -0.0945273 23.9965 0.283582C23.3439 0.377207 22.8109 0.852441 22.6431 1.4901L21.9093 4.27839C19.6686 4.85218 17.533 5.73822 15.5379 6.92199L13.0435 5.46686C12.4741 5.13469 11.7611 5.17571 11.2335 5.57055C10.1683 6.36822 9.14791 7.25285 8.20083 8.20014C7.25189 9.14941 6.36738 10.1695 5.57178 11.2325C5.17683 11.7601 5.13592 12.4728 5.46788 13.0422L6.92278 15.537C5.73923 17.5321 4.85319 19.6678 4.27941 21.9086L1.491 22.6423C0.853344 22.81 0.378109 23.3433 0.284594 23.996C0.0958125 25.3127 0 26.6596 0 27.9993C0 29.3391 0.0958125 30.6859 0.284703 32.0026C0.378219 32.6552 0.853453 33.1885 1.49111 33.3562L4.27952 34.09C4.85341 36.3308 5.73945 38.4666 6.92289 40.4615L5.46798 42.9563C5.13603 43.5258 5.17694 44.2384 5.57189 44.7661C6.36748 45.829 7.252 46.8491 8.20105 47.7985C9.14791 48.7457 10.1683 49.6303 11.2336 50.4281C11.7612 50.823 12.474 50.8642 13.0436 50.5318L15.538 49.0766C17.5329 50.2603 19.6687 51.1463 21.9095 51.7201L22.6432 54.5084C22.811 55.146 23.344 55.6212 23.9967 55.7149C25.3128 55.9042 26.6597 56 28 56C29.3403 56 30.6872 55.9042 32.0035 55.7152C32.6561 55.6214 33.1891 55.1463 33.3569 54.5086L34.0907 51.7203C36.3314 51.1466 38.467 50.2605 40.4621 49.0769L42.9565 50.532C43.5261 50.8644 44.239 50.8234 44.7665 50.4283C45.8317 49.6306 46.8521 48.746 47.7992 47.7987C48.7481 46.8494 49.6326 45.8293 50.4282 44.7664C50.8232 44.2388 50.8641 43.5261 50.5321 42.9567L49.0772 40.4618C50.2608 38.4667 51.1468 36.3312 51.7206 34.0903L54.509 33.3565C55.1467 33.1888 55.6219 32.6555 55.7154 32.0029C55.9043 30.6862 56.0001 29.3394 56.0001 27.9996C56.0001 26.6599 55.9042 25.3127 55.7153 23.9961ZM28 45.4562C18.3746 45.4562 10.5437 37.6254 10.5437 28C10.5437 18.3745 18.3746 10.5437 28 10.5437C37.6254 10.5437 45.4562 18.3745 45.4562 28C45.4562 37.6254 37.6254 45.4562 28 45.4562Z" fill="#0060F7"/>
<path d="M27.9992 13.8242C20.1831 13.8242 13.8242 20.1831 13.8242 27.9992C13.8242 35.8154 20.1831 42.1742 27.9992 42.1742C35.8154 42.1742 42.1742 35.8154 42.1742 27.9992C42.1742 20.1831 35.8154 13.8242 27.9992 13.8242ZM36.1884 25.6447L27.402 34.4312C27.0944 34.7389 26.6771 34.9118 26.242 34.9118C25.8069 34.9118 25.3895 34.739 25.082 34.4312L20.6886 30.038C20.0479 29.3974 20.0479 28.3585 20.6886 27.7178C21.3292 27.0772 22.368 27.0772 23.0088 27.7178L26.242 30.951L33.8684 23.3245C34.509 22.6839 35.5478 22.6839 36.1886 23.3245C36.8292 23.9651 36.8292 25.004 36.1884 25.6447Z" fill="#0060F7"/>
</g>
<defs>
<clipPath id="clip0_1161_4267">
<rect width="56" height="56" fill="white"/>
</clipPath>
</defs>
</svg>
